<svg width="20" height="20" viewBox="0 0 20 20" fill="none" xmlns="http://www.w3.org/2000/svg">
<path d="M5.00012 4C5.00012 3.44772 4.55241 3 4.00012 3C3.44784 3 3.00012 3.44772 3.00012 4V11.2676C2.40232 11.6134 2.00012 12.2597 2.00012 13C2.00012 13.7403 2.40232 14.3866 3.00012 14.7324V16C3.00012 16.5523 3.44784 17 4.00012 17C4.55241 17 5.00012 16.5523 5.00012 16V14.7324C5.59792 14.3866 6.00012 13.7403 6.00012 13C6.00012 12.2597 5.59792 11.6134 5.00012 11.2676V4Z" fill="#111827"/>
<path d="M11.0001 4C11.0001 3.44772 10.5524 3 10.0001 3C9.44784 3 9.00012 3.44772 9.00012 4V5.26756C8.40232 5.61337 8.00012 6.25972 8.00012 7C8.00012 7.74028 8.40232 8.38663 9.00012 8.73244V16C9.00012 16.5523 9.44784 17 10.0001 17C10.5524 17 11.0001 16.5523 11.0001 16V8.73244C11.5979 8.38663 12.0001 7.74028 12.0001 7C12.0001 6.25972 11.5979 5.61337 11.0001 5.26756V4Z" fill="#111827"/>
<path d="M16.0001 3C16.5524 3 17.0001 3.44772 17.0001 4V11.2676C17.5979 11.6134 18.0001 12.2597 18.0001 13C18.0001 13.7403 17.5979 14.3866 17.0001 14.7324V16C17.0001 16.5523 16.5524 17 16.0001 17C15.4478 17 15.0001 16.5523 15.0001 16V14.7324C14.4023 14.3866 14.0001 13.7403 14.0001 13C14.0001 12.2597 14.4023 11.6134 15.0001 11.2676V4C15.0001 3.44772 15.4478 3 16.0001 3Z" fill="#111827"/>
</svg>
