<svg width="20" height="20" viewBox="0 0 20 20" fill="none" xmlns="http://www.w3.org/2000/svg">
<path d="M4.00006 3C2.89549 3 2.00006 3.89543 2.00006 5C2.00006 6.10457 2.89549 7 4.00006 7H16.0001C17.1046 7 18.0001 6.10457 18.0001 5C18.0001 3.89543 17.1046 3 16.0001 3H4.00006Z" fill="#111827"/>
<path fill-rule="evenodd" clip-rule="evenodd" d="M3.00006 8H17.0001V15C17.0001 16.1046 16.1046 17 15.0001 17H5.00006C3.89549 17 3.00006 16.1046 3.00006 15V8ZM8.00006 11C8.00006 10.4477 8.44778 10 9.00006 10H11.0001C11.5523 10 12.0001 10.4477 12.0001 11C12.0001 11.5523 11.5523 12 11.0001 12H9.00006C8.44778 12 8.00006 11.5523 8.00006 11Z" fill="#111827"/>
</svg>
