<svg width="20" height="20" viewBox="0 0 20 20" fill="none" xmlns="http://www.w3.org/2000/svg">
<path fill-rule="evenodd" clip-rule="evenodd" d="M10.0001 18C14.4184 18 18.0001 14.4183 18.0001 10C18.0001 5.58172 14.4184 2 10.0001 2C5.58184 2 2.00012 5.58172 2.00012 10C2.00012 14.4183 5.58184 18 10.0001 18ZM13.7072 9.29289L10.7072 6.29289C10.3167 5.90237 9.68354 5.90237 9.29302 6.29289L6.29302 9.29289C5.90249 9.68342 5.90249 10.3166 6.29302 10.7071C6.68354 11.0976 7.3167 11.0976 7.70723 10.7071L9.00012 9.41421L9.00012 13C9.00012 13.5523 9.44784 14 10.0001 14C10.5524 14 11.0001 13.5523 11.0001 13V9.41421L12.293 10.7071C12.6835 11.0976 13.3167 11.0976 13.7072 10.7071C14.0978 10.3166 14.0978 9.68342 13.7072 9.29289Z" fill="#111827"/>
</svg>
