<svg width="20" height="20" viewBox="0 0 20 20" fill="none" xmlns="http://www.w3.org/2000/svg">
<path fill-rule="evenodd" clip-rule="evenodd" d="M10.0001 18C14.4183 18 18 14.4183 18 10C18 5.58172 14.4183 2 10.0001 2C5.58178 2 2.00006 5.58172 2.00006 10C2.00006 14.4183 5.58178 18 10.0001 18ZM13.7072 9.29289L10.7072 6.29289C10.3166 5.90237 9.68347 5.90237 9.29295 6.29289C8.90242 6.68342 8.90242 7.31658 9.29295 7.70711L10.5858 9L7.00006 9C6.44777 9 6.00006 9.44771 6.00006 10C6.00006 10.5523 6.44777 11 7.00006 11H10.5858L9.29295 12.2929C8.90242 12.6834 8.90242 13.3166 9.29295 13.7071C9.68347 14.0976 10.3166 14.0976 10.7072 13.7071L13.7072 10.7071C14.0977 10.3166 14.0977 9.68342 13.7072 9.29289Z" fill="#111827"/>
</svg>
