<svg width="20" height="20" viewBox="0 0 20 20" fill="none" xmlns="http://www.w3.org/2000/svg">
<path fill-rule="evenodd" clip-rule="evenodd" d="M10.0001 18C14.4184 18 18.0001 14.4183 18.0001 10C18.0001 5.58172 14.4184 2 10.0001 2C5.58184 2 2.00012 5.58172 2.00012 10C2.00012 14.4183 5.58184 18 10.0001 18ZM10.7072 7.70711C11.0978 7.31658 11.0978 6.68342 10.7072 6.29289C10.3167 5.90237 9.68354 5.90237 9.29301 6.29289L6.29302 9.29289C5.90249 9.68342 5.90249 10.3166 6.29302 10.7071L9.29302 13.7071C9.68354 14.0976 10.3167 14.0976 10.7072 13.7071C11.0978 13.3166 11.0978 12.6834 10.7072 12.2929L9.41434 11H13.0001C13.5524 11 14.0001 10.5523 14.0001 10C14.0001 9.44772 13.5524 9 13.0001 9L9.41434 9L10.7072 7.70711Z" fill="#111827"/>
</svg>
