<svg width="20" height="20" viewBox="0 0 20 20" fill="none" xmlns="http://www.w3.org/2000/svg">
<path fill-rule="evenodd" clip-rule="evenodd" d="M3.00012 4C3.00012 3.44772 3.44784 3 4.00012 3H8.00012C8.55241 3 9.00012 3.44772 9.00012 4C9.00012 4.55228 8.55241 5 8.00012 5H6.41434L8.70723 7.29289C9.09775 7.68342 9.09775 8.31658 8.70723 8.70711C8.3167 9.09763 7.68354 9.09763 7.29302 8.70711L5.00012 6.41421V8C5.00012 8.55228 4.55241 9 4.00012 9C3.44784 9 3.00012 8.55228 3.00012 8V4ZM12.0001 5C11.4478 5 11.0001 4.55228 11.0001 4C11.0001 3.44772 11.4478 3 12.0001 3H16.0001C16.5524 3 17.0001 3.44772 17.0001 4V8C17.0001 8.55228 16.5524 9 16.0001 9C15.4478 9 15.0001 8.55228 15.0001 8V6.41421L12.7072 8.70711C12.3167 9.09763 11.6835 9.09763 11.293 8.70711C10.9025 8.31658 10.9025 7.68342 11.293 7.29289L13.5859 5H12.0001ZM3.00012 12C3.00012 11.4477 3.44784 11 4.00012 11C4.55241 11 5.00012 11.4477 5.00012 12V13.5858L7.29302 11.2929C7.68354 10.9024 8.3167 10.9024 8.70723 11.2929C9.09775 11.6834 9.09775 12.3166 8.70723 12.7071L6.41434 15H8.00012C8.55241 15 9.00012 15.4477 9.00012 16C9.00012 16.5523 8.55241 17 8.00012 17H4.00012C3.44784 17 3.00012 16.5523 3.00012 16V12ZM16.0001 11C16.5524 11 17.0001 11.4477 17.0001 12V16C17.0001 16.5523 16.5524 17 16.0001 17H12.0001C11.4478 17 11.0001 16.5523 11.0001 16C11.0001 15.4477 11.4478 15 12.0001 15H13.5859L11.293 12.7071C10.9025 12.3166 10.9025 11.6834 11.293 11.2929C11.6835 10.9024 12.3167 10.9024 12.7072 11.2929L15.0001 13.5858V12C15.0001 11.4477 15.4478 11 16.0001 11Z" fill="#111827"/>
</svg>
