<svg width="20" height="20" viewBox="0 0 20 20" fill="none" xmlns="http://www.w3.org/2000/svg">
<path fill-rule="evenodd" clip-rule="evenodd" d="M10.0001 18C14.4184 18 18.0001 14.4183 18.0001 10C18.0001 5.58172 14.4184 2 10.0001 2C5.58179 2 2.00006 5.58172 2.00006 10C2.00006 14.4183 5.58179 18 10.0001 18ZM11.0001 7C11.0001 6.44772 10.5524 6 10.0001 6C9.44779 6 9.00008 6.44772 9.00008 7L9.00008 10.5858L7.70718 9.29289C7.31665 8.90237 6.68349 8.90237 6.29296 9.29289C5.90244 9.68342 5.90244 10.3166 6.29296 10.7071L9.29297 13.7071C9.6835 14.0976 10.3167 14.0976 10.7072 13.7071L13.7072 10.7071C14.0977 10.3166 14.0977 9.68342 13.7072 9.29289C13.3167 8.90237 12.6835 8.90237 12.293 9.29289L11.0001 10.5858V7Z" fill="#111827"/>
</svg>
