<svg width="20" height="20" viewBox="0 0 20 20" fill="none" xmlns="http://www.w3.org/2000/svg">
<path fill-rule="evenodd" clip-rule="evenodd" d="M14.2428 5.75736C11.8996 3.41421 8.10063 3.41421 5.75748 5.75736C3.41434 8.10051 3.41434 11.8995 5.75748 14.2426C7.79407 16.2792 10.9327 16.5464 13.2571 15.0408C13.7206 14.7405 14.3398 14.8729 14.64 15.3364C14.9403 15.8 14.8079 16.4191 14.3444 16.7194C11.2446 18.7273 7.06072 18.3743 4.34327 15.6569C1.21907 12.5327 1.21907 7.46734 4.34327 4.34315C7.46746 1.21895 12.5328 1.21895 15.657 4.34315C17.2189 5.90503 18.0001 7.9542 18.0001 10C18.0001 11.6569 16.657 13 15.0001 13C14.3248 13 13.7016 12.7769 13.2002 12.4003C12.4704 13.3717 11.3087 14 10.0001 14C7.79098 14 6.00012 12.2091 6.00012 10C6.00012 7.79086 7.79098 6 10.0001 6C12.2093 6 14.0001 7.79086 14.0001 10C14.0001 10.5523 14.4478 11 15.0001 11C15.5524 11 16.0001 10.5523 16.0001 10C16.0001 8.46294 15.4145 6.9291 14.2428 5.75736ZM12.0001 10C12.0001 8.89543 11.1047 8 10.0001 8C8.89555 8 8.00012 8.89543 8.00012 10C8.00012 11.1046 8.89555 12 10.0001 12C11.1047 12 12.0001 11.1046 12.0001 10Z" fill="#111827"/>
</svg>
