<svg width="20" height="20" viewBox="0 0 20 20" fill="none" xmlns="http://www.w3.org/2000/svg">
<path fill-rule="evenodd" clip-rule="evenodd" d="M6.70717 4.87868C7.26978 4.31607 8.03284 4 8.82849 4H15.0001C16.6569 4 18.0001 5.34315 18.0001 7V13C18.0001 14.6569 16.6569 16 15.0001 16H8.82849C8.03284 16 7.26978 15.6839 6.70717 15.1213L2.29295 10.7071C2.10542 10.5196 2.00006 10.2652 2.00006 10C2.00006 9.73478 2.10542 9.48043 2.29295 9.29289L6.70717 4.87868ZM10.7072 7.29289C10.3166 6.90237 9.68348 6.90237 9.29295 7.29289C8.90243 7.68342 8.90243 8.31658 9.29295 8.70711L10.5858 10L9.29295 11.2929C8.90243 11.6834 8.90243 12.3166 9.29295 12.7071C9.68348 13.0976 10.3166 13.0976 10.7072 12.7071L12.0001 11.4142L13.293 12.7071C13.6835 13.0976 14.3166 13.0976 14.7072 12.7071C15.0977 12.3166 15.0977 11.6834 14.7072 11.2929L13.4143 10L14.7072 8.70711C15.0977 8.31658 15.0977 7.68342 14.7072 7.29289C14.3166 6.90237 13.6835 6.90237 13.293 7.29289L12.0001 8.58579L10.7072 7.29289Z" fill="#111827"/>
</svg>
