<svg width="20" height="20" viewBox="0 0 20 20" fill="none" xmlns="http://www.w3.org/2000/svg">
<path fill-rule="evenodd" clip-rule="evenodd" d="M18.0001 10C18.0001 14.4183 14.4184 18 10.0001 18C5.58184 18 2.00012 14.4183 2.00012 10C2.00012 5.58172 5.58184 2 10.0001 2C14.4184 2 18.0001 5.58172 18.0001 10ZM13.4767 14.8907C12.4959 15.5892 11.296 16 10.0001 16C6.68641 16 4.00012 13.3137 4.00012 10C4.00012 8.70414 4.41093 7.50423 5.10943 6.52339L13.4767 14.8907ZM14.8909 13.4765L6.52366 5.1092C7.50447 4.41077 8.70432 4 10.0001 4C13.3138 4 16.0001 6.68629 16.0001 10C16.0001 11.2958 15.5894 12.4957 14.8909 13.4765Z" fill="#111827"/>
</svg>
