<svg width="20" height="20" viewBox="0 0 20 20" fill="none" xmlns="http://www.w3.org/2000/svg">
<path fill-rule="evenodd" clip-rule="evenodd" d="M6.99991 2C6.59545 2 6.23081 2.24364 6.07603 2.61732C5.92125 2.99099 6.00681 3.42111 6.29281 3.70711L6.99991 4.41421V8.17157C6.99991 8.43679 6.89456 8.69114 6.70702 8.87868L2.70702 12.8787C0.817127 14.7686 2.15562 18 4.82834 18H15.1715C17.8442 18 19.1827 14.7686 17.2928 12.8787L13.2928 8.87868C13.1053 8.69114 12.9999 8.43679 12.9999 8.17157V4.41421L13.707 3.70711C13.993 3.42111 14.0786 2.99099 13.9238 2.61732C13.769 2.24364 13.4044 2 12.9999 2H6.99991ZM8.99991 8.17157V4H10.9999V8.17157C10.9999 8.96722 11.316 9.73028 11.8786 10.2929L12.9061 11.3204C12.1893 11.1537 11.4377 11.1874 10.735 11.4217L10.2648 11.5784C9.44371 11.8521 8.55602 11.8521 7.73495 11.5784L7.1725 11.3909C7.13442 11.3782 7.09613 11.3667 7.05769 11.3564L8.12123 10.2929C8.68384 9.73028 8.99991 8.96722 8.99991 8.17157Z" fill="#111827"/>
</svg>
