<svg width="20" height="20" viewBox="0 0 20 20" fill="none" xmlns="http://www.w3.org/2000/svg">
<path d="M9.00006 4.80423C7.94286 4.28906 6.75522 4 5.50006 4C4.2449 4 3.05726 4.28906 2.00006 4.80423V14.8042C3.05726 14.2891 4.2449 14 5.50006 14C7.16866 14 8.71795 14.5108 10.0001 15.3847C11.2822 14.5108 12.8315 14 14.5001 14C15.7552 14 16.9429 14.2891 18.0001 14.8042V4.80423C16.9429 4.28906 15.7552 4 14.5001 4C13.2449 4 12.0573 4.28906 11.0001 4.80423V12C11.0001 12.5523 10.5523 13 10.0001 13C9.44778 13 9.00006 12.5523 9.00006 12V4.80423Z" fill="#111827"/>
</svg>
