<svg width="20" height="20" viewBox="0 0 20 20" fill="none" xmlns="http://www.w3.org/2000/svg">
<path fill-rule="evenodd" clip-rule="evenodd" d="M6.00006 2C4.89549 2 4.00006 2.89543 4.00006 4V16C4.00006 17.1046 4.89549 18 6.00006 18H14.0001C15.1046 18 16.0001 17.1046 16.0001 16V4C16.0001 2.89543 15.1046 2 14.0001 2H6.00006ZM7.00006 4C6.44778 4 6.00006 4.44772 6.00006 5C6.00006 5.55228 6.44778 6 7.00006 6H13.0001C13.5523 6 14.0001 5.55228 14.0001 5C14.0001 4.44772 13.5523 4 13.0001 4H7.00006ZM13.0001 11C13.5523 11 14.0001 11.4477 14.0001 12V15C14.0001 15.5523 13.5523 16 13.0001 16C12.4478 16 12.0001 15.5523 12.0001 15V12C12.0001 11.4477 12.4478 11 13.0001 11ZM10.0001 14C9.44778 14 9.00006 14.4477 9.00006 15C9.00006 15.5523 9.44778 16 10.0001 16H10.0101C10.5623 16 11.0101 15.5523 11.0101 15C11.0101 14.4477 10.5623 14 10.0101 14H10.0001ZM6.00006 15C6.00006 14.4477 6.44778 14 7.00006 14H7.01006C7.56235 14 8.01006 14.4477 8.01006 15C8.01006 15.5523 7.56235 16 7.01006 16H7.00006C6.44778 16 6.00006 15.5523 6.00006 15ZM7.00006 11C6.44778 11 6.00006 11.4477 6.00006 12C6.00006 12.5523 6.44778 13 7.00006 13H7.01006C7.56235 13 8.01006 12.5523 8.01006 12C8.01006 11.4477 7.56235 11 7.01006 11H7.00006ZM9.00006 12C9.00006 11.4477 9.44778 11 10.0001 11H10.0101C10.5623 11 11.0101 11.4477 11.0101 12C11.0101 12.5523 10.5623 13 10.0101 13H10.0001C9.44778 13 9.00006 12.5523 9.00006 12ZM13.0001 8C12.4478 8 12.0001 8.44772 12.0001 9C12.0001 9.55228 12.4478 10 13.0001 10H13.0101C13.5623 10 14.0101 9.55228 14.0101 9C14.0101 8.44772 13.5623 8 13.0101 8H13.0001ZM9.00006 9C9.00006 8.44772 9.44778 8 10.0001 8H10.0101C10.5623 8 11.0101 8.44772 11.0101 9C11.0101 9.55228 10.5623 10 10.0101 10H10.0001C9.44778 10 9.00006 9.55228 9.00006 9ZM7.00006 8C6.44778 8 6.00006 8.44772 6.00006 9C6.00006 9.55228 6.44778 10 7.00006 10H7.01006C7.56235 10 8.01006 9.55228 8.01006 9C8.01006 8.44772 7.56235 8 7.01006 8H7.00006Z" fill="#111827"/>
</svg>
