<svg width="20" height="20" viewBox="0 0 20 20" fill="none" xmlns="http://www.w3.org/2000/svg">
<path fill-rule="evenodd" clip-rule="evenodd" d="M4.00012 4C2.89555 4 2.00012 4.89543 2.00012 6V10C2.00012 11.1046 2.89555 12 4.00012 12L4.00012 6H14.0001C14.0001 4.89543 13.1047 4 12.0001 4H4.00012ZM6.00012 10C6.00012 8.89543 6.89555 8 8.00012 8H16.0001C17.1047 8 18.0001 8.89543 18.0001 10V14C18.0001 15.1046 17.1047 16 16.0001 16H8.00012C6.89555 16 6.00012 15.1046 6.00012 14V10ZM12.0001 14C13.1047 14 14.0001 13.1046 14.0001 12C14.0001 10.8954 13.1047 10 12.0001 10C10.8956 10 10.0001 10.8954 10.0001 12C10.0001 13.1046 10.8956 14 12.0001 14Z" fill="#111827"/>
</svg>
