<svg width="20" height="20" viewBox="0 0 20 20" fill="none" xmlns="http://www.w3.org/2000/svg">
<path d="M2.00012 11C2.00012 10.4477 2.44784 10 3.00012 10H5.00012C5.55241 10 6.00012 10.4477 6.00012 11V16C6.00012 16.5523 5.55241 17 5.00012 17H3.00012C2.44784 17 2.00012 16.5523 2.00012 16V11Z" fill="#111827"/>
<path d="M8.00012 7C8.00012 6.44772 8.44784 6 9.00012 6H11.0001C11.5524 6 12.0001 6.44772 12.0001 7V16C12.0001 16.5523 11.5524 17 11.0001 17H9.00012C8.44784 17 8.00012 16.5523 8.00012 16V7Z" fill="#111827"/>
<path d="M14.0001 4C14.0001 3.44772 14.4478 3 15.0001 3H17.0001C17.5524 3 18.0001 3.44772 18.0001 4V16C18.0001 16.5523 17.5524 17 17.0001 17H15.0001C14.4478 17 14.0001 16.5523 14.0001 16V4Z" fill="#111827"/>
</svg>
