<svg width="20" height="20" viewBox="0 0 20 20" fill="none" xmlns="http://www.w3.org/2000/svg">
<path fill-rule="evenodd" clip-rule="evenodd" d="M5.00012 3C3.89555 3 3.00012 3.89543 3.00012 5V15C3.00012 16.1046 3.89555 17 5.00012 17H15.0001C16.1047 17 17.0001 16.1046 17.0001 15V5C17.0001 3.89543 16.1047 3 15.0001 3H5.00012ZM14.0001 7C14.0001 6.44772 13.5524 6 13.0001 6C12.4478 6 12.0001 6.44772 12.0001 7V13C12.0001 13.5523 12.4478 14 13.0001 14C13.5524 14 14.0001 13.5523 14.0001 13V7ZM11.0001 9C11.0001 8.44772 10.5524 8 10.0001 8C9.44784 8 9.00012 8.44772 9.00012 9V13C9.00012 13.5523 9.44784 14 10.0001 14C10.5524 14 11.0001 13.5523 11.0001 13V9ZM8.00012 12C8.00012 11.4477 7.55241 11 7.00012 11C6.44784 11 6.00012 11.4477 6.00012 12V13C6.00012 13.5523 6.44784 14 7.00012 14C7.55241 14 8.00012 13.5523 8.00012 13V12Z" fill="#111827"/>
</svg>
