<svg width="20" height="20" viewBox="0 0 20 20" fill="none" xmlns="http://www.w3.org/2000/svg">
<path d="M2.00012 5C2.00012 3.89543 2.89555 3 4.00012 3H11.0001C12.1047 3 13.0001 3.89543 13.0001 5V9C13.0001 10.1046 12.1047 11 11.0001 11H9.00012L6.00012 14V11H4.00012C2.89555 11 2.00012 10.1046 2.00012 9V5Z" fill="#111827"/>
<path d="M15.0001 7V9C15.0001 11.2091 13.2093 13 11.0001 13H9.82855L8.06185 14.7667C8.34166 14.9156 8.66104 15 9.00012 15H11.0001L14.0001 18V15H16.0001C17.1047 15 18.0001 14.1046 18.0001 13V9C18.0001 7.89543 17.1047 7 16.0001 7H15.0001Z" fill="#111827"/>
</svg>
