<svg width="20" height="20" viewBox="0 0 20 20" fill="none" xmlns="http://www.w3.org/2000/svg">
<path fill-rule="evenodd" clip-rule="evenodd" d="M15.7072 4.29289C16.0977 4.68342 16.0977 5.31658 15.7072 5.70711L10.7072 10.7071C10.3166 11.0976 9.68348 11.0976 9.29295 10.7071L4.29295 5.70711C3.90243 5.31658 3.90243 4.68342 4.29295 4.29289C4.68348 3.90237 5.31664 3.90237 5.70717 4.29289L10.0001 8.58579L14.293 4.29289C14.6835 3.90237 15.3166 3.90237 15.7072 4.29289ZM15.7072 10.2929C16.0977 10.6834 16.0977 11.3166 15.7072 11.7071L10.7072 16.7071C10.3166 17.0976 9.68348 17.0976 9.29295 16.7071L4.29295 11.7071C3.90243 11.3166 3.90243 10.6834 4.29295 10.2929C4.68348 9.90237 5.31664 9.90237 5.70717 10.2929L10.0001 14.5858L14.293 10.2929C14.6835 9.90237 15.3166 9.90237 15.7072 10.2929Z" fill="#111827"/>
</svg>
