<svg width="20" height="20" viewBox="0 0 20 20" fill="none" xmlns="http://www.w3.org/2000/svg">
<path fill-rule="evenodd" clip-rule="evenodd" d="M4.29295 15.7071C3.90243 15.3166 3.90243 14.6834 4.29295 14.2929L9.29296 9.29289C9.68348 8.90237 10.3166 8.90237 10.7072 9.29289L15.7072 14.2929C16.0977 14.6834 16.0977 15.3166 15.7072 15.7071C15.3167 16.0976 14.6835 16.0976 14.293 15.7071L10.0001 11.4142L5.70717 15.7071C5.31664 16.0976 4.68348 16.0976 4.29295 15.7071ZM4.29295 9.70711C3.90243 9.31658 3.90243 8.68342 4.29295 8.29289L9.29296 3.29289C9.68348 2.90237 10.3166 2.90237 10.7072 3.29289L15.7072 8.29289C16.0977 8.68342 16.0977 9.31658 15.7072 9.70711C15.3167 10.0976 14.6835 10.0976 14.293 9.70711L10.0001 5.41421L5.70717 9.70711C5.31664 10.0976 4.68348 10.0976 4.29295 9.70711Z" fill="#111827"/>
</svg>
