<svg width="20" height="20" viewBox="0 0 20 20" fill="none" xmlns="http://www.w3.org/2000/svg">
<path fill-rule="evenodd" clip-rule="evenodd" d="M15.7072 15.7071C15.3166 16.0976 14.6835 16.0976 14.293 15.7071L9.29296 10.7071C8.90243 10.3166 8.90243 9.68342 9.29296 9.29289L14.293 4.29289C14.6835 3.90237 15.3166 3.90237 15.7072 4.29289C16.0977 4.68342 16.0977 5.31658 15.7072 5.70711L11.4143 10L15.7072 14.2929C16.0977 14.6834 16.0977 15.3166 15.7072 15.7071ZM9.70717 15.7071C9.31664 16.0976 8.68348 16.0976 8.29296 15.7071L3.29295 10.7071C2.90243 10.3166 2.90243 9.68342 3.29295 9.29289L8.29296 4.29289C8.68348 3.90237 9.31665 3.90237 9.70717 4.29289C10.0977 4.68342 10.0977 5.31658 9.70717 5.70711L5.41427 10L9.70717 14.2929C10.0977 14.6834 10.0977 15.3166 9.70717 15.7071Z" fill="#111827"/>
</svg>
