<svg width="20" height="20" viewBox="0 0 20 20" fill="none" xmlns="http://www.w3.org/2000/svg">
<path fill-rule="evenodd" clip-rule="evenodd" d="M10.293 15.7071C9.90243 15.3166 9.90243 14.6834 10.293 14.2929L14.5858 10L10.293 5.70711C9.90243 5.31658 9.90243 4.68342 10.293 4.29289C10.6835 3.90237 11.3166 3.90237 11.7072 4.29289L16.7072 9.29289C17.0977 9.68342 17.0977 10.3166 16.7072 10.7071L11.7072 15.7071C11.3166 16.0976 10.6835 16.0976 10.293 15.7071Z" fill="#111827"/>
<path fill-rule="evenodd" clip-rule="evenodd" d="M4.29295 15.7071C3.90243 15.3166 3.90243 14.6834 4.29295 14.2929L8.58585 10L4.29295 5.70711C3.90243 5.31658 3.90243 4.68342 4.29295 4.29289C4.68348 3.90237 5.31664 3.90237 5.70717 4.29289L10.7072 9.29289C11.0977 9.68342 11.0977 10.3166 10.7072 10.7071L5.70717 15.7071C5.31664 16.0976 4.68348 16.0976 4.29295 15.7071Z" fill="#111827"/>
</svg>
