<svg width="20" height="20" viewBox="0 0 20 20" fill="none" xmlns="http://www.w3.org/2000/svg">
<path d="M8.00012 3C8.00012 2.44772 8.44784 2 9.00012 2H11.0001C11.5524 2 12.0001 2.44772 12.0001 3C12.0001 3.55228 11.5524 4 11.0001 4H9.00012C8.44784 4 8.00012 3.55228 8.00012 3Z" fill="#111827"/>
<path d="M6.00012 3C4.89555 3 4.00012 3.89543 4.00012 5V16C4.00012 17.1046 4.89555 18 6.00012 18H14.0001C15.1047 18 16.0001 17.1046 16.0001 16V5C16.0001 3.89543 15.1047 3 14.0001 3C14.0001 4.65685 12.657 6 11.0001 6H9.00012C7.34327 6 6.00012 4.65685 6.00012 3Z" fill="#111827"/>
</svg>
