<svg width="20" height="20" viewBox="0 0 20 20" fill="none" xmlns="http://www.w3.org/2000/svg">
<path d="M9.00012 2C8.44784 2 8.00012 2.44772 8.00012 3C8.00012 3.55228 8.44784 4 9.00012 4H11.0001C11.5524 4 12.0001 3.55228 12.0001 3C12.0001 2.44772 11.5524 2 11.0001 2H9.00012Z" fill="#111827"/>
<path fill-rule="evenodd" clip-rule="evenodd" d="M4.00012 5C4.00012 3.89543 4.89555 3 6.00012 3C6.00012 4.65685 7.34327 6 9.00012 6H11.0001C12.657 6 14.0001 4.65685 14.0001 3C15.1047 3 16.0001 3.89543 16.0001 5V16C16.0001 17.1046 15.1047 18 14.0001 18H6.00012C4.89555 18 4.00012 17.1046 4.00012 16V5ZM7.00012 9C6.44784 9 6.00012 9.44772 6.00012 10C6.00012 10.5523 6.44784 11 7.00012 11H7.01012C7.56241 11 8.01012 10.5523 8.01012 10C8.01012 9.44772 7.56241 9 7.01012 9H7.00012ZM10.0001 9C9.44784 9 9.00012 9.44772 9.00012 10C9.00012 10.5523 9.44784 11 10.0001 11H13.0001C13.5524 11 14.0001 10.5523 14.0001 10C14.0001 9.44772 13.5524 9 13.0001 9H10.0001ZM7.00012 13C6.44784 13 6.00012 13.4477 6.00012 14C6.00012 14.5523 6.44784 15 7.00012 15H7.01012C7.56241 15 8.01012 14.5523 8.01012 14C8.01012 13.4477 7.56241 13 7.01012 13H7.00012ZM10.0001 13C9.44784 13 9.00012 13.4477 9.00012 14C9.00012 14.5523 9.44784 15 10.0001 15H13.0001C13.5524 15 14.0001 14.5523 14.0001 14C14.0001 13.4477 13.5524 13 13.0001 13H10.0001Z" fill="#111827"/>
</svg>
