<svg width="20" height="20" viewBox="0 0 20 20" fill="none" xmlns="http://www.w3.org/2000/svg">
<path d="M9.00012 2C8.44784 2 8.00012 2.44772 8.00012 3C8.00012 3.55228 8.44784 4 9.00012 4H11.0001C11.5524 4 12.0001 3.55228 12.0001 3C12.0001 2.44772 11.5524 2 11.0001 2H9.00012Z" fill="#111827"/>
<path fill-rule="evenodd" clip-rule="evenodd" d="M4.00012 5C4.00012 3.89543 4.89555 3 6.00012 3C6.00012 4.65685 7.34327 6 9.00012 6H11.0001C12.657 6 14.0001 4.65685 14.0001 3C15.1047 3 16.0001 3.89543 16.0001 5V16C16.0001 17.1046 15.1047 18 14.0001 18H6.00012C4.89555 18 4.00012 17.1046 4.00012 16V5ZM13.7072 10.7071C14.0978 10.3166 14.0978 9.68342 13.7072 9.29289C13.3167 8.90237 12.6835 8.90237 12.293 9.29289L9.00012 12.5858L7.70723 11.2929C7.3167 10.9024 6.68354 10.9024 6.29302 11.2929C5.90249 11.6834 5.90249 12.3166 6.29302 12.7071L8.29302 14.7071C8.68354 15.0976 9.3167 15.0976 9.70723 14.7071L13.7072 10.7071Z" fill="#111827"/>
</svg>
