<svg width="20" height="20" viewBox="0 0 20 20" fill="none" xmlns="http://www.w3.org/2000/svg">
<path fill-rule="evenodd" clip-rule="evenodd" d="M10.0001 18C14.4183 18 18.0001 14.4183 18.0001 10C18.0001 5.58172 14.4183 2 10.0001 2C5.58178 2 2.00006 5.58172 2.00006 10C2.00006 14.4183 5.58178 18 10.0001 18ZM11.0001 6C11.0001 5.44772 10.5523 5 10.0001 5C9.44778 5 9.00006 5.44772 9.00006 6V10C9.00006 10.2652 9.10542 10.5196 9.29295 10.7071L12.1214 13.5355C12.5119 13.9261 13.1451 13.9261 13.5356 13.5355C13.9261 13.145 13.9261 12.5118 13.5356 12.1213L11.0001 9.58579V6Z" fill="#111827"/>
</svg>
