<svg width="20" height="20" viewBox="0 0 20 20" fill="none" xmlns="http://www.w3.org/2000/svg">
<path d="M5.50012 13C3.56713 13 2.00012 11.433 2.00012 9.5C2.00012 7.69163 3.37158 6.20358 5.13114 6.01922C5.04565 5.69382 5.00012 5.35223 5.00012 5C5.00012 2.79086 6.79098 1 9.00012 1C10.879 1 12.4553 2.29538 12.8846 4.04175C13.0858 4.01422 13.2913 4 13.5001 4C15.9854 4 18.0001 6.01472 18.0001 8.5C18.0001 10.9853 15.9854 13 13.5001 13H11.0001V9.41421L12.293 10.7071C12.6835 11.0976 13.3167 11.0976 13.7072 10.7071C14.0978 10.3166 14.0978 9.68342 13.7072 9.29289L10.7072 6.29289C10.3167 5.90237 9.68354 5.90237 9.29302 6.29289L6.29302 9.29289C5.90249 9.68342 5.90249 10.3166 6.29302 10.7071C6.68354 11.0976 7.31671 11.0976 7.70723 10.7071L9.00012 9.41421L9.00012 13H5.50012Z" fill="#111827"/>
<path d="M9.00012 13H11.0001L11.0001 18C11.0001 18.5523 10.5524 19 10.0001 19C9.44784 19 9.00012 18.5523 9.00012 18L9.00012 13Z" fill="#111827"/>
</svg>
