<svg width="20" height="20" viewBox="0 0 20 20" fill="none" xmlns="http://www.w3.org/2000/svg">
<path fill-rule="evenodd" clip-rule="evenodd" d="M2.00012 9.5C2.00012 11.433 3.56713 13 5.50012 13H9.00012V15.5858L7.70723 14.2929C7.3167 13.9024 6.68354 13.9024 6.29302 14.2929C5.90249 14.6834 5.90249 15.3166 6.29302 15.7071L9.29302 18.7071C9.68354 19.0976 10.3167 19.0976 10.7072 18.7071L13.7072 15.7071C14.0978 15.3166 14.0978 14.6834 13.7072 14.2929C13.3167 13.9024 12.6835 13.9024 12.293 14.2929L11.0001 15.5858V13H13.5001C15.9854 13 18.0001 10.9853 18.0001 8.5C18.0001 6.01472 15.9854 4 13.5001 4C13.2913 4 13.0858 4.01422 12.8846 4.04175C12.4553 2.29538 10.879 1 9.00012 1C6.79098 1 5.00012 2.79086 5.00012 5C5.00012 5.35223 5.04565 5.69382 5.13114 6.01922C3.37158 6.20358 2.00012 7.69163 2.00012 9.5ZM11.0001 13H9.00012V8C9.00012 7.44772 9.44784 7 10.0001 7C10.5524 7 11.0001 7.44772 11.0001 8V13Z" fill="#111827"/>
</svg>
