<svg width="20" height="20" viewBox="0 0 20 20" fill="none" xmlns="http://www.w3.org/2000/svg">
<path fill-rule="evenodd" clip-rule="evenodd" d="M12.3163 3.05134C12.8403 3.22599 13.1234 3.79231 12.9488 4.31625L8.94877 16.3163C8.77412 16.8402 8.2078 17.1234 7.68385 16.9487C7.15991 16.7741 6.87675 16.2077 7.0514 15.6838L11.0514 3.6838C11.2261 3.15986 11.7924 2.8767 12.3163 3.05134ZM5.70718 6.29292C6.09771 6.68344 6.09771 7.31661 5.70718 7.70713L3.41428 10L5.70718 12.2929C6.09771 12.6834 6.09771 13.3166 5.70718 13.7071C5.31666 14.0977 4.68349 14.0977 4.29296 13.7071L1.29296 10.7071C0.90243 10.3166 0.90243 9.68344 1.29296 9.29292L4.29296 6.29292C4.68349 5.9024 5.31666 5.9024 5.70718 6.29292ZM14.293 6.29292C14.6835 5.9024 15.3167 5.9024 15.7072 6.29292L18.7072 9.29292C19.0977 9.68344 19.0977 10.3166 18.7072 10.7071L15.7072 13.7071C15.3167 14.0977 14.6835 14.0977 14.293 13.7071C13.9025 13.3166 13.9025 12.6834 14.293 12.2929L16.5859 10L14.293 7.70713C13.9025 7.31661 13.9025 6.68344 14.293 6.29292Z" fill="#111827"/>
</svg>
