<svg width="20" height="20" viewBox="0 0 20 20" fill="none" xmlns="http://www.w3.org/2000/svg">
<path fill-rule="evenodd" clip-rule="evenodd" d="M11.4893 3.17094C11.1103 1.60969 8.88986 1.60969 8.51084 3.17094C8.266 4.17949 7.11051 4.65811 6.22423 4.11809C4.85224 3.28212 3.28219 4.85218 4.11815 6.22416C4.65817 7.11045 4.17955 8.26593 3.171 8.51078C1.60975 8.8898 1.60975 11.1102 3.171 11.4892C4.17955 11.7341 4.65817 12.8896 4.11815 13.7758C3.28219 15.1478 4.85224 16.7179 6.22423 15.8819C7.11051 15.3419 8.266 15.8205 8.51084 16.8291C8.88986 18.3903 11.1103 18.3903 11.4893 16.8291C11.7341 15.8205 12.8896 15.3419 13.7759 15.8819C15.1479 16.7179 16.7179 15.1478 15.882 13.7758C15.342 12.8896 15.8206 11.7341 16.8291 11.4892C18.3904 11.1102 18.3904 8.8898 16.8291 8.51078C15.8206 8.26593 15.342 7.11045 15.882 6.22416C16.7179 4.85218 15.1479 3.28212 13.7759 4.11809C12.8896 4.65811 11.7341 4.17949 11.4893 3.17094ZM10.0001 13C11.6569 13 13.0001 11.6569 13.0001 10C13.0001 8.34315 11.6569 7 10.0001 7C8.34321 7 7.00006 8.34315 7.00006 10C7.00006 11.6569 8.34321 13 10.0001 13Z" fill="#111827"/>
</svg>
