<svg width="20" height="20" viewBox="0 0 20 20" fill="none" xmlns="http://www.w3.org/2000/svg">
<path d="M7.00006 3C6.44778 3 6.00006 3.44772 6.00006 4C6.00006 4.55228 6.44778 5 7.00006 5H13.0001C13.5523 5 14.0001 4.55228 14.0001 4C14.0001 3.44772 13.5523 3 13.0001 3H7.00006Z" fill="#111827"/>
<path d="M4.00006 7C4.00006 6.44772 4.44778 6 5.00006 6H15.0001C15.5523 6 16.0001 6.44772 16.0001 7C16.0001 7.55228 15.5523 8 15.0001 8H5.00006C4.44778 8 4.00006 7.55228 4.00006 7Z" fill="#111827"/>
<path d="M2.00006 11C2.00006 9.89543 2.89549 9 4.00006 9H16.0001C17.1046 9 18.0001 9.89543 18.0001 11V15C18.0001 16.1046 17.1046 17 16.0001 17H4.00006C2.89549 17 2.00006 16.1046 2.00006 15V11Z" fill="#111827"/>
</svg>
