<svg width="20" height="20" viewBox="0 0 20 20" fill="none" xmlns="http://www.w3.org/2000/svg">
<path fill-rule="evenodd" clip-rule="evenodd" d="M4.00006 2C2.89549 2 2.00006 2.89543 2.00006 4V15C2.00006 16.6569 3.34321 18 5.00006 18C6.65692 18 8.00006 16.6569 8.00006 15V4C8.00006 2.89543 7.10463 2 6.00006 2H4.00006ZM5.00006 16C5.55235 16 6.00006 15.5523 6.00006 15C6.00006 14.4477 5.55235 14 5.00006 14C4.44778 14 4.00006 14.4477 4.00006 15C4.00006 15.5523 4.44778 16 5.00006 16Z" fill="#111827"/>
<path d="M10.0001 14.2426L14.8995 9.34308C15.6806 8.56203 15.6806 7.2957 14.8995 6.51465L13.4853 5.10044C12.7043 4.31939 11.438 4.31939 10.6569 5.10044L10.0001 5.75728V14.2426Z" fill="#111827"/>
<path d="M16.0001 18H9.07111L15.0711 12H16.0001C17.1047 12 18.0001 12.8954 18.0001 14V16C18.0001 17.1046 17.1047 18 16.0001 18Z" fill="#111827"/>
</svg>
