<svg width="20" height="20" viewBox="0 0 20 20" fill="none" xmlns="http://www.w3.org/2000/svg">
<path d="M4.00006 4C2.89549 4 2.00006 4.89543 2.00006 6V7H18.0001V6C18.0001 4.89543 17.1046 4 16.0001 4H4.00006Z" fill="#111827"/>
<path fill-rule="evenodd" clip-rule="evenodd" d="M18.0001 9H2.00006V14C2.00006 15.1046 2.89549 16 4.00006 16H16.0001C17.1046 16 18.0001 15.1046 18.0001 14V9ZM4.00006 13C4.00006 12.4477 4.44778 12 5.00006 12H6.00006C6.55235 12 7.00006 12.4477 7.00006 13C7.00006 13.5523 6.55235 14 6.00006 14H5.00006C4.44778 14 4.00006 13.5523 4.00006 13ZM9.00006 12C8.44778 12 8.00006 12.4477 8.00006 13C8.00006 13.5523 8.44778 14 9.00006 14H10.0001C10.5523 14 11.0001 13.5523 11.0001 13C11.0001 12.4477 10.5523 12 10.0001 12H9.00006Z" fill="#111827"/>
</svg>
