<svg width="20" height="20" viewBox="0 0 20 20" fill="none" xmlns="http://www.w3.org/2000/svg">
<path d="M11.0001 17C11.0001 17.3466 11.1796 17.6684 11.4744 17.8507C11.7692 18.0329 12.1373 18.0494 12.4473 17.8944L16.4473 15.8944C16.7861 15.725 17.0001 15.3788 17.0001 15V9.23607C17.0001 8.88949 16.8207 8.56762 16.5259 8.38542C16.231 8.20321 15.8629 8.18665 15.5529 8.34164L11.5529 10.3416C11.2141 10.511 11.0001 10.8573 11.0001 11.2361V17Z" fill="#111827"/>
<path d="M15.2113 6.27639C15.5501 6.107 15.7641 5.76074 15.7641 5.38197C15.7641 5.00319 15.5501 4.65693 15.2113 4.48754L10.4473 2.10557C10.1658 1.96481 9.83444 1.96481 9.55291 2.10557L4.78898 4.48754C4.45019 4.65693 4.23619 5.00319 4.23619 5.38197C4.23619 5.76074 4.45019 6.107 4.78898 6.27639L9.55291 8.65836C9.83444 8.79912 10.1658 8.79912 10.4473 8.65836L15.2113 6.27639Z" fill="#111827"/>
<path d="M4.44734 8.34164C4.13735 8.18665 3.76921 8.20321 3.47439 8.38542C3.17957 8.56762 3.00012 8.88949 3.00012 9.23607V15C3.00012 15.3788 3.21412 15.725 3.55291 15.8944L7.55291 17.8944C7.8629 18.0494 8.23104 18.0329 8.52585 17.8507C8.82067 17.6684 9.00012 17.3466 9.00012 17V11.2361C9.00012 10.8573 8.78612 10.511 8.44734 10.3416L4.44734 8.34164Z" fill="#111827"/>
</svg>
