<svg width="20" height="20" viewBox="0 0 20 20" fill="none" xmlns="http://www.w3.org/2000/svg">
<path d="M8.4335 7.41784C8.5883 7.31464 8.77951 7.2224 9.00012 7.15101L9.00013 8.84899C8.77952 8.7776 8.5883 8.68536 8.4335 8.58216C8.06939 8.33942 8.00012 8.1139 8.00012 8C8.00012 7.8861 8.06939 7.66058 8.4335 7.41784Z" fill="#111827"/>
<path d="M11.0001 12.849L11.0001 11.151C11.2207 11.2224 11.412 11.3146 11.5668 11.4178C11.9309 11.6606 12.0001 11.8861 12.0001 12C12.0001 12.1139 11.9309 12.3394 11.5668 12.5822C11.412 12.6854 11.2208 12.7776 11.0001 12.849Z" fill="#111827"/>
<path fill-rule="evenodd" clip-rule="evenodd" d="M10.0001 18C14.4184 18 18.0001 14.4183 18.0001 10C18.0001 5.58172 14.4184 2 10.0001 2C5.58184 2 2.00012 5.58172 2.00012 10C2.00012 14.4183 5.58184 18 10.0001 18ZM11.0001 5C11.0001 4.44772 10.5524 4 10.0001 4C9.44784 4 9.00012 4.44772 9.00012 5V5.09199C8.37852 5.20873 7.8036 5.43407 7.3241 5.75374C6.60242 6.23485 6.00012 7.00933 6.00012 8C6.00012 8.99067 6.60242 9.76515 7.3241 10.2463C7.8036 10.5659 8.37853 10.7913 9.00013 10.908L9.00014 12.8492C8.60914 12.7223 8.31929 12.5319 8.15679 12.3446C7.79484 11.9275 7.16325 11.8827 6.74611 12.2447C6.32897 12.6067 6.28423 13.2382 6.64619 13.6554C7.20868 14.3036 8.05968 14.7308 9.00012 14.9076L9.00012 15C9.00011 15.5523 9.44782 16 10.0001 16C10.5524 16 11.0001 15.5523 11.0001 15L11.0001 14.908C11.6217 14.7913 12.1967 14.5659 12.6762 14.2463C13.3978 13.7651 14.0001 12.9907 14.0001 12C14.0001 11.0093 13.3978 10.2348 12.6761 9.75373C12.1967 9.43407 11.6217 9.20873 11.0001 9.09199L11.0001 7.15075C11.3911 7.27771 11.681 7.4681 11.8435 7.65538C12.2054 8.07252 12.837 8.11726 13.2542 7.7553C13.6713 7.39335 13.716 6.76176 13.3541 6.34462C12.7916 5.69637 11.9406 5.26915 11.0001 5.09236V5Z" fill="#111827"/>
</svg>
