<svg width="20" height="20" viewBox="0 0 20 20" fill="none" xmlns="http://www.w3.org/2000/svg">
<path fill-rule="evenodd" clip-rule="evenodd" d="M10.0001 18C14.4184 18 18.0001 14.4183 18.0001 10C18.0001 5.58172 14.4184 2 10.0001 2C5.58184 2 2.00012 5.58172 2.00012 10C2.00012 14.4183 5.58184 18 10.0001 18ZM11.0001 4C9.34327 4 8.00012 5.34315 8.00012 7V9H7.00012C6.44784 9 6.00012 9.44772 6.00012 10C6.00012 10.5523 6.44784 11 7.00012 11H8.00012V12C8.00012 12.5523 7.55241 13 7.00012 13C6.44784 13 6.00012 13.4477 6.00012 14C6.00012 14.5523 6.44784 15 7.00012 15H13.0001C13.5524 15 14.0001 14.5523 14.0001 14C14.0001 13.4477 13.5524 13 13.0001 13H9.82942C9.93997 12.6872 10.0001 12.3506 10.0001 12V11H11.0001C11.5524 11 12.0001 10.5523 12.0001 10C12.0001 9.44772 11.5524 9 11.0001 9H10.0001V7C10.0001 6.44772 10.4478 6 11.0001 6C11.5524 6 12.0001 6.44772 12.0001 7C12.0001 7.55228 12.4478 8 13.0001 8C13.5524 8 14.0001 7.55228 14.0001 7C14.0001 5.34315 12.657 4 11.0001 4Z" fill="#111827"/>
</svg>
