<svg width="20" height="20" viewBox="0 0 20 20" fill="none" xmlns="http://www.w3.org/2000/svg">
<path fill-rule="evenodd" clip-rule="evenodd" d="M10.0001 18C14.4184 18 18.0001 14.4183 18.0001 10C18.0001 5.58172 14.4184 2 10.0001 2C5.58184 2 2.00012 5.58172 2.00012 10C2.00012 14.4183 5.58184 18 10.0001 18ZM7.00015 5C6.44787 5 6.00015 5.44772 6.00015 6C6.00015 6.55228 6.44787 7 7.00015 7H8.00015C8.74043 7 9.38678 7.4022 9.73259 8H7.00015C6.44787 8 6.00015 8.44772 6.00015 9C6.00015 9.55228 6.44787 10 7.00015 10H9.73259C9.38678 10.5978 8.74043 11 8.00015 11H7.00015C6.59569 11 6.23105 11.2436 6.07627 11.6173C5.92149 11.991 6.00705 12.4211 6.29304 12.7071L9.29304 15.7071C9.68357 16.0976 10.3167 16.0976 10.7073 15.7071C11.0978 15.3166 11.0978 14.6834 10.7073 14.2929L9.22375 12.8094C10.5224 12.3926 11.5318 11.3302 11.8741 10H13.0002C13.5524 10 14.0002 9.55228 14.0002 9C14.0002 8.44772 13.5524 8 13.0002 8H11.8741C11.7828 7.64523 11.6441 7.30951 11.465 7H13.0002C13.5524 7 14.0002 6.55228 14.0002 6C14.0002 5.44772 13.5524 5 13.0002 5H7.00015Z" fill="#111827"/>
</svg>
