<svg width="20" height="20" viewBox="0 0 20 20" fill="none" xmlns="http://www.w3.org/2000/svg">
<path fill-rule="evenodd" clip-rule="evenodd" d="M10.0001 18C14.4184 18 18.0001 14.4183 18.0001 10C18.0001 5.58172 14.4184 2 10.0001 2C5.58184 2 2.00012 5.58172 2.00012 10C2.00012 14.4183 5.58184 18 10.0001 18ZM7.85764 5.48541C7.5735 5.01183 6.95924 4.85827 6.48566 5.14241C6.01207 5.42656 5.85851 6.04082 6.14266 6.5144L7.63396 8.99991H7.00015C6.44787 8.99991 6.00015 9.44762 6.00015 9.99991C6.00015 10.5522 6.44787 10.9999 7.00015 10.9999H8.83396L9.00015 11.2769V11.9999H7.00015C6.44787 11.9999 6.00015 12.4476 6.00015 12.9999C6.00015 13.5522 6.44787 13.9999 7.00015 13.9999H9.00015V14.9999C9.00015 15.5522 9.44787 15.9999 10.0002 15.9999C10.5524 15.9999 11.0002 15.5522 11.0002 14.9999V13.9999H13.0002C13.5524 13.9999 14.0002 13.5522 14.0002 12.9999C14.0002 12.4476 13.5524 11.9999 13.0002 11.9999H11.0002V11.2769L11.1663 10.9999H13.0002C13.5524 10.9999 14.0002 10.5522 14.0002 9.99991C14.0002 9.44762 13.5524 8.99991 13.0002 8.99991H12.3663L13.8576 6.5144C14.1418 6.04082 13.9882 5.42656 13.5146 5.14241C13.0411 4.85827 12.4268 5.01183 12.1427 5.48541L10.034 8.99991H9.96634L7.85764 5.48541Z" fill="#111827"/>
</svg>
