<svg width="20" height="20" viewBox="0 0 20 20" fill="none" xmlns="http://www.w3.org/2000/svg">
<path fill-rule="evenodd" clip-rule="evenodd" d="M10.0001 18C14.4184 18 18.0001 14.4183 18.0001 10C18.0001 5.58172 14.4184 2 10.0001 2C5.58184 2 2.00012 5.58172 2.00012 10C2.00012 14.4183 5.58184 18 10.0001 18ZM8.73629 6.97896C9.20805 6.1927 9.6963 6 10.0001 6C10.3039 6 10.7922 6.1927 11.264 6.97896C11.5481 7.45254 12.1624 7.60611 12.6359 7.32196C13.1095 7.03781 13.2631 6.42355 12.9789 5.94997C12.2791 4.78361 11.2318 4 10.0001 4C8.76841 4 7.72113 4.78361 7.02131 5.94997C6.73644 6.42475 6.51434 6.94939 6.35109 7.5H6.00012C5.44784 7.5 5.00012 7.94772 5.00012 8.5C5.00012 9.05228 5.44784 9.5 6.00012 9.5H6.01349C6.00455 9.66702 6.00012 9.83388 6.00012 10C6.00012 10.1661 6.00455 10.333 6.01349 10.5H6.00012C5.44784 10.5 5.00012 10.9477 5.00012 11.5C5.00012 12.0523 5.44784 12.5 6.00012 12.5H6.35109C6.51434 13.0506 6.73644 13.5753 7.02131 14.05C7.72113 15.2164 8.76841 16 10.0001 16C11.2318 16 12.2791 15.2164 12.9789 14.05C13.2631 13.5764 13.1095 12.9622 12.6359 12.678C12.1624 12.3939 11.5481 12.5475 11.264 13.021C10.7922 13.8073 10.3039 14 10.0001 14C9.6963 14 9.20805 13.8073 8.73629 13.021C8.63939 12.8595 8.55122 12.6851 8.47228 12.5H10.0001C10.5524 12.5 11.0001 12.0523 11.0001 11.5C11.0001 10.9477 10.5524 10.5 10.0001 10.5H8.01707C8.00583 10.335 8.00012 10.1681 8.00012 10C8.00012 9.83191 8.00583 9.66498 8.01707 9.5H10.0001C10.5524 9.5 11.0001 9.05228 11.0001 8.5C11.0001 7.94772 10.5524 7.5 10.0001 7.5H8.47228C8.55122 7.31488 8.63939 7.14047 8.73629 6.97896Z" fill="#111827"/>
</svg>
