<svg width="20" height="20" viewBox="0 0 20 20" fill="none" xmlns="http://www.w3.org/2000/svg">
<path fill-rule="evenodd" clip-rule="evenodd" d="M10.0001 18C14.4184 18 18.0001 14.4183 18.0001 10C18.0001 5.58172 14.4184 2 10.0001 2C5.58184 2 2.00012 5.58172 2.00012 10C2.00012 14.4183 5.58184 18 10.0001 18ZM7.00012 4C6.44784 4 6.00012 4.44772 6.00012 5C6.00012 5.55228 6.44784 6 7.00012 6C7.55241 6 8.00012 6.44772 8.00012 7V8H7.00012C6.44784 8 6.00012 8.44772 6.00012 9C6.00012 9.55228 6.44784 10 7.00012 10H8.00012V13C8.00012 14.6569 9.34327 16 11.0001 16C12.657 16 14.0001 14.6569 14.0001 13V12C14.0001 11.4477 13.5524 11 13.0001 11C12.4478 11 12.0001 11.4477 12.0001 12V13C12.0001 13.5523 11.5524 14 11.0001 14C10.4478 14 10.0001 13.5523 10.0001 13V10H13.0001C13.5524 10 14.0001 9.55228 14.0001 9C14.0001 8.44772 13.5524 8 13.0001 8H10.0001V7C10.0001 5.34315 8.65698 4 7.00012 4Z" fill="#111827"/>
</svg>
