<svg width="20" height="20" viewBox="0 0 20 20" fill="none" xmlns="http://www.w3.org/2000/svg">
<path fill-rule="evenodd" clip-rule="evenodd" d="M3.00012 5C3.00012 3.89543 3.89555 3 5.00012 3H15.0001C16.1047 3 17.0001 3.89543 17.0001 5V13C17.0001 14.1046 16.1047 15 15.0001 15H12.7809L12.9031 15.4887L13.7073 16.2929C13.9933 16.5789 14.0788 17.009 13.924 17.3827C13.7692 17.7563 13.4046 18 13.0002 18H7.00015C6.59569 18 6.23105 17.7563 6.07627 17.3827C5.92149 17.009 6.00705 16.5789 6.29304 16.2929L7.09719 15.4887L7.21937 15H5.00012C3.89555 15 3.00012 14.1046 3.00012 13V5ZM8.77142 12C8.7567 11.9997 8.74201 11.9997 8.72738 12H5.00012V5H15.0001V12H11.2729C11.2583 11.9997 11.2436 11.9997 11.2289 12H8.77142Z" fill="#111827"/>
</svg>
