<svg width="20" height="20" viewBox="0 0 20 20" fill="none" xmlns="http://www.w3.org/2000/svg">
<path d="M9.00006 2C7.89549 2 7.00006 2.89543 7.00006 4V12C7.00006 13.1046 7.89549 14 9.00006 14H15.0001C16.1046 14 17.0001 13.1046 17.0001 12V6.41421C17.0001 5.88378 16.7893 5.37507 16.4143 5L14.0001 2.58579C13.625 2.21071 13.1163 2 12.5858 2H9.00006Z" fill="#111827"/>
<path d="M3.00006 8C3.00006 6.89543 3.89549 6 5.00006 6V16H13.0001C13.0001 17.1046 12.1046 18 11.0001 18H5.00006C3.89549 18 3.00006 17.1046 3.00006 16V8Z" fill="#111827"/>
</svg>
