<svg width="20" height="20" viewBox="0 0 20 20" fill="none" xmlns="http://www.w3.org/2000/svg">
<path fill-rule="evenodd" clip-rule="evenodd" d="M6.00012 2C4.89555 2 4.00012 2.89543 4.00012 4V16C4.00012 17.1046 4.89555 18 6.00012 18H14.0001C15.1047 18 16.0001 17.1046 16.0001 16V7.41421C16.0001 6.88378 15.7894 6.37507 15.4143 6L12.0001 2.58579C11.625 2.21071 11.1163 2 10.5859 2H6.00012ZM8.00012 12C8.00012 11.4477 7.55241 11 7.00012 11C6.44784 11 6.00012 11.4477 6.00012 12V15C6.00012 15.5523 6.44784 16 7.00012 16C7.55241 16 8.00012 15.5523 8.00012 15V12ZM10.0001 9C10.5524 9 11.0001 9.44772 11.0001 10V15C11.0001 15.5523 10.5524 16 10.0001 16C9.44784 16 9.00012 15.5523 9.00012 15V10C9.00012 9.44772 9.44784 9 10.0001 9ZM14.0001 8C14.0001 7.44772 13.5524 7 13.0001 7C12.4478 7 12.0001 7.44772 12.0001 8V15C12.0001 15.5523 12.4478 16 13.0001 16C13.5524 16 14.0001 15.5523 14.0001 15V8Z" fill="#111827"/>
</svg>
