<svg width="20" height="20" viewBox="0 0 20 20" fill="none" xmlns="http://www.w3.org/2000/svg">
<path fill-rule="evenodd" clip-rule="evenodd" d="M4.00012 4C4.00012 2.89543 4.89555 2 6.00012 2H10.5859C11.1163 2 11.625 2.21071 12.0001 2.58579L15.4143 6C15.7894 6.37507 16.0001 6.88378 16.0001 7.41421V16C16.0001 17.1046 15.1047 18 14.0001 18H6.00012C4.89555 18 4.00012 17.1046 4.00012 16V4ZM6.00012 10C6.00012 9.44772 6.44784 9 7.00012 9H13.0001C13.5524 9 14.0001 9.44772 14.0001 10C14.0001 10.5523 13.5524 11 13.0001 11H7.00012C6.44784 11 6.00012 10.5523 6.00012 10ZM7.00012 13C6.44784 13 6.00012 13.4477 6.00012 14C6.00012 14.5523 6.44784 15 7.00012 15H13.0001C13.5524 15 14.0001 14.5523 14.0001 14C14.0001 13.4477 13.5524 13 13.0001 13H7.00012Z" fill="#111827"/>
</svg>
