<svg width="20" height="20" viewBox="0 0 20 20" fill="none" xmlns="http://www.w3.org/2000/svg">
<path d="M10.0001 6C8.89549 6 8.00006 5.10457 8.00006 4C8.00006 2.89543 8.89549 2 10.0001 2C11.1046 2 12.0001 2.89543 12.0001 4C12.0001 5.10457 11.1046 6 10.0001 6Z" fill="#111827"/>
<path d="M10.0001 12C8.89549 12 8.00006 11.1046 8.00006 10C8.00006 8.89543 8.89549 8 10.0001 8C11.1046 8 12.0001 8.89543 12.0001 10C12.0001 11.1046 11.1046 12 10.0001 12Z" fill="#111827"/>
<path d="M10.0001 18C8.89549 18 8.00006 17.1046 8.00006 16C8.00006 14.8954 8.89549 14 10.0001 14C11.1046 14 12.0001 14.8954 12.0001 16C12.0001 17.1046 11.1046 18 10.0001 18Z" fill="#111827"/>
</svg>
