<svg width="20" height="20" viewBox="0 0 20 20" fill="none" xmlns="http://www.w3.org/2000/svg">
<path d="M6.00006 10C6.00006 11.1046 5.10463 12 4.00006 12C2.89549 12 2.00006 11.1046 2.00006 10C2.00006 8.89543 2.89549 8 4.00006 8C5.10463 8 6.00006 8.89543 6.00006 10Z" fill="#111827"/>
<path d="M12.0001 10C12.0001 11.1046 11.1046 12 10.0001 12C8.89549 12 8.00006 11.1046 8.00006 10C8.00006 8.89543 8.89549 8 10.0001 8C11.1046 8 12.0001 8.89543 12.0001 10Z" fill="#111827"/>
<path d="M16.0001 12C17.1046 12 18.0001 11.1046 18.0001 10C18.0001 8.89543 17.1046 8 16.0001 8C14.8955 8 14.0001 8.89543 14.0001 10C14.0001 11.1046 14.8955 12 16.0001 12Z" fill="#111827"/>
</svg>
