<svg width="20" height="20" viewBox="0 0 20 20" fill="none" xmlns="http://www.w3.org/2000/svg">
<path d="M3.00012 1C2.44784 1 2.00012 1.44772 2.00012 2C2.00012 2.55228 2.44784 3 3.00012 3H4.21935L4.52491 4.22224C4.52811 4.23637 4.53162 4.25039 4.53542 4.26429L5.89265 9.69321L5.00007 10.5858C3.74015 11.8457 4.63247 14 6.41429 14H15.0001C15.5524 14 16.0001 13.5523 16.0001 13C16.0001 12.4477 15.5524 12 15.0001 12L6.41429 12L7.41429 11H14.0001C14.3789 11 14.7252 10.786 14.8945 10.4472L17.8946 4.44721C18.0495 4.13723 18.033 3.76909 17.8508 3.47427C17.6686 3.17945 17.3467 3 17.0001 3H6.2809L5.97026 1.75746C5.85897 1.3123 5.45899 1 5.00012 1H3.00012Z" fill="#111827"/>
<path d="M16.0001 16.5C16.0001 17.3284 15.3285 18 14.5001 18C13.6717 18 13.0001 17.3284 13.0001 16.5C13.0001 15.6716 13.6717 15 14.5001 15C15.3285 15 16.0001 15.6716 16.0001 16.5Z" fill="#111827"/>
<path d="M6.50012 18C7.32855 18 8.00012 17.3284 8.00012 16.5C8.00012 15.6716 7.32855 15 6.50012 15C5.67169 15 5.00012 15.6716 5.00012 16.5C5.00012 17.3284 5.67169 18 6.50012 18Z" fill="#111827"/>
</svg>
