<svg width="20" height="20" viewBox="0 0 20 20" fill="none" xmlns="http://www.w3.org/2000/svg">
<path fill-rule="evenodd" clip-rule="evenodd" d="M3.00006 17C3.00006 16.4477 3.44778 16 4.00006 16H16.0001C16.5523 16 17.0001 16.4477 17.0001 17C17.0001 17.5523 16.5523 18 16.0001 18H4.00006C3.44778 18 3.00006 17.5523 3.00006 17ZM6.29295 9.29289C6.68348 8.90237 7.31664 8.90237 7.70717 9.29289L9.00006 10.5858L9.00006 3C9.00006 2.44772 9.44777 2 10.0001 2C10.5523 2 11.0001 2.44771 11.0001 3L11.0001 10.5858L12.293 9.29289C12.6835 8.90237 13.3166 8.90237 13.7072 9.29289C14.0977 9.68342 14.0977 10.3166 13.7072 10.7071L10.7072 13.7071C10.5196 13.8946 10.2653 14 10.0001 14C9.73484 14 9.48049 13.8946 9.29295 13.7071L6.29295 10.7071C5.90243 10.3166 5.90243 9.68342 6.29295 9.29289Z" fill="#111827"/>
</svg>
