<svg width="20" height="20" viewBox="0 0 20 20" fill="none" xmlns="http://www.w3.org/2000/svg">
<path d="M4.55482 5.16795C4.24797 4.96338 3.85342 4.94431 3.52826 5.11833C3.20311 5.29235 3.00012 5.63121 3.00012 6V14C3.00012 14.3688 3.20311 14.7077 3.52826 14.8817C3.85342 15.0557 4.24797 15.0366 4.55482 14.8321L10.0001 11.2019V14C10.0001 14.3688 10.2031 14.7077 10.5283 14.8817C10.8534 15.0557 11.248 15.0366 11.5548 14.8321L17.5548 10.8321C17.833 10.6466 18.0001 10.3344 18.0001 10C18.0001 9.66565 17.833 9.35342 17.5548 9.16795L11.5548 5.16795C11.248 4.96338 10.8534 4.94431 10.5283 5.11833C10.2031 5.29235 10.0001 5.63121 10.0001 6V8.79815L4.55482 5.16795Z" fill="#111827"/>
</svg>
