<svg width="20" height="20" viewBox="0 0 20 20" fill="none" xmlns="http://www.w3.org/2000/svg">
<path fill-rule="evenodd" clip-rule="evenodd" d="M6.62485 2.65458C7.66846 2.23213 8.80839 2 10.0001 2C14.9706 2 19.0001 6.02944 19.0001 11C19.0001 11.5523 18.5523 12 18.0001 12C17.4478 12 17.0001 11.5523 17.0001 11C17.0001 7.13401 13.8661 4 10.0001 4C9.06993 4 8.18452 4.18088 7.37528 4.50845C6.86334 4.71568 6.28035 4.46867 6.07312 3.95673C5.8659 3.4448 6.11291 2.8618 6.62485 2.65458ZM4.66179 4.95861C5.07586 5.32408 5.11527 5.95602 4.7498 6.37008C3.66013 7.60467 3.00006 9.22404 3.00006 11C3.00006 11.5523 2.55235 12 2.00006 12C1.44778 12 1.00006 11.5523 1.00006 11C1.00006 8.71818 1.85054 6.63256 3.25032 5.04662C3.61579 4.63255 4.24773 4.59315 4.66179 4.95861Z" fill="#111827"/>
<path fill-rule="evenodd" clip-rule="evenodd" d="M5.00006 11C5.00006 8.23858 7.23864 6 10.0001 6C12.7615 6 15.0001 8.23858 15.0001 11C15.0001 11.5523 14.5523 12 14.0001 12C13.4478 12 13.0001 11.5523 13.0001 11C13.0001 9.34315 11.6569 8 10.0001 8C8.34321 8 7.00006 9.34315 7.00006 11C7.00006 12.6772 6.65541 14.2764 6.03213 15.7288C5.81432 16.2363 5.22633 16.4712 4.7188 16.2533C4.21128 16.0355 3.97642 15.4475 4.19422 14.94C4.71254 13.7323 5.00006 12.401 5.00006 11ZM13.9212 13.0123C14.4667 13.0989 14.8387 13.6112 14.7522 14.1567C14.6206 14.9867 14.4378 15.7998 14.2073 16.5928C14.0531 17.1231 13.4982 17.428 12.9679 17.2739C12.4376 17.1197 12.1326 16.5648 12.2868 16.0345C12.4941 15.3215 12.6585 14.5901 12.7769 13.8433C12.8634 13.2979 13.3758 12.9258 13.9212 13.0123Z" fill="#111827"/>
<path fill-rule="evenodd" clip-rule="evenodd" d="M10.0001 10C10.5523 10 11.0001 10.4477 11.0001 11C11.0001 13.2363 10.5407 15.3679 9.71021 17.3036C9.49245 17.8111 8.90447 18.046 8.39693 17.8283C7.88939 17.6105 7.65447 17.0225 7.87223 16.515C8.59778 14.8239 9.00006 12.9602 9.00006 11C9.00006 10.4477 9.44778 10 10.0001 10Z" fill="#111827"/>
</svg>
