<svg width="20" height="20" viewBox="0 0 20 20" fill="none" xmlns="http://www.w3.org/2000/svg">
<path fill-rule="evenodd" clip-rule="evenodd" d="M11.7569 2.03351C12.0341 2.10713 12.2664 2.29624 12.3946 2.55279C12.8782 3.51991 13.2391 4.10688 13.6022 4.5828C13.9697 5.06453 14.3585 5.45889 14.9499 6.05028C16.3165 7.41692 17.0001 9.21013 17.0001 11C17.0001 12.7899 16.3165 14.5831 14.9499 15.9498C12.2162 18.6834 7.78404 18.6834 5.05037 15.9498C3.68374 14.5831 3.00012 12.7899 3.00012 11C3.00012 9.21013 3.68373 7.41692 5.05037 6.05028C5.33637 5.76428 5.76649 5.67872 6.14017 5.83351C6.51384 5.98829 6.75748 6.35292 6.75748 6.75739C6.75748 7.8772 6.82741 8.73046 7.15493 9.41104C7.33503 9.78527 7.61597 10.1512 8.10017 10.4776C8.21581 9.41687 8.42764 8.12448 8.71387 6.89778C8.93923 5.93195 9.21951 4.96773 9.55312 4.16366C9.71998 3.76148 9.90867 3.37854 10.123 3.04791C10.3316 2.72608 10.5996 2.39858 10.9455 2.16795C11.1842 2.00885 11.4797 1.95988 11.7569 2.03351ZM12.1214 15.1213C10.9499 16.2929 9.05037 16.2929 7.8788 15.1213C7.29302 14.5355 7.00012 13.7678 7.00012 13C7.00012 13 7.8788 13.5 9.50017 13.5C9.50017 12.5 10.0002 9.5 10.7502 9C11.2502 10 11.5357 10.2929 12.1214 10.8787C12.7072 11.4645 13.0001 12.2322 13.0001 13C13.0001 13.7678 12.7072 14.5355 12.1214 15.1213Z" fill="#111827"/>
</svg>
