<svg width="20" height="20" viewBox="0 0 20 20" fill="none" xmlns="http://www.w3.org/2000/svg">
<path fill-rule="evenodd" clip-rule="evenodd" d="M4.00012 4C2.89555 4 2.00012 4.89543 2.00012 6V14C2.00012 15.1046 2.89555 16 4.00012 16H16.0001C17.1047 16 18.0001 15.1046 18.0001 14V8C18.0001 6.89543 17.1047 6 16.0001 6H11.0001L9.00012 4H4.00012ZM11.0001 9C11.0001 8.44772 10.5524 8 10.0001 8C9.44784 8 9.00012 8.44772 9.00012 9V10.5858L8.70723 10.2929C8.3167 9.90237 7.68354 9.90237 7.29302 10.2929C6.90249 10.6834 6.90249 11.3166 7.29302 11.7071L9.29302 13.7071C9.68354 14.0976 10.3167 14.0976 10.7072 13.7071L12.7072 11.7071C13.0978 11.3166 13.0978 10.6834 12.7072 10.2929C12.3167 9.90237 11.6835 9.90237 11.293 10.2929L11.0001 10.5858V9Z" fill="#111827"/>
</svg>
