<svg width="20" height="20" viewBox="0 0 20 20" fill="none" xmlns="http://www.w3.org/2000/svg">
<path fill-rule="evenodd" clip-rule="evenodd" d="M2.00012 6C2.00012 4.89543 2.89555 4 4.00012 4H8.00012L10.0001 6H14.0001C15.1047 6 16.0001 6.89543 16.0001 8V9H8.00012C6.34327 9 5.00012 10.3431 5.00012 12V13.5C5.00012 14.3284 4.32855 15 3.50012 15C2.67169 15 2.00012 14.3284 2.00012 13.5V6Z" fill="#111827"/>
<path d="M6.00012 12C6.00012 10.8954 6.89555 10 8.00012 10H16.0001C17.1047 10 18.0001 10.8954 18.0001 12V14C18.0001 15.1046 17.1047 16 16.0001 16H2.00012H4.00012C5.10469 16 6.00012 15.1046 6.00012 14V12Z" fill="#111827"/>
</svg>
