<svg width="20" height="20" viewBox="0 0 20 20" fill="none" xmlns="http://www.w3.org/2000/svg">
<path fill-rule="evenodd" clip-rule="evenodd" d="M4.00012 4C2.89555 4 2.00012 4.89543 2.00012 6V14C2.00012 15.1046 2.89555 16 4.00012 16H16.0001C17.1047 16 18.0001 15.1046 18.0001 14V8C18.0001 6.89543 17.1047 6 16.0001 6H11.0001L9.00012 4H4.00012ZM11.0001 9C11.0001 8.44772 10.5524 8 10.0001 8C9.44784 8 9.00012 8.44772 9.00012 9V10H8.00012C7.44784 10 7.00012 10.4477 7.00012 11C7.00012 11.5523 7.44784 12 8.00012 12H9.00012V13C9.00012 13.5523 9.44784 14 10.0001 14C10.5524 14 11.0001 13.5523 11.0001 13V12H12.0001C12.5524 12 13.0001 11.5523 13.0001 11C13.0001 10.4477 12.5524 10 12.0001 10H11.0001V9Z" fill="#111827"/>
</svg>
