<svg width="20" height="20" viewBox="0 0 20 20" fill="none" xmlns="http://www.w3.org/2000/svg">
<path fill-rule="evenodd" clip-rule="evenodd" d="M5.00006 5C5.00006 3.34315 6.34321 2 8.00006 2C8.76842 2 9.46931 2.28885 10.0001 2.7639C10.5308 2.28885 11.2317 2 12.0001 2C13.6569 2 15.0001 3.34315 15.0001 5C15.0001 5.35064 14.9399 5.68722 14.8294 6H16.0001C17.1046 6 18.0001 6.89543 18.0001 8C18.0001 9.10457 17.1046 10 16.0001 10H11.0001V9C11.0001 8.44772 10.5523 8 10.0001 8C9.44778 8 9.00006 8.44771 9.00006 9V10H4.00006C2.89549 10 2.00006 9.10457 2.00006 8C2.00006 6.89543 2.89549 6 4.00006 6H5.17077C5.06022 5.68722 5.00006 5.35064 5.00006 5ZM9.00006 6V5C9.00006 4.44772 8.55235 4 8.00006 4C7.44778 4 7.00006 4.44772 7.00006 5C7.00006 5.55228 7.44778 6 8.00006 6H9.00006ZM12.0001 6C12.5523 6 13.0001 5.55228 13.0001 5C13.0001 4.44772 12.5523 4 12.0001 4C11.4478 4 11.0001 4.44772 11.0001 5V6H12.0001Z" fill="#111827"/>
<path d="M9.00006 11H3.00006V16C3.00006 17.1046 3.89549 18 5.00006 18H9.00006V11Z" fill="#111827"/>
<path d="M11.0001 18H15.0001C16.1046 18 17.0001 17.1046 17.0001 16V11H11.0001V18Z" fill="#111827"/>
</svg>
