<svg width="20" height="20" viewBox="0 0 20 20" fill="none" xmlns="http://www.w3.org/2000/svg">
<path fill-rule="evenodd" clip-rule="evenodd" d="M4.08308 9H6.02875C6.11796 7.45361 6.4124 6.02907 6.86656 4.88228C5.41764 5.77135 4.37525 7.25848 4.08308 9ZM10.0001 2C5.58184 2 2.00012 5.58172 2.00012 10C2.00012 14.4183 5.58184 18 10.0001 18C14.4184 18 18.0001 14.4183 18.0001 10C18.0001 5.58172 14.4184 2 10.0001 2ZM10.0001 4C9.92407 4 9.76799 4.03173 9.53482 4.26184C9.29736 4.4962 9.03763 4.8849 8.79795 5.44417C8.40926 6.3511 8.12503 7.58559 8.03249 9H11.9678C11.8752 7.58559 11.591 6.3511 11.2023 5.44417C10.9626 4.8849 10.7029 4.4962 10.4654 4.26184C10.2323 4.03173 10.0762 4 10.0001 4ZM13.9715 9C13.8823 7.45361 13.5878 6.02907 13.1337 4.88228C14.5826 5.77135 15.625 7.25848 15.9172 9H13.9715ZM11.9678 11H8.03249C8.12503 12.4144 8.40926 13.6489 8.79795 14.5558C9.03763 15.1151 9.29736 15.5038 9.53482 15.7382C9.76799 15.9683 9.92407 16 10.0001 16C10.0762 16 10.2323 15.9683 10.4654 15.7382C10.7029 15.5038 10.9626 15.1151 11.2023 14.5558C11.591 13.6489 11.8752 12.4144 11.9678 11ZM13.1337 15.1177C13.5878 13.9709 13.8823 12.5464 13.9715 11H15.9172C15.625 12.7415 14.5826 14.2287 13.1337 15.1177ZM6.86656 15.1177C6.4124 13.9709 6.11796 12.5464 6.02875 11H4.08308C4.37525 12.7415 5.41764 14.2287 6.86656 15.1177Z" fill="#111827"/>
</svg>
