<svg width="20" height="20" viewBox="0 0 20 20" fill="none" xmlns="http://www.w3.org/2000/svg">
<path fill-rule="evenodd" clip-rule="evenodd" d="M10.0001 18C14.4184 18 18.0001 14.4183 18.0001 10C18.0001 5.58172 14.4184 2 10.0001 2C5.58184 2 2.00012 5.58172 2.00012 10C2.00012 14.4183 5.58184 18 10.0001 18ZM4.33191 8.02741C4.70554 6.95361 5.3757 6.01864 6.24433 5.32056C6.51222 5.72966 6.97462 5.99991 7.50014 5.99991C8.32856 5.99991 9.00014 6.67148 9.00014 7.49991V7.99991C9.00014 9.10448 9.89557 9.99991 11.0001 9.99991C12.1047 9.99991 13.0001 9.10448 13.0001 7.99991C13.0001 7.05979 13.6488 6.27118 14.523 6.05719C15.4429 7.11161 16.0001 8.49069 16.0001 9.99992C16.0001 10.3407 15.9717 10.6748 15.9172 11.0001H15.0001C13.8955 11.0001 13.0001 11.8955 13.0001 13.0001V15.1973C12.1176 15.7078 11.0929 15.9999 10 15.9999V14C10 12.8954 9.10461 12 8.00004 12C6.89547 12 6.00004 11.1046 6.00004 10C6.00004 9.00849 5.27853 8.1855 4.33191 8.02741Z" fill="#111827"/>
</svg>
