<svg width="20" height="20" viewBox="0 0 20 20" fill="none" xmlns="http://www.w3.org/2000/svg">
<path d="M9.00012 3C9.00012 2.44772 9.44784 2 10.0001 2C10.5524 2 11.0001 2.44772 11.0001 3V8.5C11.0001 8.77614 11.224 9 11.5001 9C11.7763 9 12.0001 8.77614 12.0001 8.5V4C12.0001 3.44772 12.4478 3 13.0001 3C13.5524 3 14.0001 3.44772 14.0001 4V8.5C14.0001 8.77614 14.224 9 14.5001 9C14.7763 9 15.0001 8.77614 15.0001 8.5V6C15.0001 5.44772 15.4478 5 16.0001 5C16.5524 5 17.0001 5.44772 17.0001 6V11C17.0001 14.866 13.8661 18 10.0001 18C6.13413 18 3.00012 14.866 3.00012 11V9C3.00012 8.44772 3.44784 8 4.00012 8C4.55241 8 5.00012 8.44772 5.00012 9V11.5C5.00012 11.7761 5.22398 12 5.50012 12C5.77626 12 6.00012 11.7761 6.00012 11.5V4C6.00012 3.44772 6.44784 3 7.00012 3C7.55241 3 8.00012 3.44772 8.00012 4V8.5C8.00012 8.77614 8.22398 9 8.50012 9C8.77626 9 9.00012 8.77614 9.00012 8.5V3Z" fill="#111827"/>
</svg>
