<svg width="20" height="20" viewBox="0 0 20 20" fill="none" xmlns="http://www.w3.org/2000/svg">
<path fill-rule="evenodd" clip-rule="evenodd" d="M9.24266 3.02985C9.77845 3.1638 10.1042 3.70673 9.97026 4.24253L9.5309 5.99999H12.4693L13.03 3.75746C13.1639 3.22166 13.7069 2.8959 14.2427 3.02985C14.7785 3.1638 15.1042 3.70673 14.9703 4.24253L14.5309 5.99999H17.0001C17.5524 5.99999 18.0001 6.44771 18.0001 6.99999C18.0001 7.55228 17.5524 7.99999 17.0001 7.99999H14.0309L13.0309 12H15.0001C15.5524 12 16.0001 12.4477 16.0001 13C16.0001 13.5523 15.5524 14 15.0001 14H12.5309L11.9703 16.2425C11.8363 16.7783 11.2934 17.1041 10.7576 16.9701C10.2218 16.8362 9.89603 16.2933 10.03 15.7575L10.4693 14H7.5309L6.97026 16.2425C6.83632 16.7783 6.29338 17.1041 5.75759 16.9701C5.22179 16.8362 4.89603 16.2933 5.02998 15.7575L5.46935 14H3.00012C2.44784 14 2.00012 13.5523 2.00012 13C2.00012 12.4477 2.44784 12 3.00012 12H5.96935L6.96935 7.99999H5.00012C4.44784 7.99999 4.00012 7.55228 4.00012 6.99999C4.00012 6.44771 4.44784 5.99999 5.00012 5.99999H7.46935L8.02998 3.75746C8.16393 3.22166 8.70686 2.8959 9.24266 3.02985ZM9.0309 7.99999L8.0309 12H10.9693L11.9693 7.99999H9.0309Z" fill="#111827"/>
</svg>
