<svg width="20" height="20" viewBox="0 0 20 20" fill="none" xmlns="http://www.w3.org/2000/svg">
<path d="M10.0001 2C9.44784 2 9.00012 2.44772 9.00012 3V4C9.00012 4.55228 9.44784 5 10.0001 5C10.5524 5 11.0001 4.55228 11.0001 4V3C11.0001 2.44772 10.5524 2 10.0001 2Z" fill="#111827"/>
<path fill-rule="evenodd" clip-rule="evenodd" d="M4.00012 4H7.00012C7.00012 5.65685 8.34327 7 10.0001 7C11.657 7 13.0001 5.65685 13.0001 4H16.0001C17.1047 4 18.0001 4.89543 18.0001 6V15C18.0001 16.1046 17.1047 17 16.0001 17H4.00012C2.89555 17 2.00012 16.1046 2.00012 15V6C2.00012 4.89543 2.89555 4 4.00012 4ZM6.50012 11C7.32855 11 8.00012 10.3284 8.00012 9.5C8.00012 8.67157 7.32855 8 6.50012 8C5.67169 8 5.00012 8.67157 5.00012 9.5C5.00012 10.3284 5.67169 11 6.50012 11ZM8.9506 15C8.9834 14.8384 9.00061 14.6712 9.00061 14.5C9.00061 13.1193 7.88132 12 6.50061 12C5.1199 12 4.00061 13.1193 4.00061 14.5C4.00061 14.6712 4.01783 14.8384 4.05062 15H8.9506ZM12.0001 9C11.4478 9 11.0001 9.44772 11.0001 10C11.0001 10.5523 11.4478 11 12.0001 11H15.0001C15.5524 11 16.0001 10.5523 16.0001 10C16.0001 9.44772 15.5524 9 15.0001 9H12.0001ZM11.0001 13C11.0001 12.4477 11.4478 12 12.0001 12H14.0001C14.5524 12 15.0001 12.4477 15.0001 13C15.0001 13.5523 14.5524 14 14.0001 14H12.0001C11.4478 14 11.0001 13.5523 11.0001 13Z" fill="#111827"/>
</svg>
