<svg width="20" height="20" viewBox="0 0 20 20" fill="none" xmlns="http://www.w3.org/2000/svg">
<path d="M5.00006 3C3.89549 3 3.00006 3.89543 3.00006 5V15C3.00006 16.1046 3.89549 17 5.00006 17H15.0001C16.1046 17 17.0001 16.1046 17.0001 15V5C17.0001 3.89543 16.1046 3 15.0001 3H14.0001C13.4478 3 13.0001 3.44772 13.0001 4C13.0001 4.55228 13.4478 5 14.0001 5H15.0001V12H13.0001L12.0001 14H8.00006L7.00006 12H5.00006V5L6.00006 5C6.55235 5 7.00006 4.55228 7.00006 4C7.00006 3.44772 6.55235 3 6.00006 3H5.00006Z" fill="#111827"/>
<path d="M7.29296 7.29289C7.68348 6.90237 8.31665 6.90237 8.70717 7.29289L9.00006 7.58579L9.00006 3C9.00006 2.44772 9.44778 2 10.0001 2C10.5523 2 11.0001 2.44771 11.0001 3V7.58579L11.293 7.29289C11.6835 6.90237 12.3166 6.90237 12.7072 7.29289C13.0977 7.68342 13.0977 8.31658 12.7072 8.70711L10.7072 10.7071C10.5196 10.8946 10.2653 11 10.0001 11C9.73485 11 9.48049 10.8946 9.29296 10.7071L7.29296 8.70711C6.90243 8.31658 6.90243 7.68342 7.29296 7.29289Z" fill="#111827"/>
</svg>
