<svg width="20" height="20" viewBox="0 0 20 20" fill="none" xmlns="http://www.w3.org/2000/svg">
<path fill-rule="evenodd" clip-rule="evenodd" d="M18.0001 8C18.0001 11.3137 15.3138 14 12.0001 14C11.3939 14 10.8088 13.9101 10.2572 13.7429L8.00012 16H6.00012V18H2.00012V14L6.25719 9.74293C6.09001 9.19135 6.00012 8.60617 6.00012 8C6.00012 4.68629 8.68641 2 12.0001 2C15.3138 2 18.0001 4.68629 18.0001 8ZM12.0001 4C11.4478 4 11.0001 4.44772 11.0001 5C11.0001 5.55228 11.4478 6 12.0001 6C13.1047 6 14.0001 6.89543 14.0001 8C14.0001 8.55228 14.4478 9 15.0001 9C15.5524 9 16.0001 8.55228 16.0001 8C16.0001 5.79086 14.2093 4 12.0001 4Z" fill="#111827"/>
</svg>
