<svg width="20" height="20" viewBox="0 0 20 20" fill="none" xmlns="http://www.w3.org/2000/svg">
<path fill-rule="evenodd" clip-rule="evenodd" d="M10.4964 2.13176C10.189 1.95608 9.81159 1.95608 9.50415 2.13176L2.50415 6.13176C2.02464 6.40577 1.85804 7.01662 2.13205 7.49614C2.31643 7.81881 2.65334 7.99979 3.00012 8.00017V15C2.44784 15 2.00012 15.4477 2.00012 16C2.00012 16.5523 2.44784 17 3.00012 17H17.0001C17.5524 17 18.0001 16.5523 18.0001 16C18.0001 15.4477 17.5524 15 17.0001 15V8.00017C17.347 7.99991 17.6841 7.81892 17.8685 7.49614C18.1425 7.01662 17.9759 6.40577 17.4964 6.13176L10.4964 2.13176ZM6.00012 9C5.44784 9 5.00012 9.44772 5.00012 10V13C5.00012 13.5523 5.44784 14 6.00012 14C6.55241 14 7.00012 13.5523 7.00012 13V10C7.00012 9.44772 6.55241 9 6.00012 9ZM9.00012 10C9.00012 9.44772 9.44784 9 10.0001 9C10.5524 9 11.0001 9.44772 11.0001 10V13C11.0001 13.5523 10.5524 14 10.0001 14C9.44784 14 9.00012 13.5523 9.00012 13V10ZM14.0001 9C13.4478 9 13.0001 9.44772 13.0001 10V13C13.0001 13.5523 13.4478 14 14.0001 14C14.5524 14 15.0001 13.5523 15.0001 13V10C15.0001 9.44772 14.5524 9 14.0001 9Z" fill="#111827"/>
</svg>
