<svg width="20" height="20" viewBox="0 0 20 20" fill="none" xmlns="http://www.w3.org/2000/svg">
<path fill-rule="evenodd" clip-rule="evenodd" d="M11.3008 1.04633C11.717 1.17755 12.0001 1.5636 12.0001 2.00007V7.00007L16.0001 7.00007C16.373 7.00007 16.7149 7.20753 16.8871 7.53826C17.0593 7.86899 17.0332 8.26806 16.8194 8.57353L9.81936 18.5735C9.56906 18.9311 9.11576 19.085 8.69949 18.9538C8.28321 18.8226 8.00013 18.4365 8.00013 18.0001L8.00013 13.0001H4.00013C3.62725 13.0001 3.28534 12.7926 3.11315 12.4619C2.94095 12.1312 2.96706 11.7321 3.18089 11.4266L10.1809 1.42661C10.4312 1.06904 10.8845 0.915114 11.3008 1.04633Z" fill="#111827"/>
</svg>
