<svg width="20" height="20" viewBox="0 0 20 20" fill="none" xmlns="http://www.w3.org/2000/svg">
<path d="M12.5859 4.58579C13.3669 3.80474 14.6333 3.80474 15.4143 4.58579C16.1954 5.36683 16.1954 6.63316 15.4143 7.41421L12.4143 10.4142C11.6333 11.1953 10.3669 11.1953 9.58589 10.4142C9.19537 10.0237 8.5622 10.0237 8.17168 10.4142C7.78115 10.8047 7.78115 11.4379 8.17168 11.8284C9.73377 13.3905 12.2664 13.3905 13.8285 11.8284L16.8285 8.82843C18.3906 7.26633 18.3906 4.73367 16.8285 3.17157C15.2664 1.60948 12.7338 1.60948 11.1717 3.17157L9.67168 4.67157C9.28115 5.0621 9.28115 5.69526 9.67168 6.08579C10.0622 6.47631 10.6954 6.47631 11.0859 6.08579L12.5859 4.58579Z" fill="#111827"/>
<path d="M7.58591 9.58579C8.36696 8.80474 9.63329 8.80474 10.4143 9.58579C10.8049 9.97631 11.438 9.97631 11.8285 9.58579C12.2191 9.19526 12.2191 8.5621 11.8285 8.17157C10.2665 6.60948 7.73379 6.60948 6.17169 8.17157L3.17169 11.1716C1.6096 12.7337 1.6096 15.2663 3.17169 16.8284C4.73379 18.3905 7.26645 18.3905 8.82855 16.8284L10.3285 15.3284C10.7191 14.9379 10.7191 14.3047 10.3285 13.9142C9.93802 13.5237 9.30486 13.5237 8.91434 13.9142L7.41434 15.4142C6.63329 16.1953 5.36696 16.1953 4.58591 15.4142C3.80486 14.6332 3.80486 13.3668 4.58591 12.5858L7.58591 9.58579Z" fill="#111827"/>
</svg>
