<svg width="20" height="20" viewBox="0 0 20 20" fill="none" xmlns="http://www.w3.org/2000/svg">
<path fill-rule="evenodd" clip-rule="evenodd" d="M2.94006 6.4124C2.3553 6.77788 2.00006 7.41882 2.00006 8.1084V15.9999C2.00006 17.1045 2.89549 17.9999 4.00006 17.9999H16.0001C17.1046 17.9999 18.0001 17.1045 18.0001 15.9999V8.1084C18.0001 7.41882 17.6448 6.77788 17.0601 6.4124L11.0601 2.6624C10.4115 2.25706 9.5886 2.25706 8.94006 2.6624L2.94006 6.4124ZM5.55476 8.83462C5.09523 8.52826 4.47436 8.65244 4.16801 9.11197C3.86166 9.5715 3.98583 10.1924 4.44536 10.4987L9.44536 13.8321C9.78126 14.056 10.2189 14.056 10.5548 13.8321L15.5548 10.4987C16.0143 10.1924 16.1385 9.5715 15.8321 9.11197C15.5258 8.65244 14.9049 8.52826 14.4454 8.83462L10.0001 11.7981L5.55476 8.83462Z" fill="#111827"/>
</svg>
