<svg width="20" height="20" viewBox="0 0 20 20" fill="none" xmlns="http://www.w3.org/2000/svg">
<path fill-rule="evenodd" clip-rule="evenodd" d="M12.0001 1.58594L8.00012 5.58594V18.4144L12.0001 14.4144V1.58594Z" fill="#111827"/>
<path fill-rule="evenodd" clip-rule="evenodd" d="M3.70723 3.29304C3.42123 3.00705 2.99111 2.92149 2.61744 3.07627C2.24376 3.23105 2.00012 3.59569 2.00012 4.00015V14.0002C2.00012 14.2654 2.10548 14.5197 2.29302 14.7073L6.00012 18.4144V5.58594L3.70723 3.29304Z" fill="#111827"/>
<path fill-rule="evenodd" clip-rule="evenodd" d="M17.7072 5.29304L14.0001 1.58594V14.4144L16.293 16.7073C16.579 16.9933 17.0091 17.0788 17.3828 16.924C17.7565 16.7692 18.0001 16.4046 18.0001 16.0002V6.00015C18.0001 5.73493 17.8948 5.48058 17.7072 5.29304Z" fill="#111827"/>
</svg>
