<svg width="20" height="20" viewBox="0 0 20 20" fill="none" xmlns="http://www.w3.org/2000/svg">
<path fill-rule="evenodd" clip-rule="evenodd" d="M3.00006 5C3.00006 4.44772 3.44778 4 4.00006 4H16.0001C16.5524 4 17.0001 4.44772 17.0001 5C17.0001 5.55228 16.5524 6 16.0001 6H4.00006C3.44778 6 3.00006 5.55228 3.00006 5Z" fill="#111827"/>
<path fill-rule="evenodd" clip-rule="evenodd" d="M3.00006 10C3.00006 9.44772 3.44778 9 4.00006 9H16.0001C16.5524 9 17.0001 9.44772 17.0001 10C17.0001 10.5523 16.5524 11 16.0001 11H4.00006C3.44778 11 3.00006 10.5523 3.00006 10Z" fill="#111827"/>
<path fill-rule="evenodd" clip-rule="evenodd" d="M9.00007 15C9.00007 14.4477 9.44778 14 10.0001 14H16.0001C16.5524 14 17.0001 14.4477 17.0001 15C17.0001 15.5523 16.5524 16 16.0001 16H10.0001C9.44778 16 9.00007 15.5523 9.00007 15Z" fill="#111827"/>
</svg>
