<svg width="20" height="20" viewBox="0 0 20 20" fill="none" xmlns="http://www.w3.org/2000/svg">
<path d="M7.00012 4C7.00012 2.34315 8.34327 1 10.0001 1C11.657 1 13.0001 2.34315 13.0001 4V8C13.0001 9.65685 11.657 11 10.0001 11C8.34327 11 7.00012 9.65685 7.00012 8V4Z" fill="#111827"/>
<path d="M11.0001 14.9291C14.3924 14.4439 17.0001 11.5265 17.0001 8C17.0001 7.44772 16.5524 7 16.0001 7C15.4478 7 15.0001 7.44772 15.0001 8C15.0001 10.7614 12.7615 13 10.0001 13C7.2387 13 5.00012 10.7614 5.00012 8C5.00012 7.44772 4.55241 7 4.00012 7C3.44784 7 3.00012 7.44772 3.00012 8C3.00012 11.5265 5.60783 14.4439 9.00012 14.9291V17H6.00012C5.44784 17 5.00012 17.4477 5.00012 18C5.00012 18.5523 5.44784 19 6.00012 19H14.0001C14.5524 19 15.0001 18.5523 15.0001 18C15.0001 17.4477 14.5524 17 14.0001 17H11.0001V14.9291Z" fill="#111827"/>
</svg>
