<svg width="20" height="20" viewBox="0 0 20 20" fill="none" xmlns="http://www.w3.org/2000/svg">
<path fill-rule="evenodd" clip-rule="evenodd" d="M2.00012 5C2.00012 3.89543 2.89555 3 4.00012 3H12.0001C13.1047 3 14.0001 3.89543 14.0001 5V15C14.0001 16.1046 14.8956 17 16.0001 17H4.00012C2.89555 17 2.00012 16.1046 2.00012 15V5ZM5.00012 6H11.0001V10H5.00012V6ZM11.0001 12H5.00012V14H11.0001V12Z" fill="#111827"/>
<path d="M15.0001 7H16.0001C17.1047 7 18.0001 7.89543 18.0001 9V14.5C18.0001 15.3284 17.3285 16 16.5001 16C15.6717 16 15.0001 15.3284 15.0001 14.5V7Z" fill="#111827"/>
</svg>
