<svg width="456" height="1080" viewBox="0 0 456 1080" fill="none" xmlns="http://www.w3.org/2000/svg">
<g clip-path="url(#clip0_1_1944)">
<path d="M3 8L10.8906 13.2604C11.5624 13.7083 12.4376 13.7083 13.1094 13.2604L21 8M5 19H19C20.1046 19 21 18.1046 21 17V7C21 5.89543 20.1046 5 19 5H5C3.89543 5 3 5.89543 3 7V17C3 18.1046 3.89543 19 5 19Z" stroke="#111827" stroke-width="2" stroke-linecap="round" stroke-linejoin="round"/>
<path d="M63 17H68L66.5951 15.5951C66.2141 15.2141 66 14.6973 66 14.1585V11C66 8.38757 64.3304 6.16509 62 5.34142V5C62 3.89543 61.1046 3 60 3C58.8954 3 58 3.89543 58 5V5.34142C55.6696 6.16509 54 8.38757 54 11V14.1585C54 14.6973 53.7859 15.2141 53.4049 15.5951L52 17H57M63 17V18C63 19.6569 61.6569 21 60 21C58.3431 21 57 19.6569 57 18V17M63 17H57" stroke="#111827" stroke-width="2" stroke-linecap="round" stroke-linejoin="round"/>
<path d="M99 12L101 10M101 10L108 3L115 10M101 10V20C101 20.5523 101.448 21 102 21H105M115 10L117 12M115 10V20C115 20.5523 114.552 21 114 21H111M105 21C105.552 21 106 20.5523 106 20V16C106 15.4477 106.448 15 107 15H109C109.552 15 110 15.4477 110 16V20C110 20.5523 110.448 21 111 21M105 21H111" stroke="#111827" stroke-width="2" stroke-linecap="round" stroke-linejoin="round"/>
<path d="M165 13.2554C162.221 14.3805 159.183 15 156 15C152.817 15 149.779 14.3805 147 13.2554M160 6V4C160 2.89543 159.105 2 158 2H154C152.895 2 152 2.89543 152 4V6M156 12H156.01M149 20H163C164.105 20 165 19.1046 165 18V8C165 6.89543 164.105 6 163 6H149C147.895 6 147 6.89543 147 8V18C147 19.1046 147.895 20 149 20Z" stroke="#111827" stroke-width="2" stroke-linecap="round" stroke-linejoin="round"/>
<path d="M201 12L203 14L207 10M212.618 5.98434C212.413 5.99472 212.207 5.99997 212 5.99997C208.927 5.99997 206.123 4.84453 204 2.94434C201.877 4.84446 199.073 5.99985 196 5.99985C195.793 5.99985 195.587 5.9946 195.382 5.98422C195.133 6.94783 195 7.95842 195 9.00001C195 14.5915 198.824 19.2898 204 20.622C209.176 19.2898 213 14.5915 213 9.00001C213 7.95847 212.867 6.94791 212.618 5.98434Z" stroke="#111827" stroke-width="2" stroke-linecap="round" stroke-linejoin="round"/>
<path d="M260.618 5.98434C260.413 5.99472 260.207 5.99997 260 5.99997C256.927 5.99997 254.123 4.84453 252 2.94434C249.877 4.84446 247.073 5.99985 244 5.99985C243.793 5.99985 243.587 5.9946 243.382 5.98422C243.133 6.94783 243 7.95842 243 9.00001C243 14.5915 246.824 19.2898 252 20.622C257.176 19.2898 261 14.5915 261 9.00001C261 7.95847 260.867 6.94791 260.618 5.98434Z" stroke="#111827" stroke-width="2" stroke-linecap="round" stroke-linejoin="round"/>
<path d="M252 9V11M252 15H252.01" stroke="#111827" stroke-width="2" stroke-linecap="round" stroke-linejoin="round"/>
<path d="M298.325 4.31731C298.751 2.5609 301.249 2.5609 301.675 4.31731C301.951 5.45193 303.251 5.99038 304.248 5.38285C305.791 4.44239 307.558 6.2087 306.617 7.75218C306.01 8.74925 306.548 10.0492 307.683 10.3246C309.439 10.751 309.439 13.249 307.683 13.6754C306.548 13.9508 306.01 15.2507 306.617 16.2478C307.558 17.7913 305.791 19.5576 304.248 18.6172C303.251 18.0096 301.951 18.5481 301.675 19.6827C301.249 21.4391 298.751 21.4391 298.325 19.6827C298.049 18.5481 296.749 18.0096 295.752 18.6172C294.209 19.5576 292.442 17.7913 293.383 16.2478C293.99 15.2507 293.452 13.9508 292.317 13.6754C290.561 13.249 290.561 10.751 292.317 10.3246C293.452 10.0492 293.99 8.74926 293.383 7.75218C292.442 6.2087 294.209 4.44239 295.752 5.38285C296.749 5.99037 298.049 5.45193 298.325 4.31731Z" stroke="#111827" stroke-width="2" stroke-linecap="round" stroke-linejoin="round"/>
<path d="M303 12C303 13.6569 301.657 15 300 15C298.343 15 297 13.6569 297 12C297 10.3431 298.343 9 300 9C301.657 9 303 10.3431 303 12Z" stroke="#111827" stroke-width="2" stroke-linecap="round" stroke-linejoin="round"/>
<path d="M341 13L345 17L355 7" stroke="#111827" stroke-width="2" stroke-linecap="round" stroke-linejoin="round"/>
<path d="M387 5H399M393 3V5M394.048 14.5C392.521 12.9178 391.281 11.0565 390.412 9M396.5 18H403.5M395 21L400 11L405 21M396.751 5C395.783 10.7702 392.07 15.6095 387 18.129" stroke="#111827" stroke-width="2" stroke-linecap="round" stroke-linejoin="round"/>
<path d="M449 9V7C449 5.89543 448.105 5 447 5H437C435.895 5 435 5.89543 435 7V13C435 14.1046 435.895 15 437 15H439M441 19H451C452.105 19 453 18.1046 453 17V11C453 9.89543 452.105 9 451 9H441C439.895 9 439 9.89543 439 11V17C439 18.1046 439.895 19 441 19ZM448 14C448 15.1046 447.105 16 446 16C444.895 16 444 15.1046 444 14C444 12.8954 444.895 12 446 12C447.105 12 448 12.8954 448 14Z" stroke="#111827" stroke-width="2" stroke-linecap="round" stroke-linejoin="round"/>
<path d="M17.6569 64.6569C16.7202 65.5935 14.7616 67.5521 13.4138 68.8999C12.6327 69.681 11.3677 69.6814 10.5866 68.9003C9.26234 67.576 7.34159 65.6553 6.34315 64.6569C3.21895 61.5327 3.21895 56.4673 6.34315 53.3431C9.46734 50.219 14.5327 50.219 17.6569 53.3431C20.781 56.4673 20.781 61.5327 17.6569 64.6569Z" stroke="#111827" stroke-width="2" stroke-linecap="round" stroke-linejoin="round"/>
<path d="M15 59C15 60.6569 13.6569 62 12 62C10.3431 62 9 60.6569 9 59C9 57.3431 10.3431 56 12 56C13.6569 56 15 57.3431 15 59Z" stroke="#111827" stroke-width="2" stroke-linecap="round" stroke-linejoin="round"/>
<path d="M64 55C64 57.2091 62.2091 59 60 59C57.7909 59 56 57.2091 56 55C56 52.7909 57.7909 51 60 51C62.2091 51 64 52.7909 64 55Z" stroke="#111827" stroke-width="2" stroke-linecap="round" stroke-linejoin="round"/>
<path d="M60 62C56.134 62 53 65.134 53 69H67C67 65.134 63.866 62 60 62Z" stroke="#111827" stroke-width="2" stroke-linecap="round" stroke-linejoin="round"/>
<path d="M108 52.3542C108.733 51.5238 109.805 51 111 51C113.209 51 115 52.7909 115 55C115 57.2091 113.209 59 111 59C109.805 59 108.733 58.4762 108 57.6458M111 69H99V68C99 64.6863 101.686 62 105 62C108.314 62 111 64.6863 111 68V69ZM111 69H117V68C117 64.6863 114.314 62 111 62C109.907 62 108.883 62.2922 108 62.8027M109 55C109 57.2091 107.209 59 105 59C102.791 59 101 57.2091 101 55C101 52.7909 102.791 51 105 51C107.209 51 109 52.7909 109 55Z" stroke="#111827" stroke-width="2" stroke-linecap="round" stroke-linejoin="round"/>
<path d="M161 68H166V66C166 64.3431 164.657 63 163 63C162.044 63 161.193 63.4468 160.644 64.1429M161 68H151M161 68V66C161 65.3438 160.874 64.717 160.644 64.1429M151 68H146V66C146 64.3431 147.343 63 149 63C149.956 63 150.807 63.4468 151.356 64.1429M151 68V66C151 65.3438 151.126 64.717 151.356 64.1429M151.356 64.1429C152.094 62.301 153.895 61 156 61C158.105 61 159.906 62.301 160.644 64.1429M159 55C159 56.6569 157.657 58 156 58C154.343 58 153 56.6569 153 55C153 53.3431 154.343 52 156 52C157.657 52 159 53.3431 159 55ZM165 58C165 59.1046 164.105 60 163 60C161.895 60 161 59.1046 161 58C161 56.8954 161.895 56 163 56C164.105 56 165 56.8954 165 58ZM151 58C151 59.1046 150.105 60 149 60C147.895 60 147 59.1046 147 58C147 56.8954 147.895 56 149 56C150.105 56 151 56.8954 151 58Z" stroke="#111827" stroke-width="2" stroke-linecap="round" stroke-linejoin="round"/>
<path d="M211 69V53C211 51.8954 210.105 51 209 51H199C197.895 51 197 51.8954 197 53V69M211 69L213 69M211 69H206M197 69L195 69M197 69H202M201 55H202M201 59H202M206 55H207M206 59H207M202 69V64C202 63.4477 202.448 63 203 63H205C205.552 63 206 63.4477 206 64V69M202 69H206" stroke="#111827" stroke-width="2" stroke-linecap="round" stroke-linejoin="round"/>
<path d="M243 54L246 55M246 55L243 64C244.773 65.3334 247.229 65.3334 249.001 64M246 55L249 64M246 55L252 53M258 55L261 54M258 55L255 64C256.773 65.3334 259.229 65.3334 261.001 64M258 55L261 64M258 55L252 53M252 51V53M252 69V53M252 69H249M252 69H255" stroke="#111827" stroke-width="2" stroke-linecap="round" stroke-linejoin="round"/>
<path d="M299 53H294C292.895 53 292 53.8954 292 55V66C292 67.1046 292.895 68 294 68H305C306.105 68 307 67.1046 307 66V61M305.586 51.5858C306.367 50.8047 307.633 50.8047 308.414 51.5858C309.195 52.3668 309.195 53.6332 308.414 54.4142L299.828 63H297L297 60.1716L305.586 51.5858Z" stroke="#111827" stroke-width="2" stroke-linecap="round" stroke-linejoin="round"/>
<path d="M356.268 51.7322L356.975 51.0251V51.0251L356.268 51.7322ZM342.5 69.0355V70.0355C342.765 70.0355 343.02 69.9301 343.207 69.7426L342.5 69.0355ZM339 69.0355H338C338 69.5878 338.448 70.0355 339 70.0355V69.0355ZM339 65.4644L338.293 64.7573C338.105 64.9448 338 65.1992 338 65.4644H339ZM353.439 52.4393C354.025 51.8536 354.975 51.8536 355.561 52.4393L356.975 51.0251C355.608 49.6583 353.392 49.6583 352.025 51.0251L353.439 52.4393ZM355.561 52.4393C356.146 53.0251 356.146 53.9749 355.561 54.5607L356.975 55.9749C358.342 54.608 358.342 52.392 356.975 51.0251L355.561 52.4393ZM355.561 54.5607L341.793 68.3284L343.207 69.7426L356.975 55.9749L355.561 54.5607ZM342.5 68.0355H339V70.0355H342.5V68.0355ZM352.025 51.0251L338.293 64.7573L339.707 66.1715L353.439 52.4393L352.025 51.0251ZM338 65.4644V69.0355H340V65.4644H338ZM350.525 53.9393L354.061 57.4749L355.475 56.0607L351.939 52.5251L350.525 53.9393Z" fill="#111827"/>
<path d="M399 60C399 61.6569 397.657 63 396 63C394.343 63 393 61.6569 393 60C393 58.3431 394.343 57 396 57C397.657 57 399 58.3431 399 60Z" stroke="#111827" stroke-width="2" stroke-linecap="round" stroke-linejoin="round"/>
<path d="M386.458 60C387.733 55.9429 391.523 53 396 53C400.478 53 404.268 55.9429 405.543 60C404.268 64.0571 400.478 67 396 67C391.523 67 387.733 64.0571 386.458 60Z" stroke="#111827" stroke-width="2" stroke-linecap="round" stroke-linejoin="round"/>
<path d="M437 53C437 51.8954 437.895 51 439 51H449C450.105 51 451 51.8954 451 53V69L444 65.5L437 69V53Z" stroke="#111827" stroke-width="2" stroke-linecap="round" stroke-linejoin="round"/>
<path d="M7 117C4.79086 117 3 115.209 3 113V101C3 99.8954 3.89543 99 5 99H9C10.1046 99 11 99.8954 11 101V113C11 115.209 9.20914 117 7 117ZM7 117H19C20.1046 117 21 116.105 21 115V111C21 109.895 20.1046 109 19 109H16.6569M11 103.343L12.6569 101.686C13.4379 100.905 14.7042 100.905 15.4853 101.686L18.3137 104.515C19.0948 105.296 19.0948 106.562 18.3137 107.343L9.82843 115.828M7 113H7.01" stroke="#111827" stroke-width="2" stroke-linecap="round" stroke-linejoin="round"/>
<path d="M68 109V102C68 100.895 67.1046 100 66 100H54C52.8954 100 52 100.895 52 102V109M68 109V114C68 115.105 67.1046 116 66 116H54C52.8954 116 52 115.105 52 114V109M68 109H65.4142C65.149 109 64.8946 109.105 64.7071 109.293L62.2929 111.707C62.1054 111.895 61.851 112 61.5858 112H58.4142C58.149 112 57.8946 111.895 57.7071 111.707L55.2929 109.293C55.1054 109.105 54.851 109 54.5858 109H52" stroke="#111827" stroke-width="2" stroke-linecap="round" stroke-linejoin="round"/>
<path d="M104 100H102C100.895 100 100 100.895 100 102V114C100 115.105 100.895 116 102 116H114C115.105 116 116 115.105 116 114V102C116 100.895 115.105 100 114 100H112M108 99V107M108 107L111 104M108 107L105 104M100 109H102.586C102.851 109 103.105 109.105 103.293 109.293L105.707 111.707C105.895 111.895 106.149 112 106.414 112H109.586C109.851 112 110.105 111.895 110.293 111.707L112.707 109.293C112.895 109.105 113.149 109 113.414 109H116" stroke="#111827" stroke-width="2" stroke-linecap="round" stroke-linejoin="round"/>
<path d="M149 104H163M149 104C147.895 104 147 103.105 147 102C147 100.895 147.895 100 149 100H163C164.105 100 165 100.895 165 102C165 103.105 164.105 104 163 104M149 104L149 114C149 115.105 149.895 116 151 116H161C162.105 116 163 115.105 163 114V104M154 108H158" stroke="#111827" stroke-width="2" stroke-linecap="round" stroke-linejoin="round"/>
<path d="M204 104V108L207 111M213 108C213 112.971 208.971 117 204 117C199.029 117 195 112.971 195 108C195 103.029 199.029 99 204 99C208.971 99 213 103.029 213 108Z" stroke="#111827" stroke-width="2" stroke-linecap="round" stroke-linejoin="round"/>
<path d="M244 112L248.586 107.414C249.367 106.633 250.633 106.633 251.414 107.414L256 112M254 110L255.586 108.414C256.367 107.633 257.633 107.633 258.414 108.414L260 110M254 104H254.01M246 116H258C259.105 116 260 115.105 260 114V102C260 100.895 259.105 100 258 100H246C244.895 100 244 100.895 244 102V114C244 115.105 244.895 116 246 116Z" stroke="#111827" stroke-width="2" stroke-linecap="round" stroke-linejoin="round"/>
<path d="M295 103H295.01M295 99H300C300.512 99 301.024 99.1952 301.414 99.5858L308.414 106.586C309.195 107.367 309.195 108.633 308.414 109.414L301.414 116.414C300.633 117.195 299.367 117.195 298.586 116.414L291.586 109.414C291.195 109.024 291 108.512 291 108V103C291 100.791 292.791 99 295 99Z" stroke="#111827" stroke-width="2" stroke-linecap="round" stroke-linejoin="round"/>
<path d="M339 101C339 99.8954 339.895 99 341 99H344.279C344.71 99 345.092 99.2754 345.228 99.6838L346.726 104.177C346.883 104.649 346.669 105.165 346.224 105.388L343.967 106.516C345.069 108.961 347.039 110.931 349.484 112.033L350.612 109.776C350.835 109.331 351.351 109.117 351.823 109.274L356.316 110.772C356.725 110.908 357 111.29 357 111.721V115C357 116.105 356.105 117 355 117H354C345.716 117 339 110.284 339 102V101Z" stroke="#111827" stroke-width="2" stroke-linecap="round" stroke-linejoin="round"/>
<path d="M400 99H405M405 99V104M405 99L399 105M389 99C387.895 99 387 99.8954 387 101V102C387 110.284 393.716 117 402 117H403C404.105 117 405 116.105 405 115V111.721C405 111.29 404.725 110.908 404.316 110.772L399.823 109.274C399.351 109.117 398.835 109.331 398.612 109.776L397.484 112.033C395.039 110.931 393.069 108.961 391.967 106.516L394.224 105.388C394.669 105.165 394.883 104.649 394.726 104.177L393.228 99.6838C393.092 99.2754 392.71 99 392.279 99H389Z" stroke="#111827" stroke-width="2" stroke-linecap="round" stroke-linejoin="round"/>
<path d="M453 99L447 105M447 105V100M447 105H452M437 99C435.895 99 435 99.8954 435 101V102C435 110.284 441.716 117 450 117H451C452.105 117 453 116.105 453 115V111.721C453 111.29 452.725 110.908 452.316 110.772L447.823 109.274C447.351 109.117 446.835 109.331 446.612 109.776L445.484 112.033C443.039 110.931 441.069 108.961 439.967 106.516L442.224 105.388C442.669 105.165 442.883 104.649 442.726 104.177L441.228 99.6838C441.092 99.2754 440.71 99 440.279 99H437Z" stroke="#111827" stroke-width="2" stroke-linecap="round" stroke-linejoin="round"/>
<path d="M4 150H20M4 156H20M4 162H20" stroke="#111827" stroke-width="2" stroke-linecap="round" stroke-linejoin="round"/>
<path d="M52 150H68M52 156H60M52 162H68" stroke="#111827" stroke-width="2" stroke-linecap="round" stroke-linejoin="round"/>
<path d="M100 150H116M100 156H116M100 162H107" stroke="#111827" stroke-width="2" stroke-linecap="round" stroke-linejoin="round"/>
<path d="M148 150H164M148 156H164M157 162H164" stroke="#111827" stroke-width="2" stroke-linecap="round" stroke-linejoin="round"/>
<path d="M196 152H212M196 160H212" stroke="#111827" stroke-width="2" stroke-linecap="round" stroke-linejoin="round"/>
<path d="M247 160V148M247 148L243 152M247 148L251 152M257 152V164M257 164L261 160M257 164L253 160" stroke="#111827" stroke-width="2" stroke-linecap="round" stroke-linejoin="round"/>
<path d="M296 151L308 151M308 151L304 147M308 151L304 155M304 161L292 161M292 161L296 165M292 161L296 157" stroke="#111827" stroke-width="2" stroke-linecap="round" stroke-linejoin="round"/>
<path d="M342 162L354 150M342 150L354 162" stroke="#111827" stroke-width="2" stroke-linecap="round" stroke-linejoin="round"/>
<path d="M396 148V164M404 156L388 156" stroke="#111827" stroke-width="2" stroke-linecap="round" stroke-linejoin="round"/>
<path d="M436 148V153H436.582M451.938 155C451.446 151.054 448.08 148 444 148C440.643 148 437.768 150.068 436.582 153M436.582 153H441M452 164V159H451.418M451.418 159C450.232 161.932 447.357 164 444 164C439.92 164 436.554 160.946 436.062 157M451.418 159H447" stroke="#111827" stroke-width="2" stroke-linecap="round" stroke-linejoin="round"/>
<path d="M8.22766 201C8.77678 199.835 10.2584 199 12.0001 199C14.2092 199 16.0001 200.343 16.0001 202C16.0001 203.399 14.7224 204.575 12.9943 204.907C12.4519 205.011 12.0001 205.448 12.0001 206M12 209H12.01M21 204C21 208.971 16.9706 213 12 213C7.02944 213 3 208.971 3 204C3 199.029 7.02944 195 12 195C16.9706 195 21 199.029 21 204Z" stroke="#111827" stroke-width="2" stroke-linecap="round" stroke-linejoin="round"/>
<path d="M60 201V203M60 207H60.01M53.0718 211H66.9282C68.4678 211 69.4301 209.333 68.6603 208L61.7321 196C60.9623 194.667 59.0378 194.667 58.268 196L51.3398 208C50.57 209.333 51.5322 211 53.0718 211Z" stroke="#111827" stroke-width="2" stroke-linecap="round" stroke-linejoin="round"/>
<path d="M104 209C101.239 209 99 206.761 99 204C99 201.552 100.76 199.514 103.084 199.084C103.514 196.76 105.552 195 108 195C110.448 195 112.486 196.76 112.916 199.084C115.24 199.514 117 201.552 117 204C117 206.761 114.761 209 112 209M105 204L108 201M108 201L111 204M108 201V213" stroke="#111827" stroke-width="2" stroke-linecap="round" stroke-linejoin="round"/>
<path d="M152 208C149.239 208 147 205.761 147 203C147 200.552 148.76 198.514 151.084 198.084C151.514 195.76 153.552 194 156 194C158.448 194 160.486 195.76 160.916 198.084C163.24 198.514 165 200.552 165 203C165 205.761 162.761 208 160 208M153 211L156 214M156 214L159 211M156 214V202" stroke="#111827" stroke-width="2" stroke-linecap="round" stroke-linejoin="round"/>
<path d="M203 195.055C198.5 195.552 195 199.367 195 204C195 208.971 199.029 213 204 213C208.633 213 212.448 209.5 212.945 205H203V195.055Z" stroke="#111827" stroke-width="2" stroke-linecap="round" stroke-linejoin="round"/>
<path d="M212.488 201H207V195.512C209.557 196.416 211.584 198.443 212.488 201Z" stroke="#111827" stroke-width="2" stroke-linecap="round" stroke-linejoin="round"/>
<path d="M247 213H257C258.105 213 259 212.105 259 211V201.414C259 201.149 258.895 200.895 258.707 200.707L253.293 195.293C253.105 195.105 252.851 195 252.586 195H247C245.895 195 245 195.895 245 197V211C245 212.105 245.895 213 247 213Z" stroke="#111827" stroke-width="2" stroke-linecap="round" stroke-linejoin="round"/>
<path d="M300 202V208M300 208L297 205M300 208L303 205M305 213H295C293.895 213 293 212.105 293 211V197C293 195.895 293.895 195 295 195H300.586C300.851 195 301.105 195.105 301.293 195.293L306.707 200.707C306.895 200.895 307 201.149 307 201.414V211C307 212.105 306.105 213 305 213Z" stroke="#111827" stroke-width="2" stroke-linecap="round" stroke-linejoin="round"/>
<path d="M345 205H351M348 202L348 208M353 213H343C341.895 213 341 212.105 341 211V197C341 195.895 341.895 195 343 195H348.586C348.851 195 349.105 195.105 349.293 195.293L354.707 200.707C354.895 200.895 355 201.149 355 201.414V211C355 212.105 354.105 213 353 213Z" stroke="#111827" stroke-width="2" stroke-linecap="round" stroke-linejoin="round"/>
<path d="M393 205H399M401 213H391C389.895 213 389 212.105 389 211V197C389 195.895 389.895 195 391 195H396.586C396.851 195 397.105 195.105 397.293 195.293L402.707 200.707C402.895 200.895 403 201.149 403 201.414V211C403 212.105 402.105 213 401 213Z" stroke="#111827" stroke-width="2" stroke-linecap="round" stroke-linejoin="round"/>
<path d="M440 199V195M448 199V195M439 203H449M437 213H451C452.105 213 453 212.105 453 211V199C453 197.895 452.105 197 451 197H437C435.895 197 435 197.895 435 199V211C435 212.105 435.895 213 437 213Z" stroke="#111827" stroke-width="2" stroke-linecap="round" stroke-linejoin="round"/>
<path d="M3 249C3 247.895 3.89543 247 5 247H5.92963C6.59834 247 7.2228 246.666 7.59373 246.109L8.40627 244.891C8.7772 244.334 9.40166 244 10.0704 244H13.9296C14.5983 244 15.2228 244.334 15.5937 244.891L16.4063 246.109C16.7772 246.666 17.4017 247 18.0704 247H19C20.1046 247 21 247.895 21 249V258C21 259.105 20.1046 260 19 260H5C3.89543 260 3 259.105 3 258V249Z" stroke="#111827" stroke-width="2" stroke-linecap="round" stroke-linejoin="round"/>
<path d="M15 253C15 254.657 13.6569 256 12 256C10.3431 256 9 254.657 9 253C9 251.343 10.3431 250 12 250C13.6569 250 15 251.343 15 253Z" stroke="#111827" stroke-width="2" stroke-linecap="round" stroke-linejoin="round"/>
<path d="M69 252C69 256.971 64.9706 261 60 261M69 252C69 247.029 64.9706 243 60 243M69 252H51M60 261C55.0294 261 51 256.971 51 252M60 261C61.6569 261 63 256.971 63 252C63 247.029 61.6569 243 60 243M60 261C58.3431 261 57 256.971 57 252C57 247.029 58.3431 243 60 243M51 252C51 247.029 55.0294 243 60 243" stroke="#111827" stroke-width="2" stroke-linecap="round" stroke-linejoin="round"/>
<path d="M104 256H102C100.895 256 100 255.105 100 254V246C100 244.895 100.895 244 102 244H110C111.105 244 112 244.895 112 246V248M106 260H114C115.105 260 116 259.105 116 258V250C116 248.895 115.105 248 114 248H106C104.895 248 104 248.895 104 250V258C104 259.105 104.895 260 106 260Z" stroke="#111827" stroke-width="2" stroke-linecap="round" stroke-linejoin="round"/>
<path d="M152.684 253.342C152.886 252.938 153 252.482 153 252C153 251.518 152.886 251.062 152.684 250.658M152.684 253.342C152.191 254.325 151.174 255 150 255C148.343 255 147 253.657 147 252C147 250.343 148.343 249 150 249C151.174 249 152.191 249.675 152.684 250.658M152.684 253.342L159.316 256.658M152.684 250.658L159.316 247.342M159.316 247.342C159.809 248.325 160.826 249 162 249C163.657 249 165 247.657 165 246C165 244.343 163.657 243 162 243C160.343 243 159 244.343 159 246C159 246.482 159.114 246.938 159.316 247.342ZM159.316 256.658C159.114 257.062 159 257.518 159 258C159 259.657 160.343 261 162 261C163.657 261 165 259.657 165 258C165 256.343 163.657 255 162 255C160.826 255 159.809 255.675 159.316 256.658Z" stroke="#111827" stroke-width="2" stroke-linecap="round" stroke-linejoin="round"/>
<path d="M196.318 246.318C194.561 248.075 194.561 250.925 196.318 252.682L204 260.364L211.682 252.682C213.439 250.925 213.439 248.075 211.682 246.318C209.925 244.561 207.075 244.561 205.318 246.318L204 247.636L202.682 246.318C200.925 244.561 198.075 244.561 196.318 246.318Z" stroke="#111827" stroke-width="2" stroke-linecap="round" stroke-linejoin="round"/>
<path d="M243.055 251H245C246.105 251 247 251.895 247 253V254C247 255.105 247.895 256 249 256C250.105 256 251 256.895 251 258V260.945M248 243.936V245.5C248 246.881 249.119 248 250.5 248H251C252.105 248 253 248.895 253 250C253 251.105 253.895 252 255 252C256.105 252 257 251.105 257 250C257 248.895 257.895 248 259 248L260.064 248M255 260.488V258C255 256.895 255.895 256 257 256H260.064M261 252C261 256.971 256.971 261 252 261C247.029 261 243 256.971 243 252C243 247.029 247.029 243 252 243C256.971 243 261 247.029 261 252Z" stroke="#111827" stroke-width="2" stroke-linecap="round" stroke-linejoin="round"/>
<path d="M303.536 248.464C305.488 250.417 305.488 253.583 303.536 255.536M306.364 245.636C309.879 249.151 309.879 254.849 306.364 258.364M293.586 255H292C291.448 255 291 254.552 291 254V250C291 249.448 291.448 249 292 249H293.586L298.293 244.293C298.923 243.663 300 244.109 300 245V259C300 259.891 298.923 260.337 298.293 259.707L293.586 255Z" stroke="#111827" stroke-width="2" stroke-linecap="round" stroke-linejoin="round"/>
<path fill-rule="evenodd" clip-rule="evenodd" d="M341.586 255H340C339.448 255 339 254.552 339 254V250C339 249.448 339.448 249 340 249H341.586L346.293 244.293C346.923 243.663 348 244.109 348 245V259C348 259.891 346.923 260.337 346.293 259.707L341.586 255Z" stroke="#111827" stroke-width="2" stroke-linecap="round" stroke-linejoin="round"/>
<path d="M353 254L355 252M355 252L357 250M355 252L353 250M355 252L357 254" stroke="#111827" stroke-width="2" stroke-linecap="round" stroke-linejoin="round"/>
<path d="M396 246V244M396 246C394.895 246 394 246.895 394 248C394 249.105 394.895 250 396 250M396 246C397.105 246 398 246.895 398 248C398 249.105 397.105 250 396 250M390 258C391.105 258 392 257.105 392 256C392 254.895 391.105 254 390 254M390 258C388.895 258 388 257.105 388 256C388 254.895 388.895 254 390 254M390 258V260M390 254V244M396 250V260M402 258C403.105 258 404 257.105 404 256C404 254.895 403.105 254 402 254M402 258C400.895 258 400 257.105 400 256C400 254.895 400.895 254 402 254M402 258V260M402 254V244" stroke="#111827" stroke-width="2" stroke-linecap="round" stroke-linejoin="round"/>
<path d="M445.828 250.172C444.266 248.609 441.734 248.609 440.172 250.172L436.172 254.172C434.609 255.734 434.609 258.266 436.172 259.828C437.734 261.391 440.266 261.391 441.828 259.828L442.93 258.727M442.172 253.828C443.734 255.391 446.266 255.391 447.828 253.828L451.828 249.828C453.391 248.266 453.391 245.734 451.828 244.172C450.266 242.609 447.734 242.609 446.172 244.172L445.072 245.271" stroke="#111827" stroke-width="2" stroke-linecap="round" stroke-linejoin="round"/>
<path d="M3 307V298.07C3 297.402 3.3342 296.777 3.8906 296.406L10.8906 291.74C11.5624 291.292 12.4376 291.292 13.1094 291.74L20.1094 296.406C20.6658 296.777 21 297.402 21 298.07V307M3 307C3 308.105 3.89543 309 5 309H19C20.1046 309 21 308.105 21 307M3 307L9.75 302.5M21 307L14.25 302.5M3 298L9.75 302.5M21 298L14.25 302.5M14.25 302.5L13.1094 303.261C12.4376 303.708 11.5624 303.708 10.8906 303.261L9.75 302.5" stroke="#111827" stroke-width="2" stroke-linecap="round" stroke-linejoin="round"/>
<path d="M56 295V303C56 304.105 56.8954 305 58 305H64M56 295V293C56 291.895 56.8954 291 58 291H62.5858C62.851 291 63.1054 291.105 63.2929 291.293L67.7071 295.707C67.8946 295.895 68 296.149 68 296.414V303C68 304.105 67.1046 305 66 305H64M56 295H54C52.8954 295 52 295.895 52 297V307C52 308.105 52.8954 309 54 309H62C63.1046 309 64 308.105 64 307V305" stroke="#111827" stroke-width="2" stroke-linecap="round" stroke-linejoin="round"/>
<path d="M99 298H117M103 303H104M108 303H109M102 307H114C115.657 307 117 305.657 117 304V296C117 294.343 115.657 293 114 293H102C100.343 293 99 294.343 99 296V304C99 305.657 100.343 307 102 307Z" stroke="#111827" stroke-width="2" stroke-linecap="round" stroke-linejoin="round"/>
<path d="M156 303V305M150 309H162C163.105 309 164 308.105 164 307V301C164 299.895 163.105 299 162 299H150C148.895 299 148 299.895 148 301V307C148 308.105 148.895 309 150 309ZM160 299V295C160 292.791 158.209 291 156 291C153.791 291 152 292.791 152 295V299H160Z" stroke="#111827" stroke-width="2" stroke-linecap="round"/>
<path d="M205 295H213M213 295V303M213 295L205 303L201 299L195 305" stroke="#111827" stroke-width="2" stroke-linecap="round" stroke-linejoin="round"/>
<path d="M253 305H261M261 305V297M261 305L253 297L249 301L243 295" stroke="#111827" stroke-width="2" stroke-linecap="round" stroke-linejoin="round"/>
<path d="M291 292C291 291.448 291.448 291 292 291H308C308.552 291 309 291.448 309 292V294.586C309 294.851 308.895 295.105 308.707 295.293L302.293 301.707C302.105 301.895 302 302.149 302 302.414V305L298 309V302.414C298 302.149 297.895 301.895 297.707 301.707L291.293 295.293C291.105 295.105 291 294.851 291 294.586V292Z" stroke="#111827" stroke-width="2" stroke-linecap="round" stroke-linejoin="round"/>
<path d="M352 300C352 297.791 350.209 296 348 296C345.791 296 344 297.791 344 300C344 302.209 345.791 304 348 304C350.209 304 352 302.209 352 300ZM352 300V301.5C352 302.881 353.119 304 354.5 304C355.881 304 357 302.881 357 301.5V300C357 295.029 352.971 291 348 291C343.029 291 339 295.029 339 300C339 304.971 343.029 309 348 309M352.5 307.794C351.08 308.614 349.53 309.003 348 309.001" stroke="#111827" stroke-width="2" stroke-linecap="round" stroke-linejoin="round"/>
<path d="M403 295L402.133 307.142C402.058 308.189 401.187 309 400.138 309H391.862C390.813 309 389.942 308.189 389.867 307.142L389 295M394 299V305M398 299V305M399 295V292C399 291.448 398.552 291 398 291H394C393.448 291 393 291.448 393 292V295M388 295H404" stroke="#111827" stroke-width="2" stroke-linecap="round" stroke-linejoin="round"/>
<path d="M445 304H444V300H443M444 296H444.01M453 300C453 304.971 448.971 309 444 309C439.029 309 435 304.971 435 300C435 295.029 439.029 291 444 291C448.971 291 453 295.029 453 300Z" stroke="#111827" stroke-width="2" stroke-linecap="round" stroke-linejoin="round"/>
<path d="M5 346L12 339M12 339L19 346M12 339V357" stroke="#111827" stroke-width="2" stroke-linecap="round" stroke-linejoin="round"/>
<path d="M62 341L69 348M69 348L62 355M69 348L51 348" stroke="#111827" stroke-width="2" stroke-linecap="round" stroke-linejoin="round"/>
<path d="M115 350L108 357M108 357L101 350M108 357L108 339" stroke="#111827" stroke-width="2" stroke-linecap="round" stroke-linejoin="round"/>
<path d="M154 355L147 348M147 348L154 341M147 348L165 348" stroke="#111827" stroke-width="2" stroke-linecap="round" stroke-linejoin="round"/>
<path d="M205 345L208 348M208 348L205 351M208 348L200 348M213 348C213 352.971 208.971 357 204 357C199.029 357 195 352.971 195 348C195 343.029 199.029 339 204 339C208.971 339 213 343.029 213 348Z" stroke="#111827" stroke-width="2" stroke-linecap="round" stroke-linejoin="round"/>
<path d="M255 349L252 352M252 352L249 349M252 352L252 344M252 357C247.029 357 243 352.971 243 348C243 343.029 247.029 339 252 339C256.971 339 261 343.029 261 348C261 352.971 256.971 357 252 357Z" stroke="#111827" stroke-width="2" stroke-linecap="round" stroke-linejoin="round"/>
<path d="M299 351L296 348M296 348L299 345M296 348L304 348M291 348C291 343.029 295.029 339 300 339C304.971 339 309 343.029 309 348C309 352.971 304.971 357 300 357C295.029 357 291 352.971 291 348Z" stroke="#111827" stroke-width="2" stroke-linecap="round" stroke-linejoin="round"/>
<path d="M345 347L348 344M348 344L351 347M348 344L348 352M348 339C352.971 339 357 343.029 357 348C357 352.971 352.971 357 348 357C343.029 357 339 352.971 339 348C339 343.029 343.029 339 348 339Z" stroke="#111827" stroke-width="2" stroke-linecap="round" stroke-linejoin="round"/>
<path d="M387 340H400M387 344H396M387 348H393M397 348L401 344M401 344L405 348M401 344V356" stroke="#111827" stroke-width="2" stroke-linecap="round" stroke-linejoin="round"/>
<path d="M435 340H448M435 344H444M435 348H444M449 344V356M449 356L445 352M449 356L453 352" stroke="#111827" stroke-width="2" stroke-linecap="round" stroke-linejoin="round"/>
<path d="M10 398L12 396M12 396L14 394M12 396L10 394M12 396L14 398M21 396C21 400.971 16.9706 405 12 405C7.02944 405 3 400.971 3 396C3 391.029 7.02944 387 12 387C16.9706 387 21 391.029 21 396Z" stroke="#111827" stroke-width="2" stroke-linecap="round" stroke-linejoin="round"/>
<path d="M57 396L59 398L63 394M69 396C69 400.971 64.9706 405 60 405C55.0294 405 51 400.971 51 396C51 391.029 55.0294 387 60 387C64.9706 387 69 391.029 69 396Z" stroke="#111827" stroke-width="2" stroke-linecap="round" stroke-linejoin="round"/>
<path d="M108 392V396M108 400H108.01M117 396C117 400.971 112.971 405 108 405C103.029 405 99 400.971 99 396C99 391.029 103.029 387 108 387C112.971 387 117 391.029 117 396Z" stroke="#111827" stroke-width="2" stroke-linecap="round" stroke-linejoin="round"/>
<path d="M156 393V396M156 396V399M156 396H159M156 396H153M165 396C165 400.971 160.971 405 156 405C151.029 405 147 400.971 147 396C147 391.029 151.029 387 156 387C160.971 387 165 391.029 165 396Z" stroke="#111827" stroke-width="2" stroke-linecap="round" stroke-linejoin="round"/>
<path d="M207 396H201M213 396C213 400.971 208.971 405 204 405C199.029 405 195 400.971 195 396C195 391.029 199.029 387 204 387C208.971 387 213 391.029 213 396Z" stroke="#111827" stroke-width="2" stroke-linecap="round" stroke-linejoin="round"/>
<path d="M245.121 401.804C247.153 400.655 249.5 400 252 400C254.5 400 256.847 400.655 258.879 401.804M255 394C255 395.657 253.657 397 252 397C250.343 397 249 395.657 249 394C249 392.343 250.343 391 252 391C253.657 391 255 392.343 255 394ZM261 396C261 400.971 256.971 405 252 405C247.029 405 243 400.971 243 396C243 391.029 247.029 387 252 387C256.971 387 261 391.029 261 396Z" stroke="#111827" stroke-width="2" stroke-linecap="round" stroke-linejoin="round"/>
<path d="M309 405L303 399M305 394C305 397.866 301.866 401 298 401C294.134 401 291 397.866 291 394C291 390.134 294.134 387 298 387C301.866 387 305 390.134 305 394Z" stroke="#111827" stroke-width="2" stroke-linecap="round" stroke-linejoin="round"/>
<path d="M298 391V394M298 394V397M298 394H301M298 394H295" stroke="#111827" stroke-width="2" stroke-linecap="round" stroke-linejoin="round"/>
<path d="M357 405L351 399M353 394C353 397.866 349.866 401 346 401C342.134 401 339 397.866 339 394C339 390.134 342.134 387 346 387C349.866 387 353 390.134 353 394Z" stroke="#111827" stroke-width="2" stroke-linecap="round" stroke-linejoin="round"/>
<path d="M349 394H343" stroke="#111827" stroke-width="2" stroke-linecap="round" stroke-linejoin="round"/>
<path d="M405 405L399 399M401 394C401 397.866 397.866 401 394 401C390.134 401 387 397.866 387 394C387 390.134 390.134 387 394 387C397.866 387 401 390.134 401 394Z" stroke="#111827" stroke-width="2" stroke-linecap="round" stroke-linejoin="round"/>
<path d="M450 393V396M450 396V399M450 396H453M450 396H447M445 391C445 393.209 443.209 395 441 395C438.791 395 437 393.209 437 391C437 388.791 438.791 387 441 387C443.209 387 445 388.791 445 391ZM435 404C435 400.686 437.686 398 441 398C444.314 398 447 400.686 447 404V405H435V404Z" stroke="#111827" stroke-width="2" stroke-linecap="round" stroke-linejoin="round"/>
<path d="M5 444H5.01M12 444H12.01M19 444H19.01M6 444C6 444.552 5.55228 445 5 445C4.44772 445 4 444.552 4 444C4 443.448 4.44772 443 5 443C5.55228 443 6 443.448 6 444ZM13 444C13 444.552 12.5523 445 12 445C11.4477 445 11 444.552 11 444C11 443.448 11.4477 443 12 443C12.5523 443 13 443.448 13 444ZM20 444C20 444.552 19.5523 445 19 445C18.4477 445 18 444.552 18 444C18 443.448 18.4477 443 19 443C19.5523 443 20 443.448 20 444Z" stroke="#111827" stroke-width="2" stroke-linecap="round" stroke-linejoin="round"/>
<path d="M60 437L60 437.01M60 444L60 444.01M60 451L60 451.01M60 438C59.4477 438 59 437.552 59 437C59 436.448 59.4477 436 60 436C60.5523 436 61 436.448 61 437C61 437.552 60.5523 438 60 438ZM60 445C59.4477 445 59 444.552 59 444C59 443.448 59.4477 443 60 443C60.5523 443 61 443.448 61 444C61 444.552 60.5523 445 60 445ZM60 452C59.4477 452 59 451.552 59 451C59 450.448 59.4477 450 60 450C60.5523 450 61 450.448 61 451C61 451.552 60.5523 452 60 452Z" stroke="#111827" stroke-width="2" stroke-linecap="round" stroke-linejoin="round"/>
<path d="M100 448L100 449C100 450.657 101.343 452 103 452L113 452C114.657 452 116 450.657 116 449L116 448M112 440L108 436M108 436L104 440M108 436L108 448" stroke="#111827" stroke-width="2" stroke-linecap="round" stroke-linejoin="round"/>
<path d="M148 448L148 449C148 450.657 149.343 452 151 452L161 452C162.657 452 164 450.657 164 449L164 448M160 444L156 448M156 448L152 444M156 448L156 436" stroke="#111827" stroke-width="2" stroke-linecap="round" stroke-linejoin="round"/>
<path d="M196 438H212M196 442H212M196 446H212M196 450H212" stroke="#111827" stroke-width="2" stroke-linecap="round" stroke-linejoin="round"/>
<path d="M249 449V439M249 449C249 450.105 248.105 451 247 451H245C243.895 451 243 450.105 243 449V439C243 437.895 243.895 437 245 437H247C248.105 437 249 437.895 249 439M249 449C249 450.105 249.895 451 251 451H253C254.105 451 255 450.105 255 449M249 439C249 437.895 249.895 437 251 437H253C254.105 437 255 437.895 255 439M255 449V439M255 449C255 450.105 255.895 451 257 451H259C260.105 451 261 450.105 261 449V439C261 437.895 260.105 437 259 437H257C255.895 437 255 437.895 255 439" stroke="#111827" stroke-width="2" stroke-linecap="round" stroke-linejoin="round"/>
<path d="M303.172 439L296.586 445.586C295.805 446.367 295.805 447.633 296.586 448.414C297.367 449.195 298.633 449.195 299.414 448.414L305.828 441.828C307.391 440.266 307.391 437.734 305.828 436.172C304.266 434.609 301.734 434.609 300.172 436.172L293.757 442.757C291.414 445.101 291.414 448.899 293.757 451.243C296.101 453.586 299.899 453.586 302.243 451.243L308.5 445" stroke="#111827" stroke-width="2" stroke-linecap="round" stroke-linejoin="round"/>
<path d="M345.172 446.828C346.734 448.391 349.266 448.391 350.828 446.828M351 442H350.99M345 442H344.99M339 444C339 448.971 343.029 453 348 453C352.971 453 357 448.971 357 444C357 439.029 352.971 435 348 435C343.029 435 339 439.029 339 444Z" stroke="#111827" stroke-width="2" stroke-linecap="round" stroke-linejoin="round"/>
<path d="M398.828 448.172C397.266 446.61 394.734 446.61 393.172 448.172M399 442H398.99M393 442H392.99M387 444C387 448.971 391.029 453 396 453C400.971 453 405 448.971 405 444C405 439.029 400.971 435 396 435C391.029 435 387 439.029 387 444Z" stroke="#111827" stroke-width="2" stroke-linecap="round" stroke-linejoin="round"/>
<path d="M449 449H451C452.105 449 453 448.105 453 447V443C453 441.895 452.105 441 451 441H437C435.895 441 435 441.895 435 443V447C435 448.105 435.895 449 437 449H439M441 453H447C448.105 453 449 452.105 449 451V447C449 445.895 448.105 445 447 445H441C439.895 445 439 445.895 439 447V451C439 452.105 439.895 453 441 453ZM449 441V437C449 435.895 448.105 435 447 435H441C439.895 435 439 435.895 439 437V441H449Z" stroke="#111827" stroke-width="2" stroke-linecap="round" stroke-linejoin="round"/>
<path d="M13.8434 489.655C14.2053 490.073 14.8369 490.117 15.254 489.755C15.6712 489.393 15.7159 488.762 15.354 488.345L13.8434 489.655ZM10.1567 494.345C9.79471 493.927 9.16313 493.883 8.74599 494.245C8.32885 494.607 8.28411 495.238 8.64607 495.655L10.1567 494.345ZM13 487C13 486.448 12.5523 486 12 486C11.4477 486 11 486.448 11 487H13ZM11 497C11 497.552 11.4477 498 12 498C12.5523 498 13 497.552 13 497L11 497ZM20 492C20 496.418 16.4183 500 12 500V502C17.5228 502 22 497.523 22 492H20ZM12 500C7.58172 500 4 496.418 4 492H2C2 497.523 6.47715 502 12 502V500ZM4 492C4 487.582 7.58172 484 12 484V482C6.47715 482 2 486.477 2 492H4ZM12 484C16.4183 484 20 487.582 20 492H22C22 486.477 17.5228 482 12 482V484ZM12 491C11.3415 491 10.7905 490.82 10.4334 490.582C10.0693 490.339 10 490.114 10 490H8C8 490.991 8.6023 491.765 9.32398 492.246C10.0526 492.732 11.0017 493 12 493V491ZM10 490C10 489.886 10.0693 489.661 10.4334 489.418C10.7905 489.18 11.3415 489 12 489V487C11.0017 487 10.0526 487.268 9.32398 487.754C8.6023 488.235 8 489.009 8 490H10ZM12 489C12.9038 489 13.563 489.332 13.8434 489.655L15.354 488.345C14.5969 487.472 13.3171 487 12 487V489ZM12 493C12.6585 493 13.2095 493.18 13.5666 493.418C13.9308 493.661 14 493.886 14 494H16C16 493.009 15.3977 492.235 14.676 491.754C13.9474 491.268 12.9983 491 12 491V493ZM11 487V488H13V487H11ZM11 496L11 497L13 497L13 496L11 496ZM12 495C11.0962 495 10.437 494.668 10.1567 494.345L8.64607 495.655C9.40317 496.528 10.683 497 12 497L12 495ZM14 494C14 494.114 13.9308 494.339 13.5666 494.582C13.2095 494.82 12.6586 495 12 495V497C12.9983 497 13.9474 496.732 14.676 496.246C15.3977 495.765 16 494.991 16 494H14ZM11 488L11 496L13 496L13 488L11 488Z" fill="#111827"/>
<path d="M57 488L60 493M60 493L63 488M60 493V497M57 492H63M57 495H63M69 492C69 496.971 64.9706 501 60 501C55.0294 501 51 496.971 51 492C51 487.029 55.0294 483 60 483C64.9706 483 69 487.029 69 492Z" stroke="#111827" stroke-width="2" stroke-linecap="round" stroke-linejoin="round"/>
<path d="M110.121 495.536C108.95 497.488 107.05 497.488 105.879 495.536C104.707 493.583 104.707 490.417 105.879 488.464C107.05 486.512 108.95 486.512 110.121 488.464M104 490.5H108M104 493.5H108M117 492C117 496.971 112.971 501 108 501C103.029 501 99 496.971 99 492C99 487.029 103.029 483 108 483C112.971 483 117 487.029 117 492Z" stroke="#111827" stroke-width="2" stroke-linecap="round" stroke-linejoin="round"/>
<path d="M159 489C159 487.895 158.105 487 157 487C155.895 487 155 487.895 155 489V494C155 495.105 154.105 496 153 496H159M153 492H157M165 492C165 496.971 160.971 501 156 501C151.029 501 147 496.971 147 492C147 487.029 151.029 483 156 483C160.971 483 165 487.029 165 492Z" stroke="#111827" stroke-width="2" stroke-linecap="round" stroke-linejoin="round"/>
<path d="M201 488H207M202 488C203.657 488 205 489.343 205 491C205 492.657 203.657 494 202 494H201L204 497M201 491H207M213 492C213 496.971 208.971 501 204 501C199.029 501 195 496.971 195 492C195 487.029 199.029 483 204 483C208.971 483 213 487.029 213 492Z" stroke="#111827" stroke-width="2" stroke-linecap="round" stroke-linejoin="round"/>
<path d="M259 489L252 496L245 489" stroke="#111827" stroke-width="2" stroke-linecap="round" stroke-linejoin="round"/>
<path d="M297 485L304 492L297 499" stroke="#111827" stroke-width="2" stroke-linecap="round" stroke-linejoin="round"/>
<path d="M341 495L348 488L355 495" stroke="#111827" stroke-width="2" stroke-linecap="round" stroke-linejoin="round"/>
<path d="M399 499L392 492L399 485" stroke="#111827" stroke-width="2" stroke-linecap="round" stroke-linejoin="round"/>
<path d="M440 489L444 485L448 489M448 495L444 499L440 495" stroke="#111827" stroke-width="2" stroke-linecap="round" stroke-linejoin="round"/>
<path d="M8 540H8.01M12 540H12.01M16 540H16.01M21 540C21 544.418 16.9706 548 12 548C10.4607 548 9.01172 547.657 7.74467 547.051L3 548L4.39499 544.28C3.51156 543.042 3 541.574 3 540C3 535.582 7.02944 532 12 532C16.9706 532 21 535.582 21 540Z" stroke="#111827" stroke-width="2" stroke-linecap="round" stroke-linejoin="round"/>
<path d="M64 543V542C64 539.791 62.2091 538 60 538H56M56 538L59 541M56 538L59 535M68 549V533C68 531.895 67.1046 531 66 531H54C52.8954 531 52 531.895 52 533V549L56 547L60 549L64 547L68 549Z" stroke="#111827" stroke-width="2" stroke-linecap="round" stroke-linejoin="round"/>
<path d="M117 538V539C117.552 539 118 538.552 118 538H117ZM117 542H118C118 541.448 117.552 541 117 541V542ZM99 542V541C98.4477 541 98 541.448 98 542H99ZM99 538H98C98 538.552 98.4477 539 99 539V538ZM101 532C99.3431 532 98 533.343 98 535H100C100 534.448 100.448 534 101 534V532ZM115 532H101V534H115V532ZM118 535C118 533.343 116.657 532 115 532V534C115.552 534 116 534.448 116 535H118ZM118 538V535H116V538H118ZM116 540C116 539.448 116.448 539 117 539V537C115.343 537 114 538.343 114 540H116ZM117 541C116.448 541 116 540.552 116 540H114C114 541.657 115.343 543 117 543V541ZM118 545V542H116V545H118ZM115 548C116.657 548 118 546.657 118 545H116C116 545.552 115.552 546 115 546V548ZM101 548H115V546H101V548ZM98 545C98 546.657 99.3431 548 101 548V546C100.448 546 100 545.552 100 545H98ZM98 542V545H100V542H98ZM100 540C100 540.552 99.5523 541 99 541V543C100.657 543 102 541.657 102 540H100ZM99 539C99.5523 539 100 539.448 100 540H102C102 538.343 100.657 537 99 537V539ZM98 535V538H100V535H98Z" fill="#111827"/>
<path d="M111 533V535" stroke="#111827" stroke-width="2" stroke-linecap="round"/>
<path d="M111 539V541" stroke="#111827" stroke-width="2" stroke-linecap="round" stroke-linejoin="round"/>
<path d="M111 545V547" stroke="#111827" stroke-width="2" stroke-linecap="round" stroke-linejoin="round"/>
<path d="M152 539V535C152 532.791 153.791 531 156 531C158.209 531 160 532.791 160 535M156 543V545M150 549H162C163.105 549 164 548.105 164 547V541C164 539.895 163.105 539 162 539H150C148.895 539 148 539.895 148 541V547C148 548.105 148.895 549 150 549Z" stroke="#111827" stroke-width="2" stroke-linecap="round"/>
<path d="M200 540H200.01M204 540H204.01M208 540H208.01M213 540C213 544.971 208.971 549 204 549C199.029 549 195 544.971 195 540C195 535.029 199.029 531 204 531C208.971 531 213 535.029 213 540Z" stroke="#111827" stroke-width="2" stroke-linecap="round" stroke-linejoin="round"/>
<path d="M247 548L251 532M253 548L257 532M246 537H260M244 543H258" stroke="#111827" stroke-width="2" stroke-linecap="round" stroke-linejoin="round"/>
<path d="M301 532C301 531.448 300.552 531 300 531C299.448 531 299 531.448 299 532H301ZM299 533C299 533.552 299.448 534 300 534C300.552 534 301 533.552 301 533H299ZM306 543C305.448 543 305 543.448 305 544C305 544.552 305.448 545 306 545V543ZM308 545C308.552 545 309 544.552 309 544C309 543.448 308.552 543 308 543V545ZM300 544V543C299.448 543 299 543.448 299 544H300ZM302 545C302.552 545 303 544.552 303 544C303 543.448 302.552 543 302 543V545ZM299 548C299 548.552 299.448 549 300 549C300.552 549 301 548.552 301 548H299ZM301 537C301 536.448 300.552 536 300 536C299.448 536 299 536.448 299 537H301ZM300 540H299C299 540.552 299.448 541 300 541V540ZM304 547C303.448 547 303 547.448 303 548C303 548.552 303.448 549 304 549V547ZM308 549C308.552 549 309 548.552 309 548C309 547.448 308.552 547 308 547V549ZM292 539C291.448 539 291 539.448 291 540C291 540.552 291.448 541 292 541V539ZM296 541C296.552 541 297 540.552 297 540C297 539.448 296.552 539 296 539V541ZM300.01 541C300.562 541 301.01 540.552 301.01 540C301.01 539.448 300.562 539 300.01 539V541ZM304.01 541C304.562 541 305.01 540.552 305.01 540C305.01 539.448 304.562 539 304.01 539V541ZM308 539C307.448 539 307 539.448 307 540C307 540.552 307.448 541 308 541V539ZM308.01 541C308.562 541 309.01 540.552 309.01 540C309.01 539.448 308.562 539 308.01 539V541ZM293 533H295V531H293V533ZM295 533V535H297V533H295ZM295 535H293V537H295V535ZM293 535V533H291V535H293ZM293 535H291C291 536.105 291.895 537 293 537V535ZM295 535V537C296.105 537 297 536.105 297 535H295ZM295 533H297C297 531.895 296.105 531 295 531V533ZM293 531C291.895 531 291 531.895 291 533H293V531ZM305 533H307V531H305V533ZM307 533V535H309V533H307ZM307 535H305V537H307V535ZM305 535V533H303V535H305ZM305 535H303C303 536.105 303.895 537 305 537V535ZM307 535V537C308.105 537 309 536.105 309 535H307ZM307 533H309C309 531.895 308.105 531 307 531V533ZM305 531C303.895 531 303 531.895 303 533H305V531ZM293 545H295V543H293V545ZM295 545V547H297V545H295ZM295 547H293V549H295V547ZM293 547V545H291V547H293ZM293 547H291C291 548.105 291.895 549 293 549V547ZM295 547V549C296.105 549 297 548.105 297 547H295ZM295 545H297C297 543.895 296.105 543 295 543V545ZM293 543C291.895 543 291 543.895 291 545H293V543ZM299 532V533H301V532H299ZM306 545H308V543H306V545ZM300 545H302V543H300V545ZM299 544V548H301V544H299ZM299 537V540H301V537H299ZM304 549H308V547H304V549ZM292 541H296V539H292V541ZM300 541H300.01V539H300V541ZM308 541H308.01V539H308V541ZM300 541H304.01V539H300V541Z" fill="#111827"/>
<path d="M345.707 541.293C345.317 540.902 344.683 540.902 344.293 541.293C343.902 541.683 343.902 542.317 344.293 542.707L345.707 541.293ZM347 544L346.293 544.707C346.683 545.098 347.317 545.098 347.707 544.707L347 544ZM351.707 540.707C352.098 540.317 352.098 539.683 351.707 539.293C351.317 538.902 350.683 538.902 350.293 539.293L351.707 540.707ZM354 535V547H356V535H354ZM353 548H343V550H353V548ZM342 547V535H340V547H342ZM343 534H345V532H343V534ZM351 534H353V532H351V534ZM343 548C342.448 548 342 547.552 342 547H340C340 548.657 341.343 550 343 550V548ZM354 547C354 547.552 353.552 548 353 548V550C354.657 550 356 548.657 356 547H354ZM356 535C356 533.343 354.657 532 353 532V534C353.552 534 354 534.448 354 535H356ZM342 535C342 534.448 342.448 534 343 534V532C341.343 532 340 533.343 340 535H342ZM344.293 542.707L346.293 544.707L347.707 543.293L345.707 541.293L344.293 542.707ZM347.707 544.707L351.707 540.707L350.293 539.293L346.293 543.293L347.707 544.707ZM347 532H349V530H347V532ZM349 534H347V536H349V534ZM347 534C346.448 534 346 533.552 346 533H344C344 534.657 345.343 536 347 536V534ZM350 533C350 533.552 349.552 534 349 534V536C350.657 536 352 534.657 352 533H350ZM349 532C349.552 532 350 532.448 350 533H352C352 531.343 350.657 530 349 530V532ZM347 530C345.343 530 344 531.343 344 533H346C346 532.448 346.448 532 347 532V530Z" fill="#111827"/>
<path d="M393 533H391C389.895 533 389 533.895 389 535V547C389 548.105 389.895 549 391 549H401C402.105 549 403 548.105 403 547V535C403 533.895 402.105 533 401 533H399M393 533C393 534.105 393.895 535 395 535H397C398.105 535 399 534.105 399 533M393 533C393 531.895 393.895 531 395 531H397C398.105 531 399 531.895 399 533M396 540H399M396 544H399M393 540H393.01M393 544H393.01" stroke="#111827" stroke-width="2" stroke-linecap="round"/>
<path d="M441 533H439C437.895 533 437 533.895 437 535V547C437 548.105 437.895 549 439 549H449C450.105 549 451 548.105 451 547V535C451 533.895 450.105 533 449 533H447M441 533C441 534.105 441.895 535 443 535H445C446.105 535 447 534.105 447 533M441 533C441 531.895 441.895 531 443 531H445C446.105 531 447 531.895 447 533" stroke="#111827" stroke-width="2" stroke-linecap="round"/>
<path d="M10 582H6C4.89543 582 4 582.895 4 584V594C4 595.105 4.89543 596 6 596H16C17.1046 596 18 595.105 18 594V590M14 580H20M20 580V586M20 580L10 590" stroke="#111827" stroke-width="2" stroke-linecap="round" stroke-linejoin="round"/>
<path d="M60 579V580M60 596V597M69 588H68M52 588H51M66.364 594.364L65.6569 593.657M54.3431 582.343L53.636 581.636M66.364 581.636L65.6569 582.343M54.3432 593.657L53.6361 594.364M64 588C64 590.209 62.2091 592 60 592C57.7909 592 56 590.209 56 588C56 585.791 57.7909 584 60 584C62.2091 584 64 585.791 64 588Z" stroke="#111827" stroke-width="2" stroke-linecap="round" stroke-linejoin="round"/>
<path d="M116.354 591.354L117.282 591.727C117.431 591.356 117.345 590.931 117.061 590.647C116.778 590.364 116.353 590.277 115.981 590.426L116.354 591.354ZM104.646 579.646L105.574 580.019C105.723 579.647 105.636 579.222 105.353 578.939C105.07 578.656 104.645 578.569 104.273 578.718L104.646 579.646ZM115.981 590.426C115.061 590.796 114.056 591 113 591V593C114.315 593 115.574 592.746 116.727 592.282L115.981 590.426ZM113 591C108.582 591 105 587.418 105 583H103C103 588.523 107.477 593 113 593V591ZM105 583C105 581.945 105.204 580.939 105.574 580.019L103.718 579.273C103.255 580.426 103 581.685 103 583H105ZM100 588C100 584.637 102.075 581.757 105.019 580.574L104.273 578.718C100.598 580.195 98 583.793 98 588H100ZM108 596C103.582 596 100 592.418 100 588H98C98 593.523 102.477 598 108 598V596ZM115.426 590.981C114.243 593.925 111.363 596 108 596V598C112.207 598 115.805 595.402 117.282 591.727L115.426 590.981Z" fill="#111827"/>
<path d="M152 581H150C148.895 581 148 581.895 148 583V595C148 596.105 148.895 597 150 597H160C161.105 597 162 596.105 162 595V594M152 581C152 582.105 152.895 583 154 583H156C157.105 583 158 582.105 158 581M152 581C152 579.895 152.895 579 154 579H156C157.105 579 158 579.895 158 581M158 581H160C161.105 581 162 581.895 162 583V586M164 590H154M154 590L157 587M154 590L157 593" stroke="#111827" stroke-width="2" stroke-linecap="round" stroke-linejoin="round"/>
<path d="M199 584H209M199 588H203M204 596L200 592H197C195.895 592 195 591.105 195 590V582C195 580.895 195.895 580 197 580H211C212.105 580 213 580.895 213 582V590C213 591.105 212.105 592 211 592H208L204 596Z" stroke="#111827" stroke-width="2" stroke-linecap="round" stroke-linejoin="round"/>
<path d="M243 597V593M243 593V581C243 579.895 243.895 579 245 579H251.5L252.5 580H261L258 586L261 592H252.5L251.5 591H245C243.895 591 243 591.895 243 593ZM252 579.5V585" stroke="#111827" stroke-width="2" stroke-linecap="round" stroke-linejoin="round"/>
<path d="M307 587H293M307 587C308.105 587 309 587.895 309 589V595C309 596.105 308.105 597 307 597H293C291.895 597 291 596.105 291 595V589C291 587.895 291.895 587 293 587M307 587V585C307 583.895 306.105 583 305 583M293 587V585C293 583.895 293.895 583 295 583M295 583V581C295 579.895 295.895 579 297 579H303C304.105 579 305 579.895 305 581V583M295 583H305" stroke="#111827" stroke-width="2" stroke-linecap="round" stroke-linejoin="round"/>
<path d="M348 582.253V595.253M348 582.253C346.832 581.477 345.246 581 343.5 581C341.754 581 340.168 581.477 339 582.253V595.253C340.168 594.477 341.754 594 343.5 594C345.246 594 346.832 594.477 348 595.253M348 582.253C349.168 581.477 350.754 581 352.5 581C354.246 581 355.832 581.477 357 582.253V595.253C355.832 594.477 354.246 594 352.5 594C350.754 594 349.168 594.477 348 595.253" stroke="#111827" stroke-width="2" stroke-linecap="round" stroke-linejoin="round"/>
<path d="M394 596L398 580M402 584L406 588L402 592M390 592L386 588L390 584" stroke="#111827" stroke-width="2" stroke-linecap="round" stroke-linejoin="round"/>
<path d="M445 586V579L436 590H443L443 597L452 586L445 586Z" stroke="#111827" stroke-width="2" stroke-linecap="round" stroke-linejoin="round"/>
<path d="M3 631V641C3 642.105 3.89543 643 5 643H19C20.1046 643 21 642.105 21 641V633C21 631.895 20.1046 631 19 631H13L11 629H5C3.89543 629 3 629.895 3 631Z" stroke="#111827" stroke-width="2" stroke-linecap="round" stroke-linejoin="round"/>
<path d="M53 627V631M51 629H55M54 641V645M52 643H56M61 627L63.2857 633.857L69 636L63.2857 638.143L61 645L58.7143 638.143L53 636L58.7143 633.857L61 627Z" stroke="#111827" stroke-width="2" stroke-linecap="round" stroke-linejoin="round"/>
<path d="M109 631C109 633.209 107.209 635 105 635C102.791 635 101 633.209 101 631C101 628.791 102.791 627 105 627C107.209 627 109 628.791 109 631Z" stroke="#111827" stroke-width="2" stroke-linecap="round" stroke-linejoin="round"/>
<path d="M105 638C101.686 638 99 640.686 99 644V645H111V644C111 640.686 108.314 638 105 638Z" stroke="#111827" stroke-width="2" stroke-linecap="round" stroke-linejoin="round"/>
<path d="M117 636L111 636" stroke="#111827" stroke-width="2" stroke-linecap="round" stroke-linejoin="round"/>
<path d="M152 631L156 627M156 627L160 631M156 627V645" stroke="#111827" stroke-width="2" stroke-linecap="round" stroke-linejoin="round"/>
<path d="M209 632L213 636M213 636L209 640M213 636L195 636" stroke="#111827" stroke-width="2" stroke-linecap="round" stroke-linejoin="round"/>
<path d="M256 641L252 645M252 645L248 641M252 645L252 627" stroke="#111827" stroke-width="2" stroke-linecap="round" stroke-linejoin="round"/>
<path d="M295 640L291 636M291 636L295 632M291 636L309 636" stroke="#111827" stroke-width="2" stroke-linecap="round" stroke-linejoin="round"/>
<path d="M340 629C340 628.448 340.448 628 341 628H355C355.552 628 356 628.448 356 629V631C356 631.552 355.552 632 355 632H341C340.448 632 340 631.552 340 631V629Z" stroke="#111827" stroke-width="2" stroke-linecap="round" stroke-linejoin="round"/>
<path d="M340 637C340 636.448 340.448 636 341 636H347C347.552 636 348 636.448 348 637V643C348 643.552 347.552 644 347 644H341C340.448 644 340 643.552 340 643V637Z" stroke="#111827" stroke-width="2" stroke-linecap="round" stroke-linejoin="round"/>
<path d="M352 637C352 636.448 352.448 636 353 636H355C355.552 636 356 636.448 356 637V643C356 643.552 355.552 644 355 644H353C352.448 644 352 643.552 352 643V637Z" stroke="#111827" stroke-width="2" stroke-linecap="round" stroke-linejoin="round"/>
<path d="M387 634H397C401.418 634 405 637.582 405 642V644M387 634L393 640M387 634L393 628" stroke="#111827" stroke-width="2" stroke-linecap="round" stroke-linejoin="round"/>
<path d="M441.664 641H446.336M444 627V628M450.364 629.636L449.657 630.343M453 636H452M436 636H435M438.343 630.343L437.636 629.636M440.464 639.536C438.512 637.583 438.512 634.417 440.464 632.464C442.417 630.512 445.583 630.512 447.536 632.464C449.488 634.417 449.488 637.583 447.536 639.536L446.988 640.083C446.356 640.716 446 641.574 446 642.469V643C446 644.105 445.105 645 444 645C442.895 645 442 644.105 442 643V642.469C442 641.574 441.644 640.716 441.012 640.083L440.464 639.536Z" stroke="#111827" stroke-width="2" stroke-linecap="round" stroke-linejoin="round"/>
<path d="M8 682H8.01M12 682H12.01M16 682H16.01M9 688H5C3.89543 688 3 687.105 3 686V678C3 676.895 3.89543 676 5 676H19C20.1046 676 21 676.895 21 678V686C21 687.105 20.1046 688 19 688H14L9 693V688Z" stroke="#111827" stroke-width="2" stroke-linecap="round" stroke-linejoin="round"/>
<path d="M57 689V687M60 689V685M63 689V683M65 693H55C53.8954 693 53 692.105 53 691V677C53 675.895 53.8954 675 55 675H60.5858C60.851 675 61.1054 675.105 61.2929 675.293L66.7071 680.707C66.8946 680.895 67 681.149 67 681.414V691C67 692.105 66.1046 693 65 693Z" stroke="#111827" stroke-width="2" stroke-linecap="round" stroke-linejoin="round"/>
<path d="M107 688L103 684M103 684L107 680M103 684L117 684M112 688V689C112 690.657 110.657 692 109 692H102C100.343 692 99 690.657 99 689V679C99 677.343 100.343 676 102 676H109C110.657 676 112 677.343 112 679V680" stroke="#111827" stroke-width="2" stroke-linecap="round" stroke-linejoin="round"/>
<path d="M159 679C160.105 679 161 679.895 161 681M165 681C165 684.314 162.314 687 159 687C158.394 687 157.809 686.91 157.257 686.743L155 689H153V691H151V693H148C147.448 693 147 692.552 147 692V689.414C147 689.149 147.105 688.895 147.293 688.707L153.257 682.743C153.09 682.191 153 681.606 153 681C153 677.686 155.686 675 159 675C162.314 675 165 677.686 165 681Z" stroke="#111827" stroke-width="2" stroke-linecap="round" stroke-linejoin="round"/>
<path d="M210.364 690.364C213.879 686.849 213.879 681.151 210.364 677.636C206.849 674.121 201.151 674.121 197.636 677.636M210.364 690.364C206.849 693.879 201.151 693.879 197.636 690.364C194.121 686.849 194.121 681.151 197.636 677.636M210.364 690.364L197.636 677.636" stroke="#111827" stroke-width="2" stroke-linecap="round" stroke-linejoin="round"/>
<path d="M243 675H245L245.4 677M247 685H257L261 677H245.4M247 685L245.4 677M247 685L244.707 687.293C244.077 687.923 244.523 689 245.414 689H257M257 689C255.895 689 255 689.895 255 691C255 692.105 255.895 693 257 693C258.105 693 259 692.105 259 691C259 689.895 258.105 689 257 689ZM249 691C249 692.105 248.105 693 247 693C245.895 693 245 692.105 245 691C245 689.895 245.895 689 247 689C248.105 689 249 689.895 249 691Z" stroke="#111827" stroke-width="2" stroke-linecap="round" stroke-linejoin="round"/>
<path d="M303 687L301 692L297 681L308 685L303 687ZM303 687L308 692M295.188 674.239L295.965 677.136M293.136 679.965L290.238 679.188M301.95 676.05L299.828 678.172M294.172 683.828L292.05 685.95" stroke="#111827" stroke-width="2" stroke-linecap="round" stroke-linejoin="round"/>
<path d="M355 683C355 686.866 351.866 690 348 690M348 690C344.134 690 341 686.866 341 683M348 690V694M348 694H344M348 694H352M348 686C346.343 686 345 684.657 345 683V677C345 675.343 346.343 674 348 674C349.657 674 351 675.343 351 677V683C351 684.657 349.657 686 348 686Z" stroke="#111827" stroke-width="2" stroke-linecap="round" stroke-linejoin="round"/>
<path d="M395 677.882V691.24C395 692.212 394.212 693 393.24 693C392.496 693 391.833 692.532 391.583 691.832L389.436 685.683M402 685C403.657 685 405 683.657 405 682C405 680.343 403.657 679 402 679M389.436 685.683C388.004 685.074 387 683.654 387 682C387 679.791 388.791 678 391 678H392.832C396.933 678 400.457 676.766 402 675L402 689C400.457 687.234 396.933 686 392.832 686L391 686C390.445 686 389.917 685.887 389.436 685.683Z" stroke="#111827" stroke-width="2" stroke-linecap="round" stroke-linejoin="round"/>
<path d="M441 684L443 686L447 682M439.835 676.697C440.552 676.64 441.233 676.358 441.781 675.891C443.06 674.801 444.94 674.801 446.219 675.891C446.767 676.358 447.448 676.64 448.165 676.697C449.84 676.831 451.169 678.16 451.303 679.835C451.36 680.552 451.642 681.234 452.109 681.781C453.199 683.06 453.199 684.94 452.109 686.219C451.642 686.767 451.36 687.448 451.303 688.165C451.169 689.84 449.84 691.169 448.165 691.303C447.448 691.36 446.767 691.642 446.219 692.109C444.94 693.199 443.06 693.199 441.781 692.109C441.233 691.642 440.552 691.36 439.835 691.303C438.16 691.169 436.831 689.84 436.697 688.165C436.64 687.448 436.358 686.767 435.891 686.219C434.801 684.94 434.801 683.06 435.891 681.781C436.358 681.234 436.64 680.552 436.697 679.835C436.831 678.16 438.16 676.831 439.835 676.697Z" stroke="#111827" stroke-width="2" stroke-linecap="round" stroke-linejoin="round"/>
<path d="M9.75 737L9 740L8 741H16L15 740L14.25 737M3 733H21M5 737H19C20.1046 737 21 736.105 21 735V725C21 723.895 20.1046 723 19 723H5C3.89543 723 3 723.895 3 725V735C3 736.105 3.89543 737 5 737Z" stroke="#111827" stroke-width="2" stroke-linecap="round" stroke-linejoin="round"/>
<path d="M65 728H67C68.1046 728 69 728.895 69 730V736C69 737.105 68.1046 738 67 738H65V742L61 738H57C56.4477 738 55.9477 737.776 55.5858 737.414M55.5858 737.414L59 734H63C64.1046 734 65 733.105 65 732V726C65 724.895 64.1046 724 63 724H53C51.8954 724 51 724.895 51 726V732C51 733.105 51.8954 734 53 734H55V738L55.5858 737.414Z" stroke="#111827" stroke-width="2" stroke-linecap="round" stroke-linejoin="round"/>
<path d="M116 732C116 736.418 112.418 740 108 740V742C113.523 742 118 737.523 118 732H116ZM108 740C103.582 740 100 736.418 100 732H98C98 737.523 102.477 742 108 742V740ZM100 732C100 727.582 103.582 724 108 724V722C102.477 722 98 726.477 98 732H100ZM108 724C112.418 724 116 727.582 116 732H118C118 726.477 113.523 722 108 722V724ZM111 732C111 733.657 109.657 735 108 735V737C110.761 737 113 734.761 113 732H111ZM108 735C106.343 735 105 733.657 105 732H103C103 734.761 105.239 737 108 737V735ZM105 732C105 730.343 106.343 729 108 729V727C105.239 727 103 729.239 103 732H105ZM108 729C109.657 729 111 730.343 111 732H113C113 729.239 110.761 727 108 727V729ZM113.657 724.929L110.121 728.464L111.536 729.879L115.071 726.343L113.657 724.929ZM110.121 735.536L113.657 739.071L115.071 737.657L111.536 734.121L110.121 735.536ZM105.879 728.464L102.343 724.929L100.929 726.343L104.464 729.879L105.879 728.464ZM104.464 734.121L100.929 737.657L102.343 739.071L105.879 735.536L104.464 734.121Z" fill="#111827"/>
<path d="M163 740H149C147.895 740 147 739.105 147 738L147 726C147 724.895 147.895 724 149 724L159 724C160.105 724 161 724.895 161 726V727M163 740C161.895 740 161 739.105 161 738L161 727M163 740C164.105 740 165 739.105 165 738V729C165 727.895 164.105 727 163 727L161 727M157 724L153 724M151 736H157M151 728H157V732H151V728Z" stroke="#111827" stroke-width="2" stroke-linecap="round" stroke-linejoin="round"/>
<path d="M208 724V736L204 734L200 736V724M198 740H210C211.105 740 212 739.105 212 738V726C212 724.895 211.105 724 210 724H198C196.895 724 196 724.895 196 726V738C196 739.105 196.895 740 198 740Z" stroke="#111827" stroke-width="2" stroke-linecap="round" stroke-linejoin="round"/>
<path d="M257 734V740M254 737H260M246 730H248C249.105 730 250 729.105 250 728V726C250 724.895 249.105 724 248 724H246C244.895 724 244 724.895 244 726V728C244 729.105 244.895 730 246 730ZM256 730H258C259.105 730 260 729.105 260 728V726C260 724.895 259.105 724 258 724H256C254.895 724 254 724.895 254 726V728C254 729.105 254.895 730 256 730ZM246 740H248C249.105 740 250 739.105 250 738V736C250 734.895 249.105 734 248 734H246C244.895 734 244 734.895 244 736V738C244 739.105 244.895 740 246 740Z" stroke="#111827" stroke-width="2" stroke-linecap="round" stroke-linejoin="round"/>
<path d="M296 734V737M300 734V737M304 734V737M291 741H309M291 730H309M291 727L300 723L309 727M292 730H308V741H292V730Z" stroke="#111827" stroke-width="2" stroke-linecap="round" stroke-linejoin="round"/>
<path d="M350.752 731.168L347.555 729.036C346.89 728.593 346 729.07 346 729.869V734.131C346 734.93 346.89 735.407 347.555 734.964L350.752 732.832C351.346 732.436 351.346 731.564 350.752 731.168Z" stroke="#111827" stroke-width="2" stroke-linecap="round" stroke-linejoin="round"/>
<path d="M357 732C357 736.971 352.971 741 348 741C343.029 741 339 736.971 339 732C339 727.029 343.029 723 348 723C352.971 723 357 727.029 357 732Z" stroke="#111827" stroke-width="2" stroke-linecap="round" stroke-linejoin="round"/>
<path d="M394 729V735M398 729V735M405 732C405 736.971 400.971 741 396 741C391.029 741 387 736.971 387 732C387 727.029 391.029 723 396 723C400.971 723 405 727.029 405 732Z" stroke="#111827" stroke-width="2" stroke-linecap="round" stroke-linejoin="round"/>
<path d="M453 732C453 736.971 448.971 741 444 741C439.029 741 435 736.971 435 732C435 727.029 439.029 723 444 723C448.971 723 453 727.029 453 732Z" stroke="#111827" stroke-width="2" stroke-linecap="round" stroke-linejoin="round"/>
<path d="M441 730C441 729.448 441.448 729 442 729H446C446.552 729 447 729.448 447 730V734C447 734.552 446.552 735 446 735H442C441.448 735 441 734.552 441 734V730Z" stroke="#111827" stroke-width="2" stroke-linecap="round" stroke-linejoin="round"/>
<g clip-path="url(#clip1_1_1944)">
<path d="M11.049 770.927C11.3483 770.005 12.6517 770.005 12.951 770.927L14.4699 775.601C14.6038 776.013 14.9877 776.291 15.4209 776.291L20.3354 776.292C21.3041 776.292 21.7068 777.531 20.9232 778.101L16.9474 780.989C16.5969 781.244 16.4503 781.695 16.5841 782.107L18.1026 786.781C18.4019 787.703 17.3475 788.469 16.5638 787.9L12.5878 785.011C12.2373 784.756 11.7627 784.756 11.4122 785.011L7.43622 787.9C6.65252 788.469 5.5981 787.703 5.8974 786.781L7.41589 782.107C7.54974 781.695 7.40309 781.244 7.05263 780.989L3.07683 778.101C2.29317 777.531 2.69592 776.292 3.66461 776.292L8.57911 776.291C9.01231 776.291 9.39623 776.013 9.53011 775.601L11.049 770.927Z" stroke="#111827" stroke-width="2"/>
</g>
<path d="M56 777L59 780L56 783M61 783H64M53 788H67C68.1046 788 69 787.105 69 786V774C69 772.895 68.1046 772 67 772H53C51.8954 772 51 772.895 51 774V786C51 787.105 51.8954 788 53 788Z" stroke="#111827" stroke-width="2" stroke-linecap="round" stroke-linejoin="round"/>
<path d="M112 776V784M108 779V784M104 782V784M102 788H114C115.105 788 116 787.105 116 786V774C116 772.895 115.105 772 114 772H102C100.895 772 100 772.895 100 774V786C100 787.105 100.895 788 102 788Z" stroke="#111827" stroke-width="2" stroke-linecap="round" stroke-linejoin="round"/>
<path d="M147 771L150.589 774.589M165 789L161.411 785.411M157.875 786.825C157.268 786.94 156.641 787 156 787C151.523 787 147.733 784.057 146.458 780C146.805 778.895 147.339 777.874 148.021 776.971M153.879 777.879C154.422 777.336 155.172 777 156 777C157.657 777 159 778.343 159 780C159 780.828 158.664 781.578 158.121 782.121M153.879 777.879L158.121 782.121M153.879 777.879L150.589 774.589M158.121 782.121L150.589 774.589M158.121 782.121L161.411 785.411M150.589 774.589C152.149 773.584 154.007 773 156 773C160.478 773 164.268 775.943 165.543 780C164.836 782.251 163.355 784.159 161.411 785.411" stroke="#111827" stroke-width="2" stroke-linecap="round" stroke-linejoin="round"/>
<path d="M201 787V781C201 779.895 200.105 779 199 779H197C195.895 779 195 779.895 195 781V787C195 788.105 195.895 789 197 789H199C200.105 789 201 788.105 201 787ZM201 787V777C201 775.895 201.895 775 203 775H205C206.105 775 207 775.895 207 777V787M201 787C201 788.105 201.895 789 203 789H205C206.105 789 207 788.105 207 787M207 787V773C207 771.895 207.895 771 209 771H211C212.105 771 213 771.895 213 773V787C213 788.105 212.105 789 211 789H209C207.895 789 207 788.105 207 787Z" stroke="#111827" stroke-width="2" stroke-linecap="round" stroke-linejoin="round"/>
<path d="M257.657 786.657C254.533 789.781 249.467 789.781 246.343 786.657C244.781 785.095 244 783.047 244 781C244 778.953 244.781 776.905 246.343 775.343C246.343 775.343 247 777 249 778C249 776 249.5 773 251.986 771C254 773 256.091 773.777 257.657 775.343C259.219 776.905 260 778.953 260 781C260 783.047 259.219 785.095 257.657 786.657Z" stroke="#111827" stroke-width="2" stroke-linecap="round" stroke-linejoin="round"/>
<path d="M249.879 784.121C251.05 785.293 252.95 785.293 254.121 784.121C254.707 783.535 255 782.768 255 782C255 781.232 254.707 780.464 254.121 779.879C253.539 779.297 252.777 779.004 252.015 779L251 782L249 782C249 782.768 249.293 783.535 249.879 784.121Z" stroke="#111827" stroke-width="2" stroke-linecap="round" stroke-linejoin="round"/>
<path d="M304 779V775C304 772.791 302.209 771 300 771C297.791 771 296 772.791 296 775V779M293 777H307L308 789H292L293 777Z" stroke="#111827" stroke-width="2" stroke-linecap="round" stroke-linejoin="round"/>
<path d="M350 782H354.764C356.251 782 357.218 780.435 356.553 779.106L353.053 772.106C352.714 771.428 352.021 771 351.264 771H347.246C347.083 771 346.92 771.02 346.761 771.06L343 772M350 782V787C350 788.105 349.105 789 348 789H347.905C347.405 789 347 788.595 347 788.095C347 787.381 346.789 786.683 346.392 786.089L343 781V772M350 782H348M343 772H341C339.895 772 339 772.895 339 774V780C339 781.105 339.895 782 341 782H343.5" stroke="#111827" stroke-width="2" stroke-linecap="round" stroke-linejoin="round"/>
<path d="M394 778H389.236C387.749 778 386.782 779.565 387.447 780.894L390.947 787.894C391.286 788.572 391.979 789 392.736 789H396.754C396.917 789 397.08 788.98 397.239 788.94L401 788M394 778V773C394 771.895 394.895 771 396 771H396.095C396.595 771 397 771.405 397 771.905C397 772.619 397.211 773.317 397.608 773.911L401 779V788M394 778H396M401 788H403C404.105 788 405 787.105 405 786V780C405 778.895 404.105 778 403 778H400.5" stroke="#111827" stroke-width="2" stroke-linecap="round" stroke-linejoin="round"/>
<path d="M439 779.5V782M439 779.5V773.5C439 772.672 439.672 772 440.5 772C441.328 772 442 772.672 442 773.5M439 779.5C439 778.672 438.328 778 437.5 778C436.672 778 436 778.672 436 779.5V781.5C436 785.642 439.358 789 443.5 789C447.642 789 451 785.642 451 781.5V776.5C451 775.672 450.328 775 449.5 775C448.672 775 448 775.672 448 776.5M442 773.5V779M442 773.5V772.5C442 771.672 442.672 771 443.5 771C444.328 771 445 771.672 445 772.5V773.5M445 773.5V779M445 773.5C445 772.672 445.672 772 446.5 772C447.328 772 448 772.672 448 773.5V776.5M448 776.5V779" stroke="#111827" stroke-width="2" stroke-linecap="round" stroke-linejoin="round"/>
<path d="M4 824V820M4 820H8M4 820L9 825M20 824V820M20 820H16M20 820L15 825M4 832V836M4 836H8M4 836L9 831M20 836L15 831M20 836V832M20 836H16" stroke="#111827" stroke-width="2" stroke-linecap="round" stroke-linejoin="round"/>
<path d="M52 822C52 820.895 52.8954 820 54 820H56C57.1046 820 58 820.895 58 822V824C58 825.105 57.1046 826 56 826H54C52.8954 826 52 825.105 52 824V822Z" stroke="#111827" stroke-width="2" stroke-linecap="round" stroke-linejoin="round"/>
<path d="M62 822C62 820.895 62.8954 820 64 820H66C67.1046 820 68 820.895 68 822V824C68 825.105 67.1046 826 66 826H64C62.8954 826 62 825.105 62 824V822Z" stroke="#111827" stroke-width="2" stroke-linecap="round" stroke-linejoin="round"/>
<path d="M52 832C52 830.895 52.8954 830 54 830H56C57.1046 830 58 830.895 58 832V834C58 835.105 57.1046 836 56 836H54C52.8954 836 52 835.105 52 834V832Z" stroke="#111827" stroke-width="2" stroke-linecap="round" stroke-linejoin="round"/>
<path d="M62 832C62 830.895 62.8954 830 64 830H66C67.1046 830 68 830.895 68 832V834C68 835.105 67.1046 836 66 836H64C62.8954 836 62 835.105 62 834V832Z" stroke="#111827" stroke-width="2" stroke-linecap="round" stroke-linejoin="round"/>
<path d="M107 820C107 818.895 107.895 818 109 818C110.105 818 111 818.895 111 820V821C111 821.552 111.448 822 112 822H115C115.552 822 116 822.448 116 823V826C116 826.552 115.552 827 115 827H114C112.895 827 112 827.895 112 829C112 830.105 112.895 831 114 831H115C115.552 831 116 831.448 116 832V835C116 835.552 115.552 836 115 836H112C111.448 836 111 835.552 111 835V834C111 832.895 110.105 832 109 832C107.895 832 107 832.895 107 834V835C107 835.552 106.552 836 106 836H103C102.448 836 102 835.552 102 835V832C102 831.448 101.552 831 101 831H100C98.8954 831 98 830.105 98 829C98 827.895 98.8954 827 100 827H101C101.552 827 102 826.552 102 826V823C102 822.448 102.448 822 103 822H106C106.552 822 107 821.552 107 821V820Z" stroke="#111827" stroke-width="2" stroke-linecap="round" stroke-linejoin="round"/>
<path d="M156 826V832M156 832L153 829M156 832L159 829M147 833V823C147 821.895 147.895 821 149 821H155L157 823H163C164.105 823 165 823.895 165 825V833C165 834.105 164.105 835 163 835H149C147.895 835 147 834.105 147 833Z" stroke="#111827" stroke-width="2" stroke-linecap="round" stroke-linejoin="round"/>
<path d="M201 829H207M204 826V832M195 833V823C195 821.895 195.895 821 197 821H203L205 823H211C212.105 823 213 823.895 213 825V833C213 834.105 212.105 835 211 835H197C195.895 835 195 834.105 195 833Z" stroke="#111827" stroke-width="2" stroke-linecap="round" stroke-linejoin="round"/>
<path d="M249 829H255M243 833V823C243 821.895 243.895 821 245 821H251L253 823H259C260.105 823 261 823.895 261 825V833C261 834.105 260.105 835 259 835H245C243.895 835 243 834.105 243 833Z" stroke="#111827" stroke-width="2" stroke-linecap="round" stroke-linejoin="round"/>
<path d="M297 836L291.553 833.276C291.214 833.107 291 832.761 291 832.382V821.618C291 820.875 291.782 820.391 292.447 820.724L297 823M297 836L303 833M297 836V823M303 833L307.553 835.276C308.218 835.609 309 835.125 309 834.382V823.618C309 823.239 308.786 822.893 308.447 822.724L303 820M303 833V820M303 820L297 823" stroke="#111827" stroke-width="2" stroke-linecap="round" stroke-linejoin="round"/>
<path d="M346 822H341C339.895 822 339 822.895 339 824V833C339 834.105 339.895 835 341 835H355C356.105 835 357 834.105 357 833V824C357 822.895 356.105 822 355 822H350M346 822V821C346 819.895 346.895 819 348 819C349.105 819 350 819.895 350 821V822M346 822C346 823.105 346.895 824 348 824C349.105 824 350 823.105 350 822M345 830C346.105 830 347 829.105 347 828C347 826.895 346.105 826 345 826C343.895 826 343 826.895 343 828C343 829.105 343.895 830 345 830ZM345 830C346.306 830 347.417 830.835 347.829 832M345 830C343.694 830 342.582 830.835 342.171 832M351 827H354M351 831H353" stroke="#111827" stroke-width="2" stroke-linecap="round" stroke-linejoin="round"/>
<path d="M390 821C397.18 821 403 826.82 403 834M390 827C393.866 827 397 830.134 397 834M391 834C391 834.552 390.552 835 390 835C389.448 835 389 834.552 389 834C389 833.448 389.448 833 390 833C390.552 833 391 833.448 391 834Z" stroke="#111827" stroke-width="2" stroke-linecap="round" stroke-linejoin="round"/>
<path d="M446.121 830.121L451 835M444 828L451 821M444 828L441.121 830.879M444 828L441.121 825.121M441.121 830.879C440.578 830.336 439.828 830 439 830C437.343 830 436 831.343 436 833C436 834.657 437.343 836 439 836C440.657 836 442 834.657 442 833C442 832.172 441.664 831.422 441.121 830.879ZM441.121 825.121C441.664 824.578 442 823.828 442 823C442 821.343 440.657 820 439 820C437.343 820 436 821.343 436 823C436 824.657 437.343 826 439 826C439.828 826 440.578 825.664 441.121 825.121Z" stroke="#111827" stroke-width="2" stroke-linecap="round"/>
<path d="M9 883V870L21 867V880M9 883C9 884.105 7.65685 885 6 885C4.34314 885 3 884.105 3 883C3 881.895 4.34314 881 6 881C7.65685 881 9 881.895 9 883ZM21 880C21 881.105 19.6569 882 18 882C16.3431 882 15 881.105 15 880C15 878.895 16.3431 878 18 878C19.6569 878 21 878.895 21 880ZM9 874L21 871" stroke="#111827" stroke-width="2" stroke-linecap="round" stroke-linejoin="round"/>
<path d="M55 868V884M65 868V884M51 872H55M65 872H69M51 876H69M51 880H55M65 880H69M52 884H68C68.5523 884 69 883.552 69 883V869C69 868.448 68.5523 868 68 868H52C51.4477 868 51 868.448 51 869V883C51 883.552 51.4477 884 52 884Z" stroke="#111827" stroke-width="2"/>
<path d="M100 871V881C100 883.209 103.582 885 108 885C112.418 885 116 883.209 116 881V871M100 871C100 873.209 103.582 875 108 875C112.418 875 116 873.209 116 871M100 871C100 868.791 103.582 867 108 867C112.418 867 116 868.791 116 871M116 876C116 878.209 112.418 880 108 880C103.582 880 100 878.209 100 876" stroke="#111827" stroke-width="2"/>
<path d="M149 876H163M149 876C147.895 876 147 875.105 147 874V870C147 868.895 147.895 868 149 868H163C164.105 868 165 868.895 165 870V874C165 875.105 164.105 876 163 876M149 876C147.895 876 147 876.895 147 878V882C147 883.105 147.895 884 149 884H163C164.105 884 165 883.105 165 882V878C165 876.895 164.105 876 163 876M161 872H161.01M161 880H161.01" stroke="#111827" stroke-width="2" stroke-linecap="round" stroke-linejoin="round"/>
<path d="M209 880L213 876M213 876L209 872M213 876L199 876M205 880V881C205 882.657 203.657 884 202 884H198C196.343 884 195 882.657 195 881V871C195 869.343 196.343 868 198 868H202C203.657 868 205 869.343 205 871V872" stroke="#111827" stroke-width="2" stroke-linecap="round" stroke-linejoin="round"/>
<path d="M248.111 880.404C250.259 878.256 253.741 878.256 255.889 880.404M252 884H252.01M244.929 876.929C248.834 873.024 255.166 873.024 259.071 876.929M241.394 873.393C247.251 867.536 256.749 867.536 262.607 873.393" stroke="#111827" stroke-width="2" stroke-linecap="round"/>
<path d="M300 878L302 876M302 876L304 874M302 876L300 874M302 876L304 878M291 876L297.414 882.414C297.789 882.789 298.298 883 298.828 883H307C308.105 883 309 882.105 309 881V871C309 869.895 308.105 869 307 869H298.828C298.298 869 297.789 869.211 297.414 869.586L291 876Z" stroke="#111827" stroke-width="2" stroke-linecap="round" stroke-linejoin="round"/>
<path d="M348 883L357 885L348 867L339 885L348 883ZM348 883V875" stroke="#111827" stroke-width="2" stroke-linecap="round" stroke-linejoin="round"/>
<path d="M396 882H396.01M392 885H400C401.105 885 402 884.105 402 883V869C402 867.895 401.105 867 400 867H392C390.895 867 390 867.895 390 869V883C390 884.105 390.895 885 392 885Z" stroke="#111827" stroke-width="2" stroke-linecap="round" stroke-linejoin="round"/>
<path d="M444 882H444.01M439 885H449C450.105 885 451 884.105 451 883V869C451 867.895 450.105 867 449 867H439C437.895 867 437 867.895 437 869V883C437 884.105 437.895 885 439 885Z" stroke="#111827" stroke-width="2" stroke-linecap="round" stroke-linejoin="round"/>
<path d="M13 917L20 924L13 931M5 917L12 924L5 931" stroke="#111827" stroke-width="2" stroke-linecap="round" stroke-linejoin="round"/>
<path d="M67 925L60 932L53 925M67 917L60 924L53 917" stroke="#111827" stroke-width="2" stroke-linecap="round" stroke-linejoin="round"/>
<path d="M107 931L100 924L107 917M115 931L108 924L115 917" stroke="#111827" stroke-width="2" stroke-linecap="round" stroke-linejoin="round"/>
<path d="M149 923L156 916L163 923M149 931L156 924L163 931" stroke="#111827" stroke-width="2" stroke-linecap="round" stroke-linejoin="round"/>
<path d="M204 923C204 926.517 202.991 929.799 201.247 932.571M197.807 930.53C197.825 930.501 197.843 930.471 197.861 930.441C199.216 928.288 200 925.742 200 923C200 920.791 201.791 919 204 919C206.209 919 208 920.791 208 923C208 924.017 207.931 925.019 207.797 926M205.679 932.844C206.291 931.623 206.792 930.337 207.171 929M211.01 930.132C211.655 927.866 212 925.473 212 923C212 918.582 208.418 915 204 915C202.543 915 201.177 915.39 200 916.07M195 927.364C195.641 926.045 196 924.565 196 923C196 921.543 196.39 920.177 197.07 919" stroke="#111827" stroke-width="2" stroke-linecap="round" stroke-linejoin="round"/>
<path d="M260 919L252 915L244 919M260 919L252 923M260 919V929L252 933M252 923L244 919M252 923V933M244 919V929L252 933" stroke="#111827" stroke-width="2" stroke-linejoin="round"/>
<path d="M293 931C291.895 931 291 930.105 291 929V919C291 917.895 291.895 917 293 917H297L299 919H303C304.105 919 305 919.895 305 921V922M293 931H307C308.105 931 309 930.105 309 929V924C309 922.895 308.105 922 307 922H297C295.895 922 295 922.895 295 924V929C295 930.105 294.105 931 293 931Z" stroke="#111827" stroke-width="2" stroke-linecap="round"/>
<path d="M344 919H341C339.895 919 339 919.895 339 921V930C339 931.105 339.895 932 341 932H355C356.105 932 357 931.105 357 930V921C357 919.895 356.105 919 355 919H352M351 923L348 926M348 926L345 923M348 926L348 916" stroke="#111827" stroke-width="2" stroke-linecap="round" stroke-linejoin="round"/>
<path d="M401 928V930C401 931.105 400.105 932 399 932H389C387.895 932 387 931.105 387 930V923C387 921.895 387.895 921 389 921H391M394 917H393C391.895 917 391 917.895 391 919V926C391 927.105 391.895 928 393 928H403C404.105 928 405 927.105 405 926V919C405 917.895 404.105 917 403 917H402M401 921L398 924M398 924L395 921M398 924L398 915" stroke="#111827" stroke-width="2" stroke-linecap="round" stroke-linejoin="round"/>
<path d="M441 924H447M441 928H447M449 933H439C437.895 933 437 932.105 437 931V917C437 915.895 437.895 915 439 915H444.586C444.851 915 445.105 915.105 445.293 915.293L450.707 920.707C450.895 920.895 451 921.149 451 921.414V931C451 932.105 450.105 933 449 933Z" stroke="#111827" stroke-width="2" stroke-linecap="round" stroke-linejoin="round"/>
<path d="M3 970H21M3 974H21M12 970V978M5 978H19C20.1046 978 21 977.105 21 976V968C21 966.895 20.1046 966 19 966H5C3.89543 966 3 966.895 3 968V976C3 977.105 3.89543 978 5 978Z" stroke="#111827" stroke-width="2"/>
<path d="M57 967H63M63 977V974M60 977H60.01M57 977H57.01M57 974H57.01M60 974H60.01M63 971H63.01M60 971H60.01M57 971H57.01M55 981H65C66.1046 981 67 980.105 67 979V965C67 963.895 66.1046 963 65 963H55C53.8954 963 53 963.895 53 965V979C53 980.105 53.8954 981 55 981Z" stroke="#111827" stroke-width="2" stroke-linecap="round" stroke-linejoin="round"/>
<path d="M115.428 975.428C115.149 975.149 114.793 974.959 114.406 974.881L112.018 974.404C110.71 974.142 109.352 974.324 108.158 974.921L107.841 975.079C106.648 975.676 105.289 975.858 103.981 975.596L102.049 975.21C101.394 975.079 100.716 975.284 100.243 975.757M104 964H112L111 965V970.172C111 970.702 111.211 971.211 111.586 971.586L116.586 976.586C117.846 977.846 116.953 980 115.171 980H100.828C99.0464 980 98.1541 977.846 99.414 976.586L104.414 971.586C104.789 971.211 105 970.702 105 970.172V965L104 964Z" stroke="#111827" stroke-width="2" stroke-linecap="round" stroke-linejoin="round"/>
<path d="M156 968V981M156 968C156 968 156 966.507 156 966C156 964.895 156.895 964 158 964C159.105 964 160 964.895 160 966C160 967.105 159.105 968 158 968C157.403 968 156 968 156 968ZM156 968C156 968 156 966.063 156 965.5C156 964.119 154.881 963 153.5 963C152.119 963 151 964.119 151 965.5C151 966.881 152.119 968 153.5 968C154.318 968 156 968 156 968ZM149 972H163M149 972C147.895 972 147 971.105 147 970C147 968.895 147.895 968 149 968H163C164.105 968 165 968.895 165 970C165 971.105 164.105 972 163 972M149 972L149 979C149 980.105 149.895 981 151 981H161C162.105 981 163 980.105 163 979V972" stroke="#111827" stroke-width="2" stroke-linecap="round" stroke-linejoin="round"/>
<path d="M205 976V966C205 965.448 204.552 965 204 965H196C195.448 965 195 965.448 195 966V976C195 976.552 195.448 977 196 977H197M205 976C205 976.552 204.552 977 204 977H201M205 976L205 968C205 967.448 205.448 967 206 967H208.586C208.851 967 209.105 967.105 209.293 967.293L212.707 970.707C212.895 970.895 213 971.149 213 971.414V976C213 976.552 212.552 977 212 977H211M205 976C205 976.552 205.448 977 206 977H207M197 977C197 978.105 197.895 979 199 979C200.105 979 201 978.105 201 977M197 977C197 975.895 197.895 975 199 975C200.105 975 201 975.895 201 977M207 977C207 978.105 207.895 979 209 979C210.105 979 211 978.105 211 977M207 977C207 975.895 207.895 975 209 975C210.105 975 211 975.895 211 977" stroke="#111827" stroke-width="2"/>
<path d="M251 971V969C251 967.895 250.105 967 249 967M251 971V975C251 976.105 251.895 977 253 977C254.105 977 255 976.105 255 975V974M251 971H249M251 971H255M261 972C261 976.971 256.971 981 252 981C247.029 981 243 976.971 243 972C243 967.029 247.029 963 252 963C256.971 963 261 967.029 261 972Z" stroke="#111827" stroke-width="2" stroke-linecap="round" stroke-linejoin="round"/>
<path d="M303 970L307.553 967.724C308.218 967.391 309 967.875 309 968.618V975.382C309 976.125 308.218 976.609 307.553 976.276L303 974M293 978H301C302.105 978 303 977.105 303 976V968C303 966.895 302.105 966 301 966H293C291.895 966 291 966.895 291 968V976C291 977.105 291.895 978 293 978Z" stroke="#111827" stroke-width="2" stroke-linecap="round" stroke-linejoin="round"/>
<path d="M339 975C339 977.209 340.791 979 343 979H352C354.761 979 357 976.761 357 974C357 971.239 354.761 969 352 969C351.967 969 351.933 969 351.9 969.001C351.437 966.718 349.419 965 347 965C344.239 965 342 967.239 342 970C342 970.377 342.042 970.744 342.121 971.097C340.335 971.498 339 973.093 339 975Z" stroke="#111827" stroke-width="2" stroke-linecap="round" stroke-linejoin="round"/>
<path d="M391 976C388.791 976 387 974.209 387 972C387 970.093 388.335 968.498 390.121 968.097C390.042 967.744 390 967.377 390 967C390 964.239 392.239 962 395 962C397.419 962 399.437 963.718 399.9 966.001C399.933 966 399.967 966 400 966C402.761 966 405 968.239 405 971C405 973.419 403.282 975.437 401 975.9M399 973L396 970M396 970L393 973M396 970L396 982" stroke="#111827" stroke-width="2" stroke-linecap="round" stroke-linejoin="round"/>
<path d="M439 976C436.791 976 435 974.209 435 972C435 970.093 436.335 968.498 438.121 968.097C438.042 967.744 438 967.377 438 967C438 964.239 440.239 962 443 962C445.419 962 447.437 963.718 447.9 966.001C447.933 966 447.967 966 448 966C450.761 966 453 968.239 453 971C453 973.419 451.282 975.437 449 975.9M441 979L444 982M444 982L447 979M444 982V970" stroke="#111827" stroke-width="2" stroke-linecap="round" stroke-linejoin="round"/>
<path d="M16 1016L18 1014M18 1014L20 1012M18 1014L16 1012M18 1014L20 1016M5 1011C3.89543 1011 3 1011.9 3 1013V1014C3 1022.28 9.71573 1029 18 1029H19C20.1046 1029 21 1028.1 21 1027V1023.72C21 1023.29 20.7246 1022.91 20.3162 1022.77L15.8228 1021.27C15.3507 1021.12 14.8347 1021.33 14.6121 1021.78L13.4835 1024.03C11.0388 1022.93 9.06925 1020.96 7.96701 1018.52L10.2243 1017.39C10.6694 1017.17 10.8831 1016.65 10.7257 1016.18L9.22792 1011.68C9.09181 1011.28 8.70967 1011 8.27924 1011H5Z" stroke="#111827" stroke-width="2" stroke-linecap="round" stroke-linejoin="round"/>
<path d="M60 1014V1020M60 1020V1026M60 1020H66M60 1020L54 1020" stroke="#111827" stroke-width="2" stroke-linecap="round" stroke-linejoin="round"/>
<path d="M114 1020H102" stroke="#111827" stroke-width="2" stroke-linecap="round" stroke-linejoin="round"/>
<path d="M153 1022L159 1016M153.5 1016.5H153.51M158.5 1021.5H158.51M163 1029V1013C163 1011.9 162.105 1011 161 1011H151C149.895 1011 149 1011.9 149 1013V1029L152.5 1027L156 1029L159.5 1027L163 1029ZM154 1016.5C154 1016.78 153.776 1017 153.5 1017C153.224 1017 153 1016.78 153 1016.5C153 1016.22 153.224 1016 153.5 1016C153.776 1016 154 1016.22 154 1016.5ZM159 1021.5C159 1021.78 158.776 1022 158.5 1022C158.224 1022 158 1021.78 158 1021.5C158 1021.22 158.224 1021 158.5 1021C158.776 1021 159 1021.22 159 1021.5Z" stroke="#111827" stroke-width="2" stroke-linecap="round" stroke-linejoin="round"/>
<path d="M197.636 1026.36C194.121 1022.85 194.121 1017.15 197.636 1013.64M210.364 1013.64C213.879 1017.15 213.879 1022.85 210.364 1026.36M200.464 1023.54C198.512 1021.58 198.512 1018.42 200.464 1016.46M207.536 1016.46C209.488 1018.42 209.488 1021.58 207.536 1023.54M205 1020C205 1020.55 204.552 1021 204 1021C203.448 1021 203 1020.55 203 1020C203 1019.45 203.448 1019 204 1019C204.552 1019 205 1019.45 205 1020Z" stroke="#111827" stroke-width="2" stroke-linecap="round" stroke-linejoin="round"/>
<path d="M259.071 1012.93C258.681 1012.54 258.047 1012.54 257.657 1012.93C257.266 1013.32 257.266 1013.95 257.657 1014.34L259.071 1012.93ZM258.364 1026.36L257.657 1027.07H257.657L258.364 1026.36ZM256.243 1015.76C255.852 1015.37 255.219 1015.37 254.828 1015.76C254.438 1016.15 254.438 1016.78 254.828 1017.17L256.243 1015.76ZM255.536 1023.54L254.828 1024.24L254.828 1024.24L255.536 1023.54ZM247.757 1024.24C248.148 1024.63 248.781 1024.63 249.172 1024.24C249.562 1023.85 249.562 1023.22 249.172 1022.83L247.757 1024.24ZM248.04 1020.57C247.962 1020.02 247.456 1019.64 246.909 1019.72C246.363 1019.79 245.982 1020.3 246.06 1020.85L248.04 1020.57ZM244.929 1027.07C245.319 1027.46 245.953 1027.46 246.343 1027.07C246.734 1026.68 246.734 1026.05 246.343 1025.66L244.929 1027.07ZM244.417 1017.44C244.593 1016.92 244.311 1016.35 243.788 1016.18C243.264 1016 242.697 1016.28 242.521 1016.81L244.417 1017.44ZM243.707 1010.29C243.317 1009.9 242.683 1009.9 242.293 1010.29C241.902 1010.68 241.902 1011.32 242.293 1011.71L243.707 1010.29ZM260.293 1029.71C260.683 1030.1 261.317 1030.1 261.707 1029.71C262.098 1029.32 262.098 1028.68 261.707 1028.29L260.293 1029.71ZM257.657 1014.34C260.781 1017.47 260.781 1022.53 257.657 1025.66L259.071 1027.07C262.976 1023.17 262.976 1016.83 259.071 1012.93L257.657 1014.34ZM254.828 1017.17C256.391 1018.73 256.391 1021.27 254.828 1022.83L256.243 1024.24C258.586 1021.9 258.586 1018.1 256.243 1015.76L254.828 1017.17ZM252 1020H254C254 1018.9 253.105 1018 252 1018V1020ZM249.172 1022.83C248.534 1022.19 248.158 1021.39 248.04 1020.57L246.06 1020.85C246.236 1022.09 246.803 1023.29 247.757 1024.24L249.172 1022.83ZM246.343 1025.66C244.123 1023.44 243.479 1020.24 244.417 1017.44L242.521 1016.81C241.351 1020.29 242.152 1024.29 244.929 1027.07L246.343 1025.66ZM252 1020L252 1020V1018C251.448 1018 250.947 1018.22 250.586 1018.59L252 1020ZM242.293 1011.71L250.586 1020L252 1018.59L243.707 1010.29L242.293 1011.71ZM250.586 1020L252 1021.41L253.414 1020L252 1018.59L250.586 1020ZM252 1021.41L254.828 1024.24L256.243 1022.83L253.414 1020L252 1021.41ZM254.828 1024.24L257.657 1027.07L259.071 1025.66L256.243 1022.83L254.828 1024.24ZM257.657 1027.07L260.293 1029.71L261.707 1028.29L259.071 1025.66L257.657 1027.07ZM252 1020L252 1020L253.414 1021.41C253.775 1021.05 254 1020.55 254 1020H252Z" fill="#111827"/>
<path d="M292 1012V1011H291V1012H292ZM308 1012H309V1011H308V1012ZM294.293 1019.29C293.902 1019.68 293.902 1020.32 294.293 1020.71C294.683 1021.1 295.317 1021.1 295.707 1020.71L294.293 1019.29ZM298 1017L298.707 1016.29C298.317 1015.9 297.683 1015.9 297.293 1016.29L298 1017ZM301 1020L300.293 1020.71C300.683 1021.1 301.317 1021.1 301.707 1020.71L301 1020ZM305.707 1016.71C306.098 1016.32 306.098 1015.68 305.707 1015.29C305.317 1014.9 304.683 1014.9 304.293 1015.29L305.707 1016.71ZM295.293 1028.29C294.902 1028.68 294.902 1029.32 295.293 1029.71C295.683 1030.1 296.317 1030.1 296.707 1029.71L295.293 1028.29ZM300 1025L300.707 1024.29C300.317 1023.9 299.683 1023.9 299.293 1024.29L300 1025ZM303.293 1029.71C303.683 1030.1 304.317 1030.1 304.707 1029.71C305.098 1029.32 305.098 1028.68 304.707 1028.29L303.293 1029.71ZM291 1011C290.448 1011 290 1011.45 290 1012C290 1012.55 290.448 1013 291 1013V1011ZM309 1013C309.552 1013 310 1012.55 310 1012C310 1011.45 309.552 1011 309 1011V1013ZM292 1013H308V1011H292V1013ZM307 1012V1024H309V1012H307ZM307 1024H293V1026H307V1024ZM293 1024V1012H291V1024H293ZM293 1024H291C291 1025.1 291.895 1026 293 1026V1024ZM307 1024V1026C308.105 1026 309 1025.1 309 1024H307ZM295.707 1020.71L298.707 1017.71L297.293 1016.29L294.293 1019.29L295.707 1020.71ZM297.293 1017.71L300.293 1020.71L301.707 1019.29L298.707 1016.29L297.293 1017.71ZM301.707 1020.71L305.707 1016.71L304.293 1015.29L300.293 1019.29L301.707 1020.71ZM296.707 1029.71L300.707 1025.71L299.293 1024.29L295.293 1028.29L296.707 1029.71ZM299.293 1025.71L303.293 1029.71L304.707 1028.29L300.707 1024.29L299.293 1025.71ZM291 1013H309V1011H291V1013Z" fill="#111827"/>
<path d="M344 1021V1020M348 1021V1018M352 1021V1016M344 1029L348 1025L352 1029M339 1012H357M340 1012H356V1024C356 1024.55 355.552 1025 355 1025H341C340.448 1025 340 1024.55 340 1024V1012Z" stroke="#111827" stroke-width="2" stroke-linecap="round" stroke-linejoin="round"/>
<path d="M395.933 1020.8C396.467 1020.4 396.467 1019.6 395.933 1019.2L390.6 1015.2C389.941 1014.71 389 1015.18 389 1016L389 1024C389 1024.82 389.941 1025.29 390.6 1024.8L395.933 1020.8Z" stroke="#111827" stroke-width="2" stroke-linecap="round" stroke-linejoin="round"/>
<path d="M403.933 1020.8C404.467 1020.4 404.467 1019.6 403.933 1019.2L398.6 1015.2C397.941 1014.71 397 1015.18 397 1016L397 1024C397 1024.82 397.941 1025.29 398.6 1024.8L403.933 1020.8Z" stroke="#111827" stroke-width="2" stroke-linecap="round" stroke-linejoin="round"/>
<path d="M444.067 1019.2C443.533 1019.6 443.533 1020.4 444.067 1020.8L449.4 1024.8C450.059 1025.29 451 1024.82 451 1024V1016C451 1015.18 450.059 1014.71 449.4 1015.2L444.067 1019.2Z" stroke="#111827" stroke-width="2" stroke-linecap="round" stroke-linejoin="round"/>
<path d="M436.067 1019.2C435.533 1019.6 435.533 1020.4 436.067 1020.8L441.4 1024.8C442.059 1025.29 443 1024.82 443 1024V1016C443 1015.18 442.059 1014.71 441.4 1015.2L436.067 1019.2Z" stroke="#111827" stroke-width="2" stroke-linecap="round" stroke-linejoin="round"/>
<path d="M9 1059V1061M15 1059V1061M9 1075V1077M15 1075V1077M5 1065H3M5 1071H3M21 1065H19M21 1071H19M7 1075H17C18.1046 1075 19 1074.1 19 1073V1063C19 1061.9 18.1046 1061 17 1061H7C5.89543 1061 5 1061.9 5 1063V1073C5 1074.1 5.89543 1075 7 1075ZM9 1065H15V1071H9V1065Z" stroke="#111827" stroke-width="2" stroke-linecap="round" stroke-linejoin="round"/>
<path d="M60 1070L69 1065L60 1060L51 1065L60 1070ZM60 1070L66.1591 1066.58C66.7017 1067.95 67 1069.44 67 1071C67 1071.7 66.9398 1072.39 66.8244 1073.06C64.2143 1073.31 61.849 1074.4 60 1076.06C58.151 1074.4 55.7857 1073.31 53.1756 1073.06C53.0602 1072.39 53 1071.7 53 1071C53 1069.44 53.2982 1067.95 53.8409 1066.58L60 1070ZM56 1076V1068.5L60 1066.28" stroke="#111827" stroke-width="2" stroke-linecap="round" stroke-linejoin="round"/>
<path d="M100.871 1060C99.6734 1062.41 99 1065.13 99 1068C99 1070.87 99.6734 1073.59 100.871 1076M115 1076C116.198 1073.59 116.871 1070.87 116.871 1068C116.871 1065.13 116.198 1062.41 115 1060M105 1065H106.246C106.692 1065 107.085 1065.3 107.207 1065.73L108.793 1071.27C108.915 1071.7 109.308 1072 109.754 1072H111M112 1065H111.92C111.336 1065 110.781 1065.26 110.401 1065.7L105.599 1071.3C105.219 1071.74 104.664 1072 104.08 1072H104" stroke="#111827" stroke-width="2" stroke-linecap="round"/>
<path d="M154 1077H161C162.105 1077 163 1076.1 163 1075V1065.41C163 1065.15 162.895 1064.89 162.707 1064.71L157.293 1059.29C157.105 1059.11 156.851 1059 156.586 1059H151C149.895 1059 149 1059.9 149 1061V1072M149 1077L153.879 1072.12M153.879 1072.12C154.422 1072.66 155.172 1073 156 1073C157.657 1073 159 1071.66 159 1070C159 1068.34 157.657 1067 156 1067C154.343 1067 153 1068.34 153 1070C153 1070.83 153.336 1071.58 153.879 1072.12Z" stroke="#111827" stroke-width="2" stroke-linecap="round"/>
<path d="M200 1072L202.879 1069.12M202.879 1069.12C203.422 1069.66 204.172 1070 205 1070C206.657 1070 208 1068.66 208 1067C208 1065.34 206.657 1064 205 1064C203.343 1064 202 1065.34 202 1067C202 1067.83 202.336 1068.58 202.879 1069.12ZM213 1068C213 1072.97 208.971 1077 204 1077C199.029 1077 195 1072.97 195 1068C195 1063.03 199.029 1059 204 1059C208.971 1059 213 1063.03 213 1068Z" stroke="#111827" stroke-width="2" stroke-linecap="round"/>
<path d="M254 1066L252 1067M252 1067L250 1066M252 1067V1069.5M260 1063L258 1064M260 1063L258 1062M260 1063V1065.5M254 1060L252 1059L250 1060M244 1063L246 1062M244 1063L246 1064M244 1063V1065.5M252 1077L250 1076M252 1077L254 1076M252 1077V1074.5M246 1074L244 1073V1070.5M258 1074L260 1073V1070.5" stroke="#111827" stroke-width="2" stroke-linecap="round" stroke-linejoin="round"/>
<path d="M309 1071.55C308.477 1071.55 307.954 1071.7 307.5 1072C306.592 1072.61 305.408 1072.61 304.5 1072C303.592 1071.39 302.408 1071.39 301.5 1072C300.592 1072.61 299.408 1072.61 298.5 1072C297.592 1071.39 296.408 1071.39 295.5 1072C294.592 1072.61 293.408 1072.61 292.5 1072C292.046 1071.7 291.523 1071.55 291 1071.55M297 1062V1064M300 1062V1064M303 1062V1064M297 1059H297.01M300 1059H300.01M303 1059H303.01M309 1077V1070C309 1068.9 308.105 1068 307 1068H293C291.895 1068 291 1068.9 291 1070V1077H309ZM306 1068V1066C306 1064.9 305.105 1064 304 1064H296C294.895 1064 294 1064.9 294 1066V1068H306Z" stroke="#111827" stroke-width="2" stroke-linecap="round" stroke-linejoin="round"/>
</g>
<defs>
<clipPath id="clip0_1_1944">
<rect width="456" height="1080" fill="white"/>
</clipPath>
<clipPath id="clip1_1_1944">
<rect width="24" height="24" fill="white" transform="translate(0 768)"/>
</clipPath>
</defs>
</svg>
