<svg width="20" height="20" viewBox="0 0 20 20" fill="none" xmlns="http://www.w3.org/2000/svg">
<path d="M10.8945 2.55279C10.7251 2.214 10.3788 2 10.0001 2C9.6213 2 9.27504 2.214 9.10564 2.55279L2.10564 16.5528C1.92829 16.9075 1.9773 17.3335 2.23056 17.6386C2.48382 17.9438 2.89348 18.0705 3.27479 17.9615L8.27478 16.533C8.70408 16.4103 9.00006 16.0179 9.00006 15.5714V11C9.00006 10.4477 9.44778 10 10.0001 10C10.5523 10 11.0001 10.4477 11.0001 11V15.5714C11.0001 16.0179 11.296 16.4103 11.7253 16.533L16.7254 17.9615C17.1067 18.0705 17.5163 17.9438 17.7696 17.6386C18.0228 17.3335 18.0718 16.9075 17.8945 16.5528L10.8945 2.55279Z" fill="#111827"/>
</svg>
