<svg width="20" height="20" viewBox="0 0 20 20" fill="none" xmlns="http://www.w3.org/2000/svg">
<path d="M17.4143 2.58579C16.6332 1.80474 15.3669 1.80474 14.5858 2.58579L7.00006 10.1716V13H9.82848L17.4143 5.41421C18.1953 4.63316 18.1953 3.36683 17.4143 2.58579Z" fill="#111827"/>
<path fill-rule="evenodd" clip-rule="evenodd" d="M2.00006 6C2.00006 4.89543 2.89549 4 4.00006 4H8.00006C8.55234 4 9.00006 4.44772 9.00006 5C9.00006 5.55228 8.55234 6 8.00006 6H4.00006V16H14.0001V12C14.0001 11.4477 14.4478 11 15.0001 11C15.5523 11 16.0001 11.4477 16.0001 12V16C16.0001 17.1046 15.1046 18 14.0001 18H4.00006C2.89549 18 2.00006 17.1046 2.00006 16V6Z" fill="#111827"/>
</svg>
