<svg width="20" height="20" viewBox="0 0 20 20" fill="none" xmlns="http://www.w3.org/2000/svg">
<path d="M14.4143 7L17.7072 3.70711C18.0978 3.31658 18.0978 2.68342 17.7072 2.29289C17.3167 1.90237 16.6835 1.90237 16.293 2.29289L13.0001 5.58579V4C13.0001 3.44772 12.5524 3 12.0001 3C11.4478 3 11.0001 3.44772 11.0001 4V7.99931C11.0001 8.00031 11.0001 8.002 11.0001 8.003C11.0005 8.1375 11.0275 8.26575 11.076 8.38278C11.1237 8.49805 11.1939 8.6062 11.2865 8.70055C11.2908 8.70494 11.2952 8.70929 11.2996 8.7136C11.3939 8.80626 11.5021 8.87643 11.6173 8.92412C11.7352 8.97301 11.8645 9 12.0001 9H16.0001C16.5524 9 17.0001 8.55228 17.0001 8C17.0001 7.44772 16.5524 7 16.0001 7H14.4143Z" fill="#111827"/>
<path d="M2.00012 3C2.00012 2.44772 2.44784 2 3.00012 2H5.153C5.64183 2 6.05902 2.35341 6.13939 2.8356L6.8787 7.27147C6.95087 7.70451 6.73218 8.13397 6.33952 8.3303L4.79138 9.10437C5.90768 11.8783 8.1218 14.0924 10.8958 15.2087L11.6698 13.6606C11.8661 13.2679 12.2956 13.0492 12.7286 13.1214L17.1645 13.8607C17.6467 13.9411 18.0001 14.3583 18.0001 14.8471V17C18.0001 17.5523 17.5524 18 17.0001 18H15.0001C7.82042 18 2.00012 12.1797 2.00012 5V3Z" fill="#111827"/>
</svg>
