<svg width="20" height="20" viewBox="0 0 20 20" fill="none" xmlns="http://www.w3.org/2000/svg">
<path d="M17.9242 2.61722C17.8758 2.50014 17.8042 2.3904 17.7093 2.29502C17.7079 2.2936 17.7065 2.29219 17.7051 2.29078C17.5243 2.11106 17.2752 2 17.0001 2H13.0001C12.4478 2 12.0001 2.44772 12.0001 3C12.0001 3.55228 12.4478 4 13.0001 4H14.5859L11.293 7.29289C10.9025 7.68342 10.9025 8.31658 11.293 8.70711C11.6835 9.09763 12.3167 9.09763 12.7072 8.70711L16.0001 5.41421V7C16.0001 7.55228 16.4478 8 17.0001 8C17.5524 8 18.0001 7.55228 18.0001 7V3C18.0001 2.86441 17.9731 2.73512 17.9242 2.61722Z" fill="#111827"/>
<path d="M2.00012 3C2.00012 2.44772 2.44784 2 3.00012 2H5.153C5.64183 2 6.05902 2.35341 6.13939 2.8356L6.8787 7.27147C6.95087 7.70451 6.73218 8.13397 6.33952 8.3303L4.79138 9.10437C5.90768 11.8783 8.1218 14.0924 10.8958 15.2087L11.6698 13.6606C11.8661 13.2679 12.2956 13.0492 12.7286 13.1214L17.1645 13.8607C17.6467 13.9411 18.0001 14.3583 18.0001 14.8471V17C18.0001 17.5523 17.5524 18 17.0001 18H15.0001C7.82042 18 2.00012 12.1797 2.00012 5V3Z" fill="#111827"/>
</svg>
