<svg width="20" height="20" viewBox="0 0 20 20" fill="none" xmlns="http://www.w3.org/2000/svg">
<path d="M2.00012 3C2.00012 2.44772 2.44784 2 3.00012 2H5.153C5.64183 2 6.05902 2.35341 6.13939 2.8356L6.8787 7.27147C6.95087 7.70451 6.73218 8.13397 6.33952 8.3303L4.79138 9.10437C5.90768 11.8783 8.1218 14.0924 10.8958 15.2087L11.6698 13.6606C11.8661 13.2679 12.2956 13.0492 12.7286 13.1214L17.1645 13.8607C17.6467 13.9411 18.0001 14.3583 18.0001 14.8471V17C18.0001 17.5523 17.5524 18 17.0001 18H15.0001C7.82042 18 2.00012 12.1797 2.00012 5V3Z" fill="#111827"/>
<path d="M16.7072 3.29289C17.0978 3.68342 17.0978 4.31658 16.7072 4.70711L15.4143 6L16.7072 7.29289C17.0978 7.68342 17.0978 8.31658 16.7072 8.70711C16.3167 9.09763 15.6835 9.09763 15.293 8.70711L14.0001 7.41421L12.7072 8.70711C12.3167 9.09763 11.6835 9.09763 11.293 8.70711C10.9025 8.31658 10.9025 7.68342 11.293 7.29289L12.5859 6L11.293 4.70711C10.9025 4.31658 10.9025 3.68342 11.293 3.29289C11.6835 2.90237 12.3167 2.90237 12.7072 3.29289L14.0001 4.58579L15.293 3.29289C15.6835 2.90237 16.3167 2.90237 16.7072 3.29289Z" fill="#111827"/>
</svg>
