<svg width="20" height="20" viewBox="0 0 20 20" fill="none" xmlns="http://www.w3.org/2000/svg">
<path fill-rule="evenodd" clip-rule="evenodd" d="M3.00012 3C2.44784 3 2.00012 3.44772 2.00012 4C2.00012 4.55228 2.44784 5 3.00012 5V13C3.00012 14.1046 3.89555 15 5.00012 15H7.58591L6.29302 16.2929C5.90249 16.6834 5.90249 17.3166 6.29302 17.7071C6.68354 18.0976 7.3167 18.0976 7.70723 17.7071L10.0001 15.4142L12.293 17.7071C12.6835 18.0976 13.3167 18.0976 13.7072 17.7071C14.0978 17.3166 14.0978 16.6834 13.7072 16.2929L12.4143 15H15.0001C16.1047 15 17.0001 14.1046 17.0001 13V5C17.5524 5 18.0001 4.55228 18.0001 4C18.0001 3.44772 17.5524 3 17.0001 3H3.00012ZM14.0001 7C14.0001 6.44772 13.5524 6 13.0001 6C12.4478 6 12.0001 6.44772 12.0001 7V11C12.0001 11.5523 12.4478 12 13.0001 12C13.5524 12 14.0001 11.5523 14.0001 11V7ZM11.0001 8C11.0001 7.44772 10.5524 7 10.0001 7C9.44784 7 9.00012 7.44772 9.00012 8V11C9.00012 11.5523 9.44784 12 10.0001 12C10.5524 12 11.0001 11.5523 11.0001 11V8ZM8.00012 9C8.00012 8.44772 7.55241 8 7.00012 8C6.44784 8 6.00012 8.44772 6.00012 9V11C6.00012 11.5523 6.44784 12 7.00012 12C7.55241 12 8.00012 11.5523 8.00012 11V9Z" fill="#111827"/>
</svg>
