<svg width="20" height="20" viewBox="0 0 20 20" fill="none" xmlns="http://www.w3.org/2000/svg">
<path fill-rule="evenodd" clip-rule="evenodd" d="M3.00012 3C2.44784 3 2.00012 3.44772 2.00012 4C2.00012 4.55228 2.44784 5 3.00012 5V13C3.00012 14.1046 3.89555 15 5.00012 15H7.58591L6.29302 16.2929C5.90249 16.6834 5.90249 17.3166 6.29302 17.7071C6.68354 18.0976 7.3167 18.0976 7.70723 17.7071L10.0001 15.4142L12.293 17.7071C12.6835 18.0976 13.3167 18.0976 13.7072 17.7071C14.0978 17.3166 14.0978 16.6834 13.7072 16.2929L12.4143 15H15.0001C16.1047 15 17.0001 14.1046 17.0001 13V5C17.5524 5 18.0001 4.55228 18.0001 4C18.0001 3.44772 17.5524 3 17.0001 3H3.00012ZM14.7072 7.70711C15.0978 7.31658 15.0978 6.68342 14.7072 6.29289C14.3167 5.90237 13.6835 5.90237 13.293 6.29289L10.0001 9.58579L8.70723 8.29289C8.3167 7.90237 7.68354 7.90237 7.29302 8.29289L5.29302 10.2929C4.90249 10.6834 4.90249 11.3166 5.29302 11.7071C5.68354 12.0976 6.3167 12.0976 6.70723 11.7071L8.00012 10.4142L9.29302 11.7071C9.68354 12.0976 10.3167 12.0976 10.7072 11.7071L14.7072 7.70711Z" fill="#111827"/>
</svg>
