<svg width="20" height="20" viewBox="0 0 20 20" fill="none" xmlns="http://www.w3.org/2000/svg">
<path fill-rule="evenodd" clip-rule="evenodd" d="M5.00012 4V7H4.00012C2.89555 7 2.00012 7.89543 2.00012 9V12C2.00012 13.1046 2.89555 14 4.00012 14H5.00012V16C5.00012 17.1046 5.89555 18 7.00012 18H13.0001C14.1047 18 15.0001 17.1046 15.0001 16V14H16.0001C17.1047 14 18.0001 13.1046 18.0001 12V9C18.0001 7.89543 17.1047 7 16.0001 7H15.0001V4C15.0001 2.89543 14.1047 2 13.0001 2H7.00012C5.89555 2 5.00012 2.89543 5.00012 4ZM13.0001 4H7.00012V7H13.0001V4ZM13.0001 12H7.00012V16H13.0001V12Z" fill="#111827"/>
</svg>
