<svg width="20" height="20" viewBox="0 0 20 20" fill="none" xmlns="http://www.w3.org/2000/svg">
<path d="M10.0001 3.5C10.0001 2.67157 10.6717 2 11.5001 2C12.3285 2 13.0001 2.67157 13.0001 3.5V4C13.0001 4.55228 13.4478 5 14.0001 5H17.0001C17.5524 5 18.0001 5.44772 18.0001 6V9C18.0001 9.55228 17.5524 10 17.0001 10H16.5001C15.6717 10 15.0001 10.6716 15.0001 11.5C15.0001 12.3284 15.6717 13 16.5001 13H17.0001C17.5524 13 18.0001 13.4477 18.0001 14V17C18.0001 17.5523 17.5524 18 17.0001 18H14.0001C13.4478 18 13.0001 17.5523 13.0001 17V16.5C13.0001 15.6716 12.3285 15 11.5001 15C10.6717 15 10.0001 15.6716 10.0001 16.5V17C10.0001 17.5523 9.55241 18 9.00012 18H6.00012C5.44784 18 5.00012 17.5523 5.00012 17V14C5.00012 13.4477 4.55241 13 4.00012 13H3.50012C2.67169 13 2.00012 12.3284 2.00012 11.5C2.00012 10.6716 2.67169 10 3.50012 10H4.00012C4.55241 10 5.00012 9.55228 5.00012 9V6C5.00012 5.44772 5.44784 5 6.00012 5H9.00012C9.55241 5 10.0001 4.55228 10.0001 4V3.5Z" fill="#111827"/>
</svg>
