<svg width="20" height="20" viewBox="0 0 20 20" fill="none" xmlns="http://www.w3.org/2000/svg">
<path fill-rule="evenodd" clip-rule="evenodd" d="M3.00012 4C3.00012 3.44772 3.44784 3 4.00012 3H7.00012C7.55241 3 8.00012 3.44772 8.00012 4V7C8.00012 7.55228 7.55241 8 7.00012 8H4.00012C3.44784 8 3.00012 7.55228 3.00012 7V4ZM5.00012 6V5H6.00012V6H5.00012Z" fill="#111827"/>
<path fill-rule="evenodd" clip-rule="evenodd" d="M3.00012 13C3.00012 12.4477 3.44784 12 4.00012 12H7.00012C7.55241 12 8.00012 12.4477 8.00012 13V16C8.00012 16.5523 7.55241 17 7.00012 17H4.00012C3.44784 17 3.00012 16.5523 3.00012 16V13ZM5.00012 15V14H6.00012V15H5.00012Z" fill="#111827"/>
<path fill-rule="evenodd" clip-rule="evenodd" d="M13.0001 3C12.4478 3 12.0001 3.44772 12.0001 4V7C12.0001 7.55228 12.4478 8 13.0001 8H16.0001C16.5524 8 17.0001 7.55228 17.0001 7V4C17.0001 3.44772 16.5524 3 16.0001 3H13.0001ZM14.0001 5V6H15.0001V5H14.0001Z" fill="#111827"/>
<path d="M11.0001 4C11.0001 3.44772 10.5524 3 10.0001 3C9.44784 3 9.00012 3.44772 9.00012 4V5C9.00012 5.55228 9.44784 6 10.0001 6C10.5524 6 11.0001 5.55228 11.0001 5V4Z" fill="#111827"/>
<path d="M10.0001 7C10.5524 7 11.0001 7.44772 11.0001 8V9H13.0001C13.5524 9 14.0001 9.44772 14.0001 10C14.0001 10.5523 13.5524 11 13.0001 11H10.0001C9.44784 11 9.00012 10.5523 9.00012 10V8C9.00012 7.44772 9.44784 7 10.0001 7Z" fill="#111827"/>
<path d="M16.0001 9C15.4478 9 15.0001 9.44772 15.0001 10C15.0001 10.5523 15.4478 11 16.0001 11C16.5524 11 17.0001 10.5523 17.0001 10C17.0001 9.44772 16.5524 9 16.0001 9Z" fill="#111827"/>
<path d="M9.00012 13C9.00012 12.4477 9.44784 12 10.0001 12H11.0001C11.5524 12 12.0001 12.4477 12.0001 13C12.0001 13.5523 11.5524 14 11.0001 14V16C11.0001 16.5523 10.5524 17 10.0001 17C9.44784 17 9.00012 16.5523 9.00012 16V13Z" fill="#111827"/>
<path d="M7.00012 11C7.55241 11 8.00012 10.5523 8.00012 10C8.00012 9.44772 7.55241 9 7.00012 9H4.00012C3.44784 9 3.00012 9.44771 3.00012 10C3.00012 10.5523 3.44784 11 4.00012 11H7.00012Z" fill="#111827"/>
<path d="M17.0001 13C17.0001 13.5523 16.5524 14 16.0001 14H14.0001C13.4478 14 13.0001 13.5523 13.0001 13C13.0001 12.4477 13.4478 12 14.0001 12H16.0001C16.5524 12 17.0001 12.4477 17.0001 13Z" fill="#111827"/>
<path d="M16.0001 17C16.5524 17 17.0001 16.5523 17.0001 16C17.0001 15.4477 16.5524 15 16.0001 15H13.0001C12.4478 15 12.0001 15.4477 12.0001 16C12.0001 16.5523 12.4478 17 13.0001 17H16.0001Z" fill="#111827"/>
</svg>
