<svg width="20" height="20" viewBox="0 0 20 20" fill="none" xmlns="http://www.w3.org/2000/svg">
<path fill-rule="evenodd" clip-rule="evenodd" d="M5.00012 2C3.89555 2 3.00012 2.89543 3.00012 4V18L6.50012 16L10.0001 18L13.5001 16L17.0001 18V4C17.0001 2.89543 16.1047 2 15.0001 2H5.00012ZM7.50012 5C6.67169 5 6.00012 5.67157 6.00012 6.5C6.00012 7.32843 6.67169 8 7.50012 8C8.32855 8 9.00012 7.32843 9.00012 6.5C9.00012 5.67157 8.32855 5 7.50012 5ZM13.7072 5.29289C13.3167 4.90237 12.6835 4.90237 12.293 5.29289L6.29302 11.2929C5.90249 11.6834 5.90249 12.3166 6.29302 12.7071C6.68354 13.0976 7.3167 13.0976 7.70723 12.7071L13.7072 6.70711C14.0978 6.31658 14.0978 5.68342 13.7072 5.29289ZM12.5001 10C11.6717 10 11.0001 10.6716 11.0001 11.5C11.0001 12.3284 11.6717 13 12.5001 13C13.3285 13 14.0001 12.3284 14.0001 11.5C14.0001 10.6716 13.3285 10 12.5001 10Z" fill="#111827"/>
</svg>
