<svg width="20" height="20" viewBox="0 0 20 20" fill="none" xmlns="http://www.w3.org/2000/svg">
<path fill-rule="evenodd" clip-rule="evenodd" d="M5.00012 2C3.89555 2 3.00012 2.89543 3.00012 4V18L6.50012 16L10.0001 18L13.5001 16L17.0001 18V4C17.0001 2.89543 16.1047 2 15.0001 2H5.00012ZM9.70723 5.70711C10.0978 5.31658 10.0978 4.68342 9.70723 4.29289C9.31671 3.90237 8.68354 3.90237 8.29302 4.29289L5.29302 7.29289C4.90249 7.68342 4.90249 8.31658 5.29302 8.70711L8.29302 11.7071C8.68354 12.0976 9.31671 12.0976 9.70723 11.7071C10.0978 11.3166 10.0978 10.6834 9.70723 10.2929L8.41434 9H10.0001C11.657 9 13.0001 10.3431 13.0001 12V13C13.0001 13.5523 13.4478 14 14.0001 14C14.5524 14 15.0001 13.5523 15.0001 13V12C15.0001 9.23858 12.7615 7 10.0001 7H8.41434L9.70723 5.70711Z" fill="#111827"/>
</svg>
