<svg width="20" height="20" viewBox="0 0 20 20" fill="none" xmlns="http://www.w3.org/2000/svg">
<path fill-rule="evenodd" clip-rule="evenodd" d="M4.00012 2C4.55241 2 5.00012 2.44772 5.00012 3V5.10125C6.27022 3.80489 8.04064 3 10.0001 3C13.0495 3 15.6411 4.94932 16.6016 7.66675C16.7856 8.18747 16.5127 8.75879 15.992 8.94284C15.4712 9.12689 14.8999 8.85396 14.7159 8.33325C14.029 6.38991 12.1756 5 10.0001 5C8.36519 5 6.91216 5.78502 5.99947 7H9.00012C9.55241 7 10.0001 7.44772 10.0001 8C10.0001 8.55228 9.55241 9 9.00012 9H4.00012C3.44784 9 3.00012 8.55228 3.00012 8V3C3.00012 2.44772 3.44784 2 4.00012 2ZM4.00829 11.0572C4.529 10.8731 5.10033 11.146 5.28437 11.6668C5.97124 13.6101 7.82465 15 10.0001 15C11.6351 15 13.0881 14.215 14.0008 13L11.0001 13C10.4478 13 10.0001 12.5523 10.0001 12C10.0001 11.4477 10.4478 11 11.0001 11H16.0001C16.2653 11 16.5197 11.1054 16.7072 11.2929C16.8948 11.4804 17.0001 11.7348 17.0001 12V17C17.0001 17.5523 16.5524 18 16.0001 18C15.4478 18 15.0001 17.5523 15.0001 17V14.8987C13.73 16.1951 11.9596 17 10.0001 17C6.95072 17 4.35917 15.0507 3.39869 12.3332C3.21465 11.8125 3.48757 11.2412 4.00829 11.0572Z" fill="#111827"/>
</svg>
