<svg width="20" height="20" viewBox="0 0 20 20" fill="none" xmlns="http://www.w3.org/2000/svg">
<path fill-rule="evenodd" clip-rule="evenodd" d="M7.70719 3.29289C8.09771 3.68342 8.09771 4.31658 7.70719 4.70711L5.41428 7H11.0001C14.8661 7 18.0001 10.134 18.0001 14V16C18.0001 16.5523 17.5524 17 17.0001 17C16.4478 17 16.0001 16.5523 16.0001 16V14C16.0001 11.2386 13.7615 9 11.0001 9H5.41428L7.70719 11.2929C8.09771 11.6834 8.09771 12.3166 7.70719 12.7071C7.31666 13.0976 6.68349 13.0976 6.29297 12.7071L2.29296 8.70711C1.90243 8.31658 1.90243 7.68342 2.29296 7.29289L6.29297 3.29289C6.68349 2.90237 7.31666 2.90237 7.70719 3.29289Z" fill="#111827"/>
</svg>
