<svg width="20" height="20" viewBox="0 0 20 20" fill="none" xmlns="http://www.w3.org/2000/svg">
<path d="M8.44536 14.8321C8.75222 15.0366 9.14676 15.0557 9.47192 14.8817C9.79708 14.7077 10.0001 14.3688 10.0001 14L10.0001 11.2019L15.4454 14.8321C15.7522 15.0366 16.1468 15.0557 16.4719 14.8817C16.7971 14.7077 17.0001 14.3688 17.0001 14V6C17.0001 5.63121 16.7971 5.29235 16.4719 5.11833C16.1468 4.94431 15.7522 4.96338 15.4454 5.16795L10.0001 8.79815V6C10.0001 5.63121 9.79708 5.29235 9.47192 5.11833C9.14676 4.94431 8.75222 4.96338 8.44536 5.16795L2.44536 9.16795C2.16716 9.35342 2.00006 9.66565 2.00006 10C2.00006 10.3344 2.16716 10.6466 2.44536 10.8321L8.44536 14.8321Z" fill="#111827"/>
</svg>
