<svg width="20" height="20" viewBox="0 0 20 20" fill="none" xmlns="http://www.w3.org/2000/svg">
<path d="M5.00012 3C4.44784 3 4.00012 3.44772 4.00012 4C4.00012 4.55228 4.44784 5 5.00012 5C10.523 5 15.0001 9.47715 15.0001 15C15.0001 15.5523 15.4478 16 16.0001 16C16.5524 16 17.0001 15.5523 17.0001 15C17.0001 8.37258 11.6275 3 5.00012 3Z" fill="#111827"/>
<path d="M4.00012 9C4.00012 8.44772 4.44784 8 5.00012 8C8.86612 8 12.0001 11.134 12.0001 15C12.0001 15.5523 11.5524 16 11.0001 16C10.4478 16 10.0001 15.5523 10.0001 15C10.0001 12.2386 7.76155 10 5.00012 10C4.44784 10 4.00012 9.55228 4.00012 9Z" fill="#111827"/>
<path d="M3.00012 15C3.00012 13.8954 3.89555 13 5.00012 13C6.10469 13 7.00012 13.8954 7.00012 15C7.00012 16.1046 6.10469 17 5.00012 17C3.89555 17 3.00012 16.1046 3.00012 15Z" fill="#111827"/>
</svg>
