<svg width="20" height="20" viewBox="0 0 20 20" fill="none" xmlns="http://www.w3.org/2000/svg">
<path d="M9.70723 7.29289C9.3167 6.90237 8.68354 6.90237 8.29302 7.29289C7.90249 7.68342 7.90249 8.31658 8.29302 8.70711L11.293 11.7071C11.6835 12.0976 12.3167 12.0976 12.7072 11.7071L15.7072 8.70711C16.0978 8.31658 16.0978 7.68342 15.7072 7.29289C15.3167 6.90237 14.6835 6.90237 14.293 7.29289L13.0001 8.58579L13.0001 5H16.0001C17.1047 5 18.0001 5.89543 18.0001 7V12C18.0001 13.1046 17.1047 14 16.0001 14H8.00012C6.89555 14 6.00012 13.1046 6.00012 12V7C6.00012 5.89543 6.89555 5 8.00012 5H11.0001L11.0001 8.58579L9.70723 7.29289Z" fill="#111827"/>
<path d="M11.0001 3C11.0001 2.44772 11.4478 2 12.0001 2C12.5524 2 13.0001 2.44772 13.0001 3L13.0001 5H11.0001L11.0001 3Z" fill="#111827"/>
<path d="M4.00012 9C2.89555 9 2.00012 9.89543 2.00012 11V16C2.00012 17.1046 2.89555 18 4.00012 18H12.0001C13.1047 18 14.0001 17.1046 14.0001 16H4.00012V9Z" fill="#111827"/>
</svg>
