<svg width="20" height="20" viewBox="0 0 20 20" fill="none" xmlns="http://www.w3.org/2000/svg">
<path fill-rule="evenodd" clip-rule="evenodd" d="M5.50012 2C3.56713 2 2.00012 3.567 2.00012 5.5C2.00012 7.433 3.56713 9 5.50012 9C6.10288 9 6.67005 8.84763 7.16522 8.57931L8.58595 10L7.16527 11.4207C6.67009 11.1524 6.1029 11 5.50012 11C3.56713 11 2.00012 12.567 2.00012 14.5C2.00012 16.433 3.56713 18 5.50012 18C7.43312 18 9.00012 16.433 9.00012 14.5C9.00012 13.8973 8.84776 13.3301 8.57946 12.835L16.7073 4.70711C17.0978 4.31658 17.0978 3.68342 16.7073 3.29289C16.3168 2.90237 15.6836 2.90237 15.2931 3.29289L10.0002 8.58582L8.57943 7.1651C8.84775 6.66993 9.00012 6.10276 9.00012 5.5C9.00012 3.567 7.43312 2 5.50012 2ZM4.00012 5.5C4.00012 4.67157 4.67169 4 5.50012 4C6.32855 4 7.00012 4.67157 7.00012 5.5C7.00012 6.32843 6.32855 7 5.50012 7C4.67169 7 4.00012 6.32843 4.00012 5.5ZM4.00012 14.5C4.00012 13.6716 4.67169 13 5.50012 13C6.32855 13 7.00012 13.6716 7.00012 14.5C7.00012 15.3284 6.32855 16 5.50012 16C4.67169 16 4.00012 15.3284 4.00012 14.5Z" fill="#111827"/>
<path d="M12.8285 11.4142C12.438 11.0237 11.8049 11.0237 11.4143 11.4142C11.0238 11.8047 11.0238 12.4379 11.4143 12.8284L15.293 16.7071C15.6835 17.0976 16.3167 17.0976 16.7072 16.7071C17.0978 16.3166 17.0978 15.6834 16.7072 15.2929L12.8285 11.4142Z" fill="#111827"/>
</svg>
