<svg width="20" height="20" viewBox="0 0 20 20" fill="none" xmlns="http://www.w3.org/2000/svg">
<path d="M15.0001 8C16.657 8 18.0001 6.65685 18.0001 5C18.0001 3.34315 16.657 2 15.0001 2C13.3433 2 12.0001 3.34315 12.0001 5C12.0001 5.12548 12.0078 5.24917 12.0228 5.37061L7.08272 7.84064C6.54316 7.32015 5.80903 7 5.00012 7C3.34327 7 2.00012 8.34315 2.00012 10C2.00012 11.6569 3.34327 13 5.00012 13C5.80904 13 6.54319 12.6798 7.08275 12.1593L12.0228 14.6293C12.0078 14.7508 12.0001 14.8745 12.0001 15C12.0001 16.6569 13.3433 18 15.0001 18C16.657 18 18.0001 16.6569 18.0001 15C18.0001 13.3431 16.657 12 15.0001 12C14.1912 12 13.4571 12.3201 12.9175 12.8406L7.97746 10.3706C7.99242 10.2492 8.00012 10.1255 8.00012 10C8.00012 9.8745 7.99242 9.7508 7.97745 9.62934L12.9175 7.15932C13.4571 7.67984 14.1912 8 15.0001 8Z" fill="#111827"/>
</svg>
