<svg width="20" height="20" viewBox="0 0 20 20" fill="none" xmlns="http://www.w3.org/2000/svg">
<path fill-rule="evenodd" clip-rule="evenodd" d="M10.0001 2C7.79098 2 6.00012 3.79086 6.00012 6V7H5.00013C4.49058 7 4.06251 7.38314 4.00624 7.88957L3.00624 16.8896C2.97483 17.1723 3.0653 17.455 3.255 17.6669C3.4447 17.8789 3.71568 18 4.00013 18H16.0001C16.2846 18 16.5556 17.8789 16.7453 17.6669C16.935 17.455 17.0254 17.1723 16.994 16.8896L15.994 7.88957C15.9377 7.38314 15.5097 7 15.0001 7H14.0001V6C14.0001 3.79086 12.2093 2 10.0001 2ZM12.0001 7V6C12.0001 4.89543 11.1047 4 10.0001 4C8.89555 4 8.00012 4.89543 8.00012 6V7H12.0001ZM6.00012 10C6.00012 9.44772 6.44784 9 7.00012 9C7.55241 9 8.00012 9.44772 8.00012 10C8.00012 10.5523 7.55241 11 7.00012 11C6.44784 11 6.00012 10.5523 6.00012 10ZM13.0001 9C12.4478 9 12.0001 9.44772 12.0001 10C12.0001 10.5523 12.4478 11 13.0001 11C13.5524 11 14.0001 10.5523 14.0001 10C14.0001 9.44772 13.5524 9 13.0001 9Z" fill="#111827"/>
</svg>
