<svg width="20" height="20" viewBox="0 0 20 20" fill="none" xmlns="http://www.w3.org/2000/svg">
<path d="M18.0001 3C18.0001 2.65342 17.8207 2.33156 17.5259 2.14935C17.231 1.96714 16.8629 1.95058 16.5529 2.10557L8.76405 6H5.00012C3.34327 6 2.00012 7.34315 2.00012 9C2.00012 10.6569 3.34327 12 5.00012 12H5.27937L7.05145 17.3162C7.18756 17.7246 7.5697 18 8.00013 18H9.00013C9.55241 18 10.0001 17.5523 10.0001 17V12.618L16.5529 15.8944C16.8629 16.0494 17.231 16.0329 17.5259 15.8507C17.8207 15.6684 18.0001 15.3466 18.0001 15V3Z" fill="#111827"/>
</svg>
