<svg width="20" height="20" viewBox="0 0 20 20" fill="none" xmlns="http://www.w3.org/2000/svg">
<path fill-rule="evenodd" clip-rule="evenodd" d="M5.0505 3.63591C5.44102 4.02644 5.44102 4.6596 5.0505 5.05012C2.31683 7.78379 2.31683 12.2159 5.0505 14.9496C5.44102 15.3401 5.44102 15.9733 5.0505 16.3638C4.65997 16.7544 4.02681 16.7544 3.63628 16.3638C0.121564 12.8491 0.121565 7.15063 3.63628 3.63591C4.02681 3.24539 4.65997 3.24539 5.0505 3.63591ZM14.95 3.63614C15.3405 3.24562 15.9737 3.24562 16.3642 3.63614C19.8789 7.15086 19.8789 12.8493 16.3642 16.3641C15.9737 16.7546 15.3405 16.7546 14.95 16.3641C14.5595 15.9735 14.5595 15.3404 14.95 14.9499C17.6837 12.2162 17.6837 7.78403 14.95 5.05036C14.5595 4.65983 14.5595 4.02667 14.95 3.63614ZM7.87893 6.46434C8.26945 6.85486 8.26945 7.48803 7.87893 7.87855C6.70736 9.05012 6.70736 10.9496 7.87893 12.1212C8.26945 12.5117 8.26945 13.1449 7.87893 13.5354C7.4884 13.9259 6.85524 13.9259 6.46472 13.5354C4.51209 11.5828 4.5121 8.41696 6.46472 6.46434C6.85524 6.07381 7.48841 6.07381 7.87893 6.46434ZM12.1216 6.46457C12.5121 6.07405 13.1453 6.07405 13.5358 6.46457C15.4884 8.41719 15.4884 11.583 13.5358 13.5356C13.1453 13.9262 12.5121 13.9262 12.1216 13.5356C11.731 13.1451 11.731 12.5119 12.1216 12.1214C13.2931 10.9499 13.2931 9.05036 12.1216 7.87878C11.731 7.48826 11.731 6.85509 12.1216 6.46457ZM10.0002 9.0001C10.5525 9.0001 11.0002 9.44782 11.0002 10.0001V10.0101C11.0002 10.5624 10.5525 11.0101 10.0002 11.0101C9.44796 11.0101 9.00025 10.5624 9.00025 10.0101V10.0001C9.00025 9.44782 9.44796 9.0001 10.0002 9.0001Z" fill="#111827"/>
</svg>
