<svg width="20" height="20" viewBox="0 0 20 20" fill="none" xmlns="http://www.w3.org/2000/svg">
<path d="M3.70723 2.29289C3.3167 1.90237 2.68354 1.90237 2.29302 2.29289C1.90249 2.68342 1.90249 3.31658 2.29302 3.70711L9.21438 10.6285C9.26338 10.6906 9.31959 10.7469 9.38176 10.7958L16.293 17.7071C16.6835 18.0976 17.3167 18.0976 17.7072 17.7071C18.0978 17.3166 18.0978 16.6834 17.7072 16.2929L17.0324 15.6181C19.8627 12.0844 19.6399 6.91177 16.3642 3.63603C15.9737 3.24551 15.3405 3.24551 14.95 3.63603C14.5595 4.02656 14.5595 4.65972 14.95 5.05025C17.4436 7.54386 17.6626 11.4508 15.6069 14.1926L14.1721 12.7578C15.4584 10.8164 15.2463 8.17494 13.5358 6.46446C13.1453 6.07394 12.5121 6.07394 12.1216 6.46446C11.731 6.85498 11.731 7.48815 12.1216 7.87867C13.0452 8.80233 13.2407 10.1784 12.7079 11.2936L10.7165 9.30219C10.7104 9.29595 10.7043 9.28979 10.698 9.2837L3.70723 2.29289Z" fill="#111827"/>
<path d="M3.23778 8.1865C3.38025 7.65291 3.06317 7.10485 2.52958 6.96239C1.99599 6.81992 1.44793 7.137 1.30547 7.67059C0.504622 10.6701 1.27994 14.0074 3.63627 16.3637C4.0268 16.7542 4.65996 16.7542 5.05048 16.3637C5.44101 15.9732 5.44101 15.34 5.05048 14.9495C3.21937 13.1184 2.61352 10.5246 3.23778 8.1865Z" fill="#111827"/>
<path d="M7.40088 11.4995C7.12447 11.0214 6.51278 10.8578 6.03465 11.1343C5.55651 11.4107 5.39297 12.0223 5.66938 12.5005C5.88379 12.8714 6.14919 13.2198 6.4647 13.5353C6.85523 13.9258 7.48839 13.9258 7.87892 13.5353C8.26944 13.1448 8.26944 12.5116 7.87892 12.1211C7.68783 11.93 7.52878 11.7208 7.40088 11.4995Z" fill="#111827"/>
</svg>
