<svg width="20" height="20" viewBox="0 0 20 20" fill="none" xmlns="http://www.w3.org/2000/svg">
<path fill-rule="evenodd" clip-rule="evenodd" d="M18.0001 10C18.0001 14.4183 14.4184 18 10.0001 18C5.58184 18 2.00012 14.4183 2.00012 10C2.00012 5.58172 5.58184 2 10.0001 2C14.4184 2 18.0001 5.58172 18.0001 10ZM16.0001 10C16.0001 10.9926 15.7591 11.9289 15.3323 12.7536L13.8078 11.229C13.9327 10.8418 14.0001 10.4288 14.0001 10C14.0001 9.67136 13.9605 9.35198 13.8857 9.04638L15.4485 7.4836C15.8026 8.24889 16.0001 9.10137 16.0001 10ZM10.8347 13.9128L12.4158 15.4939C11.6767 15.8193 10.8595 16 10.0001 16C9.10149 16 8.24901 15.8024 7.48372 15.4484L9.0465 13.8856C9.35211 13.9604 9.67149 14 10.0001 14C10.2863 14 10.5655 13.9699 10.8347 13.9128ZM6.15819 11.1171C6.05528 10.7626 6.00012 10.3877 6.00012 10C6.00012 9.66808 6.04055 9.3456 6.11675 9.03722L6.03793 9.11604L4.50624 7.58436C4.1808 8.32343 4.00012 9.14061 4.00012 10C4.00012 10.9539 4.2227 11.8557 4.61876 12.6565L6.15819 11.1171ZM7.24651 4.66778C8.07119 4.24104 9.00751 4 10.0001 4C10.954 4 11.8558 4.22258 12.6566 4.61864L11.1172 6.15807C10.7627 6.05516 10.3878 6 10.0001 6C9.57134 6 9.15832 6.06747 8.7711 6.19236L7.24651 4.66778ZM12.0001 10C12.0001 11.1046 11.1047 12 10.0001 12C8.89555 12 8.00012 11.1046 8.00012 10C8.00012 8.89543 8.89555 8 10.0001 8C11.1047 8 12.0001 8.89543 12.0001 10Z" fill="#111827"/>
</svg>
