<svg width="20" height="20" viewBox="0 0 20 20" fill="none" xmlns="http://www.w3.org/2000/svg">
<path d="M8.00012 5C7.44784 5 7.00012 5.44771 7.00012 6C7.00012 6.55228 7.44784 7 8.00012 7L13.5859 7L12.293 8.29289C11.9025 8.68342 11.9025 9.31658 12.293 9.70711C12.6835 10.0976 13.3167 10.0976 13.7072 9.70711L16.7072 6.70711C16.8948 6.51957 17.0001 6.26522 17.0001 6C17.0001 5.73478 16.8948 5.48043 16.7072 5.29289L13.7072 2.29289C13.3167 1.90237 12.6835 1.90237 12.293 2.29289C11.9025 2.68342 11.9025 3.31658 12.293 3.70711L13.5859 5L8.00012 5Z" fill="#111827"/>
<path d="M12.0001 15C12.5524 15 13.0001 14.5523 13.0001 14C13.0001 13.4477 12.5524 13 12.0001 13L6.41434 13L7.70723 11.7071C8.09775 11.3166 8.09775 10.6834 7.70723 10.2929C7.31671 9.90237 6.68354 9.90237 6.29302 10.2929L3.29301 13.2929C3.10548 13.4804 3.00012 13.7348 3.00012 14C3.00012 14.2652 3.10548 14.5196 3.29301 14.7071L6.29301 17.7071C6.68354 18.0976 7.3167 18.0976 7.70723 17.7071C8.09775 17.3166 8.09775 16.6834 7.70723 16.2929L6.41434 15L12.0001 15Z" fill="#111827"/>
</svg>
