<svg width="20" height="20" viewBox="0 0 20 20" fill="none" xmlns="http://www.w3.org/2000/svg">
<path d="M5.00013 12C5.00013 12.5523 5.44784 13 6.00013 13C6.55242 13 7.00013 12.5523 7.00013 12L7.00013 6.41421L8.29303 7.70711C8.68356 8.09763 9.31672 8.09763 9.70725 7.70711C10.0978 7.31658 10.0978 6.68342 9.70725 6.29289L6.70724 3.29289C6.5197 3.10536 6.26535 3 6.00013 3C5.73492 3 5.48056 3.10536 5.29302 3.29289L2.29302 6.29289C1.90249 6.68342 1.90249 7.31658 2.29302 7.70711C2.68354 8.09763 3.31671 8.09763 3.70723 7.70711L5.00013 6.41421L5.00013 12Z" fill="#111827"/>
<path d="M15.0002 8C15.0002 7.44772 14.5524 7 14.0002 7C13.4479 7 13.0001 7.44772 13.0001 8L13.0001 13.5858L11.7073 12.2929C11.3167 11.9024 10.6836 11.9024 10.293 12.2929C9.90251 12.6834 9.90251 13.3166 10.293 13.7071L13.293 16.7071C13.4806 16.8946 13.7349 17 14.0001 17C14.2654 17 14.5197 16.8946 14.7073 16.7071L17.7073 13.7071C18.0978 13.3166 18.0978 12.6834 17.7073 12.2929C17.3167 11.9024 16.6836 11.9024 16.293 12.2929L15.0002 13.5858L15.0002 8Z" fill="#111827"/>
</svg>
