<svg width="20" height="20" viewBox="0 0 20 20" fill="none" xmlns="http://www.w3.org/2000/svg">
<path fill-rule="evenodd" clip-rule="evenodd" d="M5.00006 4C3.34321 4 2.00006 5.34315 2.00006 7V13C2.00006 14.6569 3.34321 16 5.00006 16H15.0001C16.6569 16 18.0001 14.6569 18.0001 13V7C18.0001 5.34315 16.6569 4 15.0001 4H5.00006ZM4.00006 13V12H9.00006V14H5.00006C4.44778 14 4.00006 13.5523 4.00006 13ZM11.0001 14H15.0001C15.5524 14 16.0001 13.5523 16.0001 13V12H11.0001V14ZM11.0001 10H16.0001V8H11.0001V10ZM9.00006 8H4.00006V10H9.00006V8Z" fill="#111827"/>
</svg>
