<svg width="20" height="20" viewBox="0 0 20 20" fill="none" xmlns="http://www.w3.org/2000/svg">
<path fill-rule="evenodd" clip-rule="evenodd" d="M17.7072 9.29289C18.0978 9.68342 18.0978 10.3166 17.7072 10.7071L10.7072 17.7071C10.3167 18.0976 9.68354 18.0976 9.29302 17.7071L2.29302 10.7071C2.09772 10.5118 2.00009 10.2558 2.00012 9.99988V5C2.00012 3.34315 3.34327 2 5.00012 2H10.0004C10.2562 2.00007 10.512 2.0977 10.7072 2.29289L17.7072 9.29289ZM5.00012 6C5.55241 6 6.00012 5.55228 6.00012 5C6.00012 4.44772 5.55241 4 5.00012 4C4.44784 4 4.00012 4.44772 4.00012 5C4.00012 5.55228 4.44784 6 5.00012 6Z" fill="#111827"/>
</svg>
