<svg width="20" height="20" viewBox="0 0 20 20" fill="none" xmlns="http://www.w3.org/2000/svg">
<path d="M3.00006 4C3.00006 3.44772 3.44778 3 4.00006 3H16.0001C16.5523 3 17.0001 3.44772 17.0001 4V6C17.0001 6.55228 16.5523 7 16.0001 7H4.00006C3.44778 7 3.00006 6.55228 3.00006 6V4Z" fill="#111827"/>
<path d="M3.00006 10C3.00006 9.44771 3.44778 9 4.00006 9H10.0001C10.5523 9 11.0001 9.44771 11.0001 10V16C11.0001 16.5523 10.5523 17 10.0001 17H4.00006C3.44778 17 3.00006 16.5523 3.00006 16V10Z" fill="#111827"/>
<path d="M14.0001 9C13.4478 9 13.0001 9.44771 13.0001 10V16C13.0001 16.5523 13.4478 17 14.0001 17H16.0001C16.5523 17 17.0001 16.5523 17.0001 16V10C17.0001 9.44771 16.5523 9 16.0001 9H14.0001Z" fill="#111827"/>
</svg>
