<svg width="20" height="20" viewBox="0 0 20 20" fill="none" xmlns="http://www.w3.org/2000/svg">
<path fill-rule="evenodd" clip-rule="evenodd" d="M2.00012 5C2.00012 3.89543 2.89555 3 4.00012 3H16.0001C17.1047 3 18.0001 3.89543 18.0001 5V15C18.0001 16.1046 17.1047 17 16.0001 17H4.00012C2.89555 17 2.00012 16.1046 2.00012 15V5ZM5.29302 6.29289C5.68354 5.90237 6.3167 5.90237 6.70723 6.29289L9.70723 9.29289C10.0978 9.68342 10.0978 10.3166 9.70723 10.7071L6.70723 13.7071C6.3167 14.0976 5.68354 14.0976 5.29302 13.7071C4.90249 13.3166 4.90249 12.6834 5.29302 12.2929L7.58591 10L5.29302 7.70711C4.90249 7.31658 4.90249 6.68342 5.29302 6.29289ZM11.0001 12C10.4478 12 10.0001 12.4477 10.0001 13C10.0001 13.5523 10.4478 14 11.0001 14H14.0001C14.5524 14 15.0001 13.5523 15.0001 13C15.0001 12.4477 14.5524 12 14.0001 12H11.0001Z" fill="#111827"/>
</svg>
