<svg width="20" height="20" viewBox="0 0 20 20" fill="none" xmlns="http://www.w3.org/2000/svg">
<path d="M18.0002 9.5C18.0002 10.3284 17.3286 11 16.5002 11C15.6717 11 15.0002 10.3284 15.0002 9.5V3.5C15.0002 2.67157 15.6717 2 16.5002 2C17.3286 2 18.0002 2.67157 18.0002 3.5V9.5Z" fill="#111827"/>
<path d="M14.0002 9.66667V4.23607C14.0002 3.47852 13.5722 2.786 12.8946 2.44721L12.8447 2.42229C12.2893 2.14458 11.6769 2 11.0559 2L5.63977 2C4.6864 2 3.86558 2.67292 3.67861 3.60777L2.47861 9.60777C2.23109 10.8453 3.17767 12 4.43977 12H8.00016V16C8.00016 17.1046 8.89559 18 10.0002 18C10.5524 18 11.0002 17.5523 11.0002 17V16.3333C11.0002 15.4679 11.2809 14.6257 11.8002 13.9333L13.2002 12.0667C13.7194 11.3743 14.0002 10.5321 14.0002 9.66667Z" fill="#111827"/>
</svg>
