<svg width="20" height="20" viewBox="0 0 20 20" fill="none" xmlns="http://www.w3.org/2000/svg">
<path d="M2.00012 10.5C2.00012 9.67157 2.67169 9 3.50012 9C4.32855 9 5.00012 9.67157 5.00012 10.5V16.5C5.00012 17.3284 4.32855 18 3.50012 18C2.67169 18 2.00012 17.3284 2.00012 16.5V10.5Z" fill="#111827"/>
<path d="M6.00012 10.3333V15.7639C6.00012 16.5215 6.42813 17.214 7.10569 17.5528L7.15554 17.5777C7.71096 17.8554 8.32341 18 8.94439 18H14.3605C15.3139 18 16.1347 17.3271 16.3217 16.3922L17.5217 10.3922C17.7692 9.15465 16.8226 8 15.5605 8H12.0001V4C12.0001 2.89543 11.1047 2 10.0001 2C9.44784 2 9.00012 2.44772 9.00012 3V3.66667C9.00012 4.53215 8.71941 5.37428 8.20012 6.06667L6.80012 7.93333C6.28083 8.62572 6.00012 9.46785 6.00012 10.3333Z" fill="#111827"/>
</svg>
