<svg width="20" height="20" viewBox="0 0 20 20" fill="none" xmlns="http://www.w3.org/2000/svg">
<path fill-rule="evenodd" clip-rule="evenodd" d="M7.00007 2C7.55236 2 8.00007 2.44772 8.00007 3V4H8.73229C8.74406 3.99979 8.75587 3.99979 8.76771 4H11.0001C11.5524 4 12.0001 4.44772 12.0001 5C12.0001 5.55228 11.5524 6 11.0001 6H9.57807C9.21641 7.68748 8.63082 9.29154 7.85411 10.7796C8.14489 11.1338 8.4497 11.476 8.76773 11.8055C9.1513 12.2028 9.14014 12.8359 8.74278 13.2195C8.34543 13.603 7.71236 13.5919 7.32879 13.1945C7.13968 12.9986 6.95474 12.7987 6.77411 12.5948C5.88901 13.9101 4.84393 15.1084 3.66698 16.1618C3.25546 16.5301 2.62326 16.4951 2.25494 16.0836C1.88661 15.672 1.92163 15.0398 2.33316 14.6715C3.54625 13.5858 4.6022 12.3288 5.46316 10.9389C4.90669 10.1499 4.40874 9.31652 3.97564 8.44503C3.72986 7.95045 3.93155 7.35027 4.42612 7.10449C4.9207 6.8587 5.52089 7.06039 5.76667 7.55497C6.00027 8.02502 6.25501 8.48278 6.52967 8.92699C6.94706 7.99272 7.28253 7.01402 7.52704 6H3.00007C2.44779 6 2.00007 5.55228 2.00007 5C2.00007 4.44772 2.44779 4 3.00007 4H6.00007V3C6.00007 2.44772 6.44779 2 7.00007 2ZM13.0001 8C13.3788 8 13.7251 8.214 13.8945 8.55279L16.8855 14.5348C16.892 14.5471 16.8982 14.5596 16.9042 14.5722L17.8945 16.5528C18.1415 17.0468 17.9413 17.6474 17.4473 17.8944C16.9533 18.1414 16.3526 17.9412 16.1056 17.4472L15.382 16H10.6181L9.8945 17.4472C9.64751 17.9412 9.04684 18.1414 8.55286 17.8944C8.05888 17.6474 7.85865 17.0468 8.10564 16.5528L9.09595 14.5722C9.10193 14.5596 9.10816 14.5471 9.11464 14.5348L12.1056 8.55279C12.275 8.214 12.6213 8 13.0001 8ZM11.6181 14H14.382L13.0001 11.2361L11.6181 14Z" fill="#111827"/>
</svg>
