<svg width="20" height="20" viewBox="0 0 20 20" fill="none" xmlns="http://www.w3.org/2000/svg">
<path fill-rule="evenodd" clip-rule="evenodd" d="M9.00012 2C8.62135 2 8.27509 2.214 8.1057 2.55279L7.38209 4H4.00012C3.44784 4 3.00012 4.44772 3.00012 5C3.00012 5.55228 3.44784 6 4.00012 6L4.00012 16C4.00012 17.1046 4.89555 18 6.00012 18H14.0001C15.1047 18 16.0001 17.1046 16.0001 16V6C16.5524 6 17.0001 5.55228 17.0001 5C17.0001 4.44772 16.5524 4 16.0001 4H12.6182L11.8946 2.55279C11.7252 2.214 11.3789 2 11.0001 2H9.00012ZM7.00012 8C7.00012 7.44772 7.44784 7 8.00012 7C8.55241 7 9.00012 7.44772 9.00012 8V14C9.00012 14.5523 8.55241 15 8.00012 15C7.44784 15 7.00012 14.5523 7.00012 14V8ZM12.0001 7C11.4478 7 11.0001 7.44772 11.0001 8V14C11.0001 14.5523 11.4478 15 12.0001 15C12.5524 15 13.0001 14.5523 13.0001 14V8C13.0001 7.44772 12.5524 7 12.0001 7Z" fill="#111827"/>
</svg>
