<svg width="20" height="20" viewBox="0 0 20 20" fill="none" xmlns="http://www.w3.org/2000/svg">
<path fill-rule="evenodd" clip-rule="evenodd" d="M12.0001 13C11.4479 13 11.0001 13.4477 11.0001 14C11.0001 14.5523 11.4479 15 12.0001 15H17.0002C17.5524 15 18.0002 14.5523 18.0002 14V9C18.0002 8.44772 17.5524 8 17.0002 8C16.4479 8 16.0002 8.44772 16.0002 9V11.5858L11.7072 7.29289C11.3167 6.90237 10.6836 6.90237 10.293 7.29289L8.00013 9.58579L3.70723 5.29289C3.31671 4.90237 2.68354 4.90237 2.29302 5.29289C1.90249 5.68342 1.90249 6.31658 2.29302 6.70711L7.29303 11.7071C7.68355 12.0976 8.31672 12.0976 8.70724 11.7071L11.0001 9.41421L14.5859 13H12.0001Z" fill="#111827"/>
</svg>
