<svg width="20" height="20" viewBox="0 0 20 20" fill="none" xmlns="http://www.w3.org/2000/svg">
<path fill-rule="evenodd" clip-rule="evenodd" d="M12.0001 7C11.4478 7 11.0001 6.55228 11.0001 6C11.0001 5.44772 11.4478 5 12.0001 5H17.0001C17.5524 5 18.0001 5.44772 18.0001 6V11C18.0001 11.5523 17.5524 12 17.0001 12C16.4478 12 16.0001 11.5523 16.0001 11V8.41421L11.7072 12.7071C11.3167 13.0976 10.6835 13.0976 10.293 12.7071L8.00013 10.4142L3.70723 14.7071C3.31671 15.0976 2.68354 15.0976 2.29302 14.7071C1.90249 14.3166 1.90249 13.6834 2.29302 13.2929L7.29302 8.29289C7.68354 7.90237 8.31671 7.90237 8.70723 8.29289L11.0001 10.5858L14.5859 7H12.0001Z" fill="#111827"/>
</svg>
