<svg width="20" height="20" viewBox="0 0 20 20" fill="none" xmlns="http://www.w3.org/2000/svg">
<path d="M8.00006 16.5C8.00006 17.3284 7.32849 18 6.50006 18C5.67163 18 5.00006 17.3284 5.00006 16.5C5.00006 15.6716 5.67163 15 6.50006 15C7.32849 15 8.00006 15.6716 8.00006 16.5Z" fill="#111827"/>
<path d="M15.0001 16.5C15.0001 17.3284 14.3285 18 13.5001 18C12.6716 18 12.0001 17.3284 12.0001 16.5C12.0001 15.6716 12.6716 15 13.5001 15C14.3285 15 15.0001 15.6716 15.0001 16.5Z" fill="#111827"/>
<path d="M3.00006 4C2.44778 4 2.00006 4.44772 2.00006 5V15C2.00006 15.5523 2.44778 16 3.00006 16H4.05007C4.28171 14.8589 5.29058 14 6.50006 14C7.70954 14 8.71842 14.8589 8.95005 16H10.0001C10.5523 16 11.0001 15.5523 11.0001 15V5C11.0001 4.44772 10.5523 4 10.0001 4H3.00006Z" fill="#111827"/>
<path d="M14.0001 7C13.4478 7 13.0001 7.44772 13.0001 8V14.05C13.1616 14.0172 13.3288 14 13.5001 14C14.7095 14 15.7184 14.8589 15.9501 16H17.0001C17.5523 16 18.0001 15.5523 18.0001 15V10C18.0001 9.73478 17.8947 9.48043 17.7072 9.29289L15.7072 7.29289C15.5196 7.10536 15.2653 7 15.0001 7H14.0001Z" fill="#111827"/>
</svg>
