<svg width="20" height="20" viewBox="0 0 20 20" fill="none" xmlns="http://www.w3.org/2000/svg">
<path fill-rule="evenodd" clip-rule="evenodd" d="M3.00006 17C3.00006 16.4477 3.44778 16 4.00006 16H16.0001C16.5523 16 17.0001 16.4477 17.0001 17C17.0001 17.5523 16.5523 18 16.0001 18H4.00006C3.44778 18 3.00006 17.5523 3.00006 17ZM6.29295 6.70711C5.90243 6.31658 5.90243 5.68342 6.29295 5.29289L9.29295 2.29289C9.48049 2.10536 9.73484 2 10.0001 2C10.2653 2 10.5196 2.10536 10.7072 2.29289L13.7072 5.29289C14.0977 5.68342 14.0977 6.31658 13.7072 6.70711C13.3166 7.09763 12.6835 7.09763 12.293 6.70711L11.0001 5.41421L11.0001 13C11.0001 13.5523 10.5523 14 10.0001 14C9.44777 14 9.00006 13.5523 9.00006 13L9.00006 5.41421L7.70717 6.70711C7.31664 7.09763 6.68348 7.09763 6.29295 6.70711Z" fill="#111827"/>
</svg>
