<svg width="20" height="20" viewBox="0 0 20 20" fill="none" xmlns="http://www.w3.org/2000/svg">
<path d="M2.00012 6C2.00012 4.89543 2.89555 4 4.00012 4H10.0001C11.1047 4 12.0001 4.89543 12.0001 6V14C12.0001 15.1046 11.1047 16 10.0001 16H4.00012C2.89555 16 2.00012 15.1046 2.00012 14V6Z" fill="#111827"/>
<path d="M14.5529 7.10557C14.2141 7.27497 14.0001 7.62123 14.0001 8V12C14.0001 12.3788 14.2141 12.725 14.5529 12.8944L16.5529 13.8944C16.8629 14.0494 17.231 14.0329 17.5259 13.8507C17.8207 13.6684 18.0001 13.3466 18.0001 13V7C18.0001 6.65342 17.8207 6.33156 17.5259 6.14935C17.231 5.96714 16.8629 5.95058 16.5529 6.10557L14.5529 7.10557Z" fill="#111827"/>
</svg>
