<svg width="20" height="20" viewBox="0 0 20 20" fill="none" xmlns="http://www.w3.org/2000/svg">
<path d="M2.00006 4C2.00006 3.44772 2.44778 3 3.00006 3H5.00006C5.55235 3 6.00006 3.44772 6.00006 4V16C6.00006 16.5523 5.55235 17 5.00006 17H3.00006C2.44778 17 2.00006 16.5523 2.00006 16V4Z" fill="#111827"/>
<path d="M8.00006 4C8.00006 3.44772 8.44778 3 9.00006 3H11.0001C11.5523 3 12.0001 3.44772 12.0001 4V16C12.0001 16.5523 11.5523 17 11.0001 17H9.00006C8.44778 17 8.00006 16.5523 8.00006 16V4Z" fill="#111827"/>
<path d="M15.0001 3C14.4478 3 14.0001 3.44772 14.0001 4V16C14.0001 16.5523 14.4478 17 15.0001 17H17.0001C17.5523 17 18.0001 16.5523 18.0001 16V4C18.0001 3.44772 17.5523 3 17.0001 3H15.0001Z" fill="#111827"/>
</svg>
