<svg width="20" height="20" viewBox="0 0 20 20" fill="none" xmlns="http://www.w3.org/2000/svg">
<path fill-rule="evenodd" clip-rule="evenodd" d="M3.00006 4C3.00006 3.44772 3.44778 3 4.00006 3H16.0001C16.5524 3 17.0001 3.44772 17.0001 4C17.0001 4.55228 16.5524 5 16.0001 5H4.00006C3.44778 5 3.00006 4.55228 3.00006 4ZM3.00006 8C3.00006 7.44772 3.44778 7 4.00006 7H16.0001C16.5524 7 17.0001 7.44772 17.0001 8C17.0001 8.55228 16.5524 9 16.0001 9H4.00006C3.44778 9 3.00006 8.55228 3.00006 8ZM3.00006 12C3.00006 11.4477 3.44778 11 4.00006 11H16.0001C16.5524 11 17.0001 11.4477 17.0001 12C17.0001 12.5523 16.5524 13 16.0001 13H4.00006C3.44778 13 3.00006 12.5523 3.00006 12ZM3.00006 16C3.00006 15.4477 3.44778 15 4.00006 15H16.0001C16.5524 15 17.0001 15.4477 17.0001 16C17.0001 16.5523 16.5524 17 16.0001 17H4.00006C3.44778 17 3.00006 16.5523 3.00006 16Z" fill="#111827"/>
</svg>
