<svg width="20" height="20" viewBox="0 0 20 20" fill="none" xmlns="http://www.w3.org/2000/svg">
<path d="M5.00012 3C3.89555 3 3.00012 3.89543 3.00012 5V7C3.00012 8.10457 3.89555 9 5.00012 9H7.00012C8.10469 9 9.00012 8.10457 9.00012 7V5C9.00012 3.89543 8.10469 3 7.00012 3H5.00012Z" fill="#111827"/>
<path d="M5.00012 11C3.89555 11 3.00012 11.8954 3.00012 13V15C3.00012 16.1046 3.89555 17 5.00012 17H7.00012C8.10469 17 9.00012 16.1046 9.00012 15V13C9.00012 11.8954 8.10469 11 7.00012 11H5.00012Z" fill="#111827"/>
<path d="M11.0001 5C11.0001 3.89543 11.8956 3 13.0001 3H15.0001C16.1047 3 17.0001 3.89543 17.0001 5V7C17.0001 8.10457 16.1047 9 15.0001 9H13.0001C11.8956 9 11.0001 8.10457 11.0001 7V5Z" fill="#111827"/>
<path d="M14.0001 11C14.5524 11 15.0001 11.4477 15.0001 12V13H16.0001C16.5524 13 17.0001 13.4477 17.0001 14C17.0001 14.5523 16.5524 15 16.0001 15H15.0001V16C15.0001 16.5523 14.5524 17 14.0001 17C13.4478 17 13.0001 16.5523 13.0001 16V15H12.0001C11.4478 15 11.0001 14.5523 11.0001 14C11.0001 13.4477 11.4478 13 12.0001 13H13.0001V12C13.0001 11.4477 13.4478 11 14.0001 11Z" fill="#111827"/>
</svg>
