<svg width="20" height="20" viewBox="0 0 20 20" fill="none" xmlns="http://www.w3.org/2000/svg">
<path fill-rule="evenodd" clip-rule="evenodd" d="M9.3828 3.07615C9.75648 3.23093 10.0001 3.59557 10.0001 4.00003V16C10.0001 16.4045 9.75648 16.7691 9.3828 16.9239C9.00913 17.0787 8.57901 16.9931 8.29302 16.7071L4.58591 13H2.00012C1.44784 13 1.00012 12.5523 1.00012 12V8.00003C1.00012 7.44774 1.44784 7.00003 2.00012 7.00003H4.58591L8.29302 3.29292C8.57901 3.00692 9.00913 2.92137 9.3828 3.07615Z" fill="#111827"/>
<path fill-rule="evenodd" clip-rule="evenodd" d="M12.293 7.29289C12.6835 6.90237 13.3167 6.90237 13.7072 7.29289L15.0001 8.58579L16.293 7.29289C16.6835 6.90237 17.3167 6.90237 17.7072 7.29289C18.0978 7.68342 18.0978 8.31658 17.7072 8.70711L16.4143 10L17.7072 11.2929C18.0978 11.6834 18.0978 12.3166 17.7072 12.7071C17.3167 13.0976 16.6835 13.0976 16.293 12.7071L15.0001 11.4142L13.7072 12.7071C13.3167 13.0976 12.6835 13.0976 12.293 12.7071C11.9025 12.3166 11.9025 11.6834 12.293 11.2929L13.5859 10L12.293 8.70711C11.9025 8.31658 11.9025 7.68342 12.293 7.29289Z" fill="#111827"/>
</svg>
