<svg width="20" height="20" viewBox="0 0 20 20" fill="none" xmlns="http://www.w3.org/2000/svg">
<g clip-path="url(#clip0_1_1856)">
<path fill-rule="evenodd" clip-rule="evenodd" d="M17.7782 8.22183C13.4824 3.92606 6.51758 3.92606 2.22182 8.22183C1.83129 8.61235 1.19813 8.61235 0.807603 8.22183C0.417078 7.8313 0.417078 7.19814 0.807603 6.80761C5.88442 1.7308 14.1156 1.7308 19.1924 6.80761C19.5829 7.19814 19.5829 7.8313 19.1924 8.22183C18.8019 8.61235 18.1687 8.61235 17.7782 8.22183ZM14.9497 11.0503C12.2161 8.31659 7.78391 8.31659 5.05024 11.0503C4.65972 11.4408 4.02655 11.4408 3.63603 11.0503C3.24551 10.6597 3.24551 10.0266 3.63603 9.63605C7.15075 6.12133 12.8492 6.12133 16.364 9.63605C16.7545 10.0266 16.7545 10.6597 16.364 11.0503C15.9734 11.4408 15.3403 11.4408 14.9497 11.0503ZM12.1213 13.8787C10.9497 12.7071 9.05024 12.7071 7.87867 13.8787C7.48815 14.2692 6.85498 14.2692 6.46446 13.8787C6.07393 13.4882 6.07393 12.855 6.46446 12.4645C8.41708 10.5119 11.5829 10.5119 13.5355 12.4645C13.926 12.855 13.926 13.4882 13.5355 13.8787C13.145 14.2692 12.5118 14.2692 12.1213 13.8787ZM8.99999 16C8.99999 15.4477 9.44771 15 9.99999 15H10.01C10.5623 15 11.01 15.4477 11.01 16C11.01 16.5523 10.5623 17 10.01 17H9.99999C9.44771 17 8.99999 16.5523 8.99999 16Z" fill="#111827"/>
</g>
<defs>
<clipPath id="clip0_1_1856">
<rect width="20" height="20" fill="white"/>
</clipPath>
</defs>
</svg>
